<svg width="55" height="56" viewBox="0 0 55 56" fill="none" xmlns="http://www.w3.org/2000/svg">
<path d="M26.6521 0C25.7354 0 25.2083 0.0461665 25.2083 0.0461665C25.2083 0.0461665 0 2.35449 0 30.0544C0 30.0544 0 46.2127 9.16667 46.2127C17.1875 46.2127 18.1958 33.8401 22.9167 33.8401C23.6042 33.8401 24.3375 34.094 25.2083 34.6711C32.0833 39.2877 9.16667 46.2127 16.0417 53.1377C17.8521 54.9613 21.45 56 25.7354 56C37.675 56 55 48.1055 55 27.7461C55 1.73124 32.6333 0 26.6521 0ZM25.7354 53.6917C22.0917 53.6917 18.9979 52.8607 17.6688 51.4988C17.0042 50.8294 17.0271 50.4369 17.0271 50.3215C17.1417 48.7288 20.3271 46.2127 22.6646 44.366C26.0104 41.7115 28.9208 39.4493 28.8062 36.4716C28.7604 35.4559 28.325 34.0017 26.4917 32.7552C25.2771 31.9472 24.0854 31.5317 22.9167 31.5317C19.5479 31.5317 17.7604 34.6503 15.9958 37.6488C13.8187 41.4345 12.1688 43.9044 9.16667 43.9044C2.49792 43.9044 2.29167 30.1929 2.29167 30.0544C2.29167 4.84749 24.475 2.44683 25.3917 2.35449C25.4146 2.35449 25.8729 2.30833 26.6521 2.30833C32.7708 2.30833 52.7083 4.15499 52.7083 27.7461C52.7083 46.7898 36.575 53.6917 25.7354 53.6917Z" fill="#2D2220"/>
<path d="M48.561 11.9494C42.42 7.54489 34.83 7 31.449 7C30.667 7 30.207 7.04541 30.184 7.04541C29.264 7.13622 7 9.49741 7 34.2899C7 34.3807 7.069 39.3982 8.656 43.3259C8.863 43.3487 9.07 43.3714 9.3 43.3714C12.313 43.3714 13.969 40.9421 16.154 37.2187C17.925 34.2672 19.719 31.2022 23.1 31.2022C24.273 31.2022 25.469 31.6131 26.688 32.4055C28.436 33.5883 28.919 34.9256 28.988 35.9245C29.011 35.9722 29.011 36.0154 29.011 36.063C29.126 38.9918 26.205 41.2168 22.847 43.8277C20.501 45.644 17.304 48.1187 17.189 49.6853C17.189 49.7988 17.166 50.1847 17.833 50.8432C18.73 51.7513 20.409 52.4097 22.548 52.7276C23.583 52.9092 24.733 53 25.929 53C36.808 52.9977 53 46.2093 53 27.4788C53 20.5768 51.229 15.5593 48.561 11.9494ZM20.8 20.6676C18.27 20.6676 16.2 18.6243 16.2 16.1269C16.2 13.6295 18.27 11.5862 20.8 11.5862C23.33 11.5862 25.4 13.6295 25.4 16.1269C25.4 18.6243 23.33 20.6676 20.8 20.6676ZM39.2 41.101C36.67 41.101 34.6 39.0576 34.6 36.5602C34.6 34.0628 36.67 32.0195 39.2 32.0195C41.73 32.0195 43.8 34.0628 43.8 36.5602C43.8 39.0576 41.73 41.101 39.2 41.101ZM39.2 22.938C36.67 22.938 34.6 20.8947 34.6 18.3973C34.6 15.8999 36.67 13.8565 39.2 13.8565C41.73 13.8565 43.8 15.8999 43.8 18.3973C43.8 20.8947 41.73 22.938 39.2 22.938Z" fill="#FFD561"/>
<path d="M9.5 25C7.025 25 5 27.25 5 30C5 32.75 7.025 35 9.5 35C11.975 35 14 32.75 14 30C14 27.25 11.975 25 9.5 25ZM9.5 32.5C8.2625 32.5 7.25 31.375 7.25 30C7.25 28.625 8.2625 27.5 9.5 27.5C10.7375 27.5 11.75 28.625 11.75 30C11.75 31.375 10.7375 32.5 9.5 32.5Z" fill="#2D2220"/>
<path d="M9 32C10.1046 32 11 31.1046 11 30C11 28.8954 10.1046 28 9 28C7.89543 28 7 28.8954 7 30C7 31.1046 7.89543 32 9 32Z" fill="#31CFFF"/>
<path d="M20.5 9C16.9033 9 14 12.1267 14 16C14 19.8733 16.9033 23 20.5 23C24.0967 23 27 19.8733 27 16C27 12.1267 24.0967 9 20.5 9ZM20.5 20.6667C18.1167 20.6667 16.1667 18.5667 16.1667 16C16.1667 13.4333 18.1167 11.3333 20.5 11.3333C22.8833 11.3333 24.8333 13.4333 24.8333 16C24.8333 18.5667 22.8833 20.6667 20.5 20.6667Z" fill="#2D2220"/>
<path d="M25 16.3333C25 18.9 22.9 21 20.3333 21C19.6567 21 19.0033 20.86 18.42 20.58C18.14 19.9967 18 19.3433 18 18.6667C18 16.1 20.1 14 22.6667 14C23.3433 14 23.9967 14.14 24.58 14.42C24.86 15.0033 25 15.6567 25 16.3333Z" fill="#E371FF"/>
<path d="M39 12C35.1267 12 32 14.9033 32 18.5C32 22.0967 35.1267 25 39 25C42.8733 25 46 22.0967 46 18.5C46 14.9033 42.8733 12 39 12ZM39 22.8333C36.4333 22.8333 34.3333 20.8833 34.3333 18.5C34.3333 16.1167 36.4333 14.1667 39 14.1667C41.5667 14.1667 43.6667 16.1167 43.6667 18.5C43.6667 20.8833 41.5667 22.8333 39 22.8333Z" fill="#2D2220"/>
<path d="M44 18.3333C44 20.9 41.9 23 39.3333 23C38.6567 23 38.0033 22.86 37.42 22.58C37.14 21.9967 37 21.3433 37 20.6667C37 18.1 39.1 16 41.6667 16C42.3433 16 42.9967 16.14 43.58 16.42C43.86 17.0033 44 17.6567 44 18.3333Z" fill="#FF6B43"/>
<path d="M39 30C35.1267 30 32 33.1267 32 37C32 40.8733 35.1267 44 39 44C42.8733 44 46 40.8733 46 37C46 33.1267 42.8733 30 39 30ZM39 41.6667C36.4333 41.6667 34.3333 39.5667 34.3333 37C34.3333 34.4333 36.4333 32.3333 39 32.3333C41.5667 32.3333 43.6667 34.4333 43.6667 37C43.6667 39.5667 41.5667 41.6667 39 41.6667Z" fill="#2D2220"/>
</svg>
