<svg width="42" height="55" viewBox="0 0 42 55" fill="none" xmlns="http://www.w3.org/2000/svg">
<path d="M14.4941 13.75C10.7331 13.7465 7.01883 14.5412 3.62354 16.0761V19.9719C6.92086 18.1416 10.6738 17.1803 14.4941 17.1875C18.6937 17.1817 22.805 18.3311 26.3301 20.4965C29.8553 22.6619 32.643 25.7504 34.3557 29.3881C36.0684 33.0257 36.6327 37.0563 35.9802 40.992C35.3277 44.9276 33.4864 48.5993 30.6792 51.5625H35.2932C36.428 50.0381 37.361 48.3872 38.0712 46.6469C39.2578 43.8378 39.8646 40.8387 39.8588 37.8125C39.8515 31.4329 37.1768 25.3165 32.4216 20.8055C27.6664 16.2944 21.219 13.757 14.4941 13.75Z" fill="#4C5665"/>
<path d="M39.8588 51.5625H1.20784C0.54077 51.5625 0 52.0755 0 52.7083V53.8542C0 54.487 0.54077 55 1.20784 55H39.8588C40.5259 55 41.0667 54.487 41.0667 53.8542V52.7083C41.0667 52.0755 40.5259 51.5625 39.8588 51.5625Z" fill="#4C5665"/>
<path d="M12.0784 6.875H6.03922C4.70507 6.875 3.62354 7.90101 3.62354 9.16667V30.9375C3.62354 32.2032 4.70507 33.2292 6.03922 33.2292H12.0784C13.4126 33.2292 14.4941 32.2032 14.4941 30.9375V9.16667C14.4941 7.90101 13.4126 6.875 12.0784 6.875Z" fill="#BEC3C7"/>
<path d="M12.0784 6.875H6.03922C4.70507 6.875 3.62354 7.90101 3.62354 9.16667V30.9375C3.62354 32.2032 4.70507 33.2292 6.03922 33.2292H12.0784C13.4126 33.2292 14.4941 32.2032 14.4941 30.9375V9.16667C14.4941 7.90101 13.4126 6.875 12.0784 6.875Z" fill="#D0D7DF"/>
<path d="M14.4941 9.16667V30.9375C14.4922 31.5447 14.2371 32.1266 13.7845 32.556C13.3319 32.9853 12.7185 33.2274 12.0784 33.2292H6.03922C5.39913 33.2274 4.7858 32.9853 4.33319 32.556C3.88057 32.1266 3.62545 31.5447 3.62354 30.9375H8.45491C9.095 30.9357 9.70833 30.6937 10.1609 30.2643C10.6136 29.8349 10.8687 29.2531 10.8706 28.6458V6.875H12.0784C12.7185 6.87681 13.3319 7.11884 13.7845 7.54822C14.2371 7.9776 14.4922 8.55944 14.4941 9.16667Z" fill="#A4B0C0"/>
<path d="M12.0786 2.2915H8.45508V6.87484H12.0786V2.2915Z" fill="#A4B0C0"/>
<path d="M6.03955 2.2915H8.45524V6.87484H6.03955" fill="#D0D7DF"/>
<path d="M13.2863 0H4.83138C4.1643 0 3.62354 0.513007 3.62354 1.14583C3.62354 1.77866 4.1643 2.29167 4.83138 2.29167H13.2863C13.9534 2.29167 14.4941 1.77866 14.4941 1.14583C14.4941 0.513007 13.9534 0 13.2863 0Z" fill="#768BA0"/>
<path d="M16.9098 43.5415H1.20784C0.54077 43.5415 0 44.0545 0 44.6873C0 45.3202 0.54077 45.8332 1.20784 45.8332H16.9098C17.5769 45.8332 18.1176 45.3202 18.1176 44.6873C18.1176 44.0545 17.5769 43.5415 16.9098 43.5415Z" fill="#BEC3C7"/>
<path d="M16.9098 43.5415H1.20784C0.54077 43.5415 0 44.0545 0 44.6873C0 45.3202 0.54077 45.8332 1.20784 45.8332H16.9098C17.5769 45.8332 18.1176 45.3202 18.1176 44.6873C18.1176 44.0545 17.5769 43.5415 16.9098 43.5415Z" fill="#D0D7DF"/>
<path d="M10.8706 45.8335H7.24707V51.5627H10.8706V45.8335Z" fill="#768BA0"/>
<path d="M6.03955 33.229H12.0788V34.3748C12.0788 34.6787 11.9515 34.9702 11.725 35.1851C11.4985 35.4 11.1913 35.5207 10.8709 35.5207H7.24739C6.92705 35.5207 6.61983 35.4 6.39332 35.1851C6.16681 34.9702 6.03955 34.6787 6.03955 34.3748V33.229Z" fill="#4C5665"/>
</svg>
