<svg width="56" height="49" viewBox="0 0 56 49" fill="none" xmlns="http://www.w3.org/2000/svg">
<path d="M43.6368 15.5284V10.3315H45.3819L45.3558 6.93018H34.9948L34.9703 10.3315H36.7136V15.539C36.7136 15.539 31.4432 17.672 29.6683 19.4975C29.6002 19.4869 40.1656 43.5143 40.2373 43.5859L40.7771 43.5965C49.1292 43.5965 55.902 37.1679 55.902 29.2402C55.9036 22.7977 49.7929 17.3452 43.6368 15.5284Z" fill="#CCD0D2"/>
<path d="M31.4365 23.1837C33.5696 20.7782 37.0826 19.1484 40.7686 19.1484C47.1903 19.1484 52.3944 23.8389 52.3944 29.6248C52.3944 35.4107 47.1903 40.1011 40.7686 40.1011C40.2917 40.1011 39.586 40.075 39.1264 40.0243" fill="#324D5B"/>
<path d="M36.6768 10.3909H43.64V12.0837H36.6768V10.3909Z" fill="#B9BCBE"/>
<path d="M27.8862 12.1447L27.8966 3.35757L29.6785 3.38372L29.6749 0H12.2425L12.2389 3.38372L13.9667 3.35757L13.9789 12.1638L0 46.5418C0 47.8101 1.05684 48.7779 2.36361 48.7779H40.1567C41.4598 48.7779 42.5185 47.8067 42.5185 46.5418L27.8862 12.1447Z" fill="#EBEBEB"/>
<path d="M29.6513 26.1306L36.6389 43.5946C36.6389 44.7686 36.1602 45.3398 34.9007 45.3398H6.90989C5.65043 45.3398 5.16992 44.8245 5.16992 43.6469L12.2502 26.148L29.6513 26.1306Z" fill="#E2574C"/>
<path d="M19.2048 31.3748C18.2388 31.3748 17.4561 32.1539 17.4561 33.1199C17.4561 34.0841 18.2386 34.8651 19.2048 34.8651C20.1726 34.8651 20.9552 34.0841 20.9552 33.1199C20.9554 32.1539 20.1708 31.3748 19.2048 31.3748ZM27.0818 36.6106C25.6423 36.6106 24.4754 37.7829 24.4754 39.2276C24.4754 40.6757 25.6425 41.8479 27.0818 41.8479C28.5213 41.8479 29.6882 40.6757 29.6882 39.2276C29.6899 37.7827 28.5229 36.6106 27.0818 36.6106Z" fill="#EE7A6A"/>
<path d="M13.9775 3.41162H27.8849V5.10268H13.9775V3.41162Z" fill="#D3D3D3"/>
</svg>
