<svg width="281" height="281" viewBox="0 0 281 281" fill="none" xmlns="http://www.w3.org/2000/svg">
<rect width="281" height="281" fill="#D9D9D9"/>
<path d="M162.25 107C162.25 112.636 160.011 118.041 156.026 122.026C152.041 126.011 146.636 128.25 141 128.25C135.364 128.25 129.959 126.011 125.974 122.026C121.989 118.041 119.75 112.636 119.75 107C119.75 101.364 121.989 95.9591 125.974 91.974C129.959 87.9888 135.364 85.75 141 85.75C146.636 85.75 152.041 87.9888 156.026 91.974C160.011 95.9591 162.25 101.364 162.25 107ZM98.5059 187.002C98.688 175.852 103.245 165.22 111.195 157.4C119.144 149.579 129.849 145.196 141 145.196C152.152 145.196 162.856 149.579 170.806 157.4C178.755 165.22 183.312 175.852 183.495 187.002C170.163 193.115 155.666 196.27 141 196.25C125.836 196.25 111.443 192.941 98.5059 187.002Z" stroke="black" stroke-width="3" stroke-linecap="round" stroke-linejoin="round"/>
</svg>
