<svg width="42" height="40" viewBox="0 0 42 40" fill="none" xmlns="http://www.w3.org/2000/svg">
<path d="M26.2449 27.1907C24.992 28.4282 22.309 29.389 20.3496 29.9407C20.8824 27.9985 21.8621 25.2657 23.0996 24.0454L26.2449 27.1907Z" fill="#BCBCBC"/>
<path d="M40.8203 7.73438C40.2016 7.49375 39.6 7.39063 39.0156 7.39063C36.6609 7.39063 34.7531 8.95469 34.7531 8.95469C34.7531 8.95469 29.5797 13.0969 25.3172 16.6547C24.7328 12.1687 23.4609 5.96406 22.2062 3.4375C20.4875 0 18.7687 0 18.7687 0H6.7375C6.7375 0 5.01875 0 3.3 3.4375C1.99375 6.05 0.6875 12.6672 0.1375 17.1875H1.85625C2.04531 15.6234 2.3375 13.8188 2.68125 12.0312H22.825C22.9281 12.5984 23.0313 13.1828 23.1344 13.75C23.3922 15.2453 23.5984 16.7062 23.7359 17.9609C22.1375 19.3188 20.8141 20.4703 20.1609 21.1063C18.4422 22.825 17.325 26.4 16.8266 28.3061C16.3281 28.1187 15.7609 27.9967 15.1594 27.9967C14.2141 27.9967 13.1656 28.3061 12.1 29.217H11.8938C11.55 29.217 11.2406 29.217 10.9141 29.1827C10.6047 29.1827 10.2953 29.1466 10.0031 29.1139C3.93594 28.5141 2.18281 24.9562 1.71875 22.3438H0C0.532812 25.7469 2.85313 30.4391 10.6219 30.9031C8.26719 34.5297 9.22969 39.3422 9.22969 39.3422C9.22969 39.3422 10.175 39.5312 11.6016 39.5312C16.1047 39.5312 17.8406 37.8125 17.8406 37.8125C19.8172 36.3 20.4359 34.375 20.4359 34.375C20.6766 33.3953 20.5391 32.4844 20.2469 31.7281C22.1719 31.2297 25.7297 30.1297 27.4484 28.3938C29.8891 25.972 39.6 13.8205 39.6 13.8205C39.6 13.8205 41.9031 11.1031 40.8203 7.73438ZM11.8938 10.3125H3.025C3.575 7.75156 4.21094 5.43125 4.82969 4.21094C5.82656 2.21719 6.68594 1.7875 6.875 1.71875H11.8938V10.3125ZM13.6125 10.3125V1.71875H18.6313C18.7859 1.77031 19.4391 2.09687 20.2469 3.4375C20.3844 3.66094 20.5219 3.91875 20.6766 4.21094C21.2953 5.43125 21.9312 7.75156 22.4813 10.3125H13.6125ZM13.8188 37.6234C12.7875 37.7609 11.8078 37.797 10.7766 37.797C10.7078 36.7486 10.7594 35.6984 10.9656 34.6689C11.3781 32.5566 12.9766 29.3236 15.6062 29.7533C17.3078 30.0283 18.8547 31.5597 18.8547 33.3283C18.8547 35.8359 15.8984 37.2109 13.8188 37.6234ZM20.35 29.9406C20.0406 30.0266 19.7484 30.0953 19.4906 30.1641L19.1125 29.8031L19.0094 29.6828L18.8719 29.547L18.4078 29.0658C18.6141 28.2064 18.9578 27.0205 19.3875 25.8689L22.7047 29.1689C21.8969 29.4766 21.0719 29.7344 20.35 29.9406ZM24.3891 28.4281L20.1283 24.1828C20.5064 23.4266 20.9189 22.7734 21.383 22.3266L23.1017 24.0453L26.247 27.1906C25.7812 27.6375 25.1281 28.0672 24.3891 28.4281ZM39.1016 11.1719C38.7922 12.0828 38.3109 12.6844 38.2594 12.7359C38.1906 12.8391 30.7828 22.1031 27.4141 25.9359L22.6359 21.1578C26.4688 17.7908 35.7156 10.3641 35.8359 10.297C35.8359 10.2798 37.3484 9.11109 39.0173 9.11109C39.1359 9.11109 39.258 9.12828 39.3783 9.12828C39.4625 9.9 39.325 10.6047 39.1016 11.1719Z" fill="#2D2220"/>
<path d="M18.8546 33.3266C18.8546 34.0485 18.5796 34.858 17.7374 35.6985C16.2593 37.1766 14.1968 37.675 12.4953 37.7799C12.3921 36.0422 12.5296 32.8969 14.5921 30.8361C15.0734 30.3549 15.5546 30.0266 16.0359 29.8564C16.7234 30.0627 17.2734 30.458 17.5484 30.6643L17.6687 30.7691L17.8749 30.9736C18.2703 31.4188 18.8546 32.2782 18.8546 33.3266Z" fill="#31CFFF"/>
<path d="M39.1014 11.1719C38.792 12.0828 38.3107 12.6844 38.2592 12.7359C38.1904 12.8391 30.7826 22.1031 27.4139 25.9359L24.3545 22.8766C28.1873 19.5095 37.4342 12.0828 37.5545 12.0158C37.5545 11.9969 38.1904 11.4984 39.1014 11.1719Z" fill="#E371FF"/>
<path d="M22.4811 10.3125H15.3311V3.4375H20.2467C20.3842 3.66094 20.5217 3.91875 20.6764 4.21094C21.2951 5.43125 21.9311 7.75156 22.4811 10.3125Z" fill="#FFA28D"/>
<path d="M11.8934 3.4375V10.3125H5.13867C5.58555 8.45625 6.0668 6.875 6.54805 5.92969C7.54492 3.93594 8.4043 3.50625 8.59336 3.4375H11.8934Z" fill="#FFA28D"/>
<path d="M22.4811 10.3125H15.3311V3.4375H20.2467C20.3842 3.66094 20.5217 3.91875 20.6764 4.21094C21.2951 5.43125 21.9311 7.75156 22.4811 10.3125Z" fill="#BCBCBC"/>
<path d="M11.8934 3.4375V10.3125H5.13867C5.58555 8.45625 6.0668 6.875 6.54805 5.92969C7.54492 3.93594 8.4043 3.50625 8.59336 3.4375H11.8934Z" fill="#BCBCBC"/>
<path d="M23.7357 17.9609C22.1373 19.3187 20.8139 20.4703 20.1607 21.1063C18.442 22.825 17.3248 26.4 16.8264 28.3061C16.3279 28.1187 15.7607 27.9967 15.1592 27.9967C14.2139 27.9967 13.1654 28.3061 12.0998 29.217H11.8936C11.5498 29.217 11.2404 29.217 10.9139 29.1827C10.6045 29.1827 10.2951 29.1466 10.0029 29.1139C7.1498 27.1391 6.7373 24.0109 6.7373 22.3437C6.7373 20.5906 7.18418 17.1187 7.83731 13.75H23.1342C23.392 15.2453 23.5982 16.7062 23.7357 17.9609Z" fill="#BCBCBC"/>
</svg>
