<svg width="65" height="55" viewBox="0 0 65 55" fill="none" xmlns="http://www.w3.org/2000/svg">
<path d="M64.9413 22.528L60.718 39.6587C59.5449 45.056 55.5562 49.28 50.3944 51.1573L40.3054 54.912C39.3669 55.1467 38.4284 54.912 37.7245 54.208L30.4511 46.2293C26.697 42.24 25.2893 36.608 26.4624 31.2107L30.4511 14.08C30.6857 13.1413 31.6242 12.2027 32.7973 12.2027C43.5902 12.2027 53.9138 14.784 63.5336 19.4773C64.7067 20.416 65.176 21.5893 64.9413 22.528ZM35.6129 34.0267C34.4397 38.4853 37.2553 42.944 41.7132 43.8827C46.1711 45.056 50.6291 42.24 51.5676 37.7813M54.3831 26.5173C52.5061 26.048 50.6291 27.2213 50.1598 29.0987C49.6905 30.976 50.8637 32.8533 52.7407 33.3227C54.6177 33.792 56.4947 32.6187 56.964 30.7413C57.4333 28.864 56.2601 26.9867 54.3831 26.5173ZM38.4284 22.7627C36.5514 22.2933 34.6744 23.4667 34.2051 25.344C33.7359 27.2213 34.909 29.0987 36.786 29.568C38.663 30.0373 40.5401 28.864 41.0093 26.9867C41.4786 25.1093 40.3054 23.232 38.4284 22.7627ZM23.1776 43.648L18.2504 42.4747C12.854 41.0667 8.63069 37.0773 6.75367 31.9147L0.184091 13.1413C-0.285164 12.2027 0.184091 11.0293 1.1226 10.3253C10.2731 4.45867 20.1274 0.938667 30.9203 0C32.0935 0 33.032 0.469333 33.2666 1.64267L35.6129 8.21333C34.6744 8.21333 33.7359 8.21333 32.7973 8.21333C29.5126 8.21333 26.697 10.3253 25.9931 13.6107L23.4122 24.64C23.1776 24.64 22.943 24.64 22.7084 24.8747C18.4851 26.2827 16.1388 30.976 17.7812 35.4347L21.5352 34.0267C21.3006 37.0773 21.7698 40.3627 23.1776 43.648ZM16.608 20.416C15.9041 18.5387 14.0271 17.6 12.1501 18.304C10.2731 18.7733 9.09995 20.8853 9.80383 22.7627C10.5077 24.64 12.3847 25.5787 14.2618 24.8747C16.1388 24.1707 17.0773 22.2933 16.608 20.416Z" fill="#FFD35A"/>
</svg>
