<svg width="42" height="57" viewBox="0 0 42 57" fill="none" xmlns="http://www.w3.org/2000/svg">
<path d="M20.625 45C32.0159 45 41.25 35.7659 41.25 24.375C41.25 12.9841 32.0159 3.75 20.625 3.75C9.23414 3.75 0 12.9841 0 24.375C0 35.7659 9.23414 45 20.625 45Z" fill="#EDEBDC"/>
<path d="M16.5 31.25H39.4167" stroke="#4C241D" stroke-width="1.83333" stroke-linecap="round" stroke-linejoin="round"/>
<path d="M16.5 41.3333H39.4167" stroke="#4C241D" stroke-width="1.83333" stroke-linecap="round" stroke-linejoin="round"/>
<path d="M36.6668 26.6667H18.3335V44.0834H36.6668V26.6667Z" fill="#BF7E68" stroke="#4C241D" stroke-width="1.83333" stroke-linecap="round" stroke-linejoin="round"/>
<path d="M27.6707 40.005C30.322 40.005 32.4713 37.8557 32.4713 35.2044C32.4713 32.5531 30.322 30.4038 27.6707 30.4038C25.0194 30.4038 22.8701 32.5531 22.8701 35.2044C22.8701 37.8557 25.0194 40.005 27.6707 40.005Z" fill="#EDEBDC" stroke="#4C241D" stroke-width="1.83333" stroke-linecap="round" stroke-linejoin="round"/>
<path d="M36.6668 44.0833H18.3335V55.9999H36.6668V44.0833Z" fill="#E7D1C4" stroke="#4C241D" stroke-width="1.83333" stroke-linecap="round" stroke-linejoin="round"/>
<path d="M19.5771 56H36.6015" stroke="#4C241D" stroke-width="1.83333" stroke-linecap="round" stroke-linejoin="round"/>
<path d="M24.75 45V55.0833" stroke="#4C241D" stroke-width="1.83333" stroke-linecap="round" stroke-linejoin="round"/>
<path d="M22 45V55.0833" stroke="#4C241D" stroke-width="1.83333" stroke-linecap="round" stroke-linejoin="round"/>
<path d="M27.5 45V55.0833" stroke="#4C241D" stroke-width="1.83333" stroke-linecap="round" stroke-linejoin="round"/>
<path d="M30.25 45V55.0833" stroke="#4C241D" stroke-width="1.83333" stroke-linecap="round" stroke-linejoin="round"/>
<path d="M33 45V55.0833" stroke="#4C241D" stroke-width="1.83333" stroke-linecap="round" stroke-linejoin="round"/>
<path d="M35.75 20.25H19.25V26.6667H35.75V20.25Z" fill="#E7D1C4" stroke="#4C241D" stroke-width="1.83333" stroke-linecap="round" stroke-linejoin="round"/>
<path d="M31.1665 14.75H23.8332L20.1665 20.25H34.8332L31.1665 14.75Z" fill="#BF7E68" stroke="#4C241D" stroke-width="1.83333" stroke-linecap="round" stroke-linejoin="round"/>
<path d="M31.1668 8.33325H23.8335V14.7499H31.1668V8.33325Z" fill="#E7D1C4" stroke="#4C241D" stroke-width="1.83333" stroke-linecap="round" stroke-linejoin="round"/>
<path d="M31.1668 5.88858L27.2527 1L23.8335 5.88858V8.33333H31.1668V5.88858Z" fill="#BF7E68" stroke="#4C241D" stroke-width="1.83333" stroke-linecap="round" stroke-linejoin="round"/>
<path d="M27.5 34V35.9937L28.5771 36.9902" stroke="#4C241D" stroke-width="1.83333" stroke-linecap="round" stroke-linejoin="round"/>
<path d="M22 23V23.9167" stroke="#4C241D" stroke-width="1.83333" stroke-linecap="round" stroke-linejoin="round"/>
<path d="M24.75 23V23.9167" stroke="#4C241D" stroke-width="1.83333" stroke-linecap="round" stroke-linejoin="round"/>
<path d="M27.5 23V23.9167" stroke="#4C241D" stroke-width="1.83333" stroke-linecap="round" stroke-linejoin="round"/>
<path d="M27.5 11.0833V11.9999" stroke="#4C241D" stroke-width="1.83333" stroke-linecap="round" stroke-linejoin="round"/>
<path d="M30.25 23V23.9167" stroke="#4C241D" stroke-width="1.83333" stroke-linecap="round" stroke-linejoin="round"/>
<path d="M33 23V23.9167" stroke="#4C241D" stroke-width="1.83333" stroke-linecap="round" stroke-linejoin="round"/>
</svg>
