<svg width="46" height="55" viewBox="0 0 46 55" fill="none" xmlns="http://www.w3.org/2000/svg">
<path d="M38.7093 6.71322C40.1334 8.13731 41.2823 9.73284 42.1543 11.4342C44.8876 16.7604 44.9142 23.1165 42.2354 28.4632C41.3536 30.2238 40.1782 31.8749 38.7092 33.3439C31.3556 40.6975 19.4324 40.6975 12.0787 33.3439C10.5184 31.7836 9.28918 30.0181 8.39103 28.1334C5.05613 21.1368 6.28535 12.5067 12.0787 6.71333C13.9694 4.82261 16.1617 3.41839 18.5009 2.50026C25.2616 -0.154337 33.2466 1.25041 38.7093 6.71322Z" fill="#92C9FF"/>
<path d="M38.7085 6.71322C40.1326 8.13731 41.2815 9.73284 42.1535 11.4342C40.6567 11.8257 38.9495 11.9463 37.1676 11.7259C35.4862 11.5179 33.9428 11.0316 32.6347 10.3515C30.2945 9.13472 27.5891 8.87433 25.0168 9.4572C22.8764 9.94221 20.8839 9.58804 19.5828 8.28695C18.2107 6.91485 17.8918 4.77298 18.5001 2.50026C25.2608 -0.154337 33.2458 1.25041 38.7085 6.71322Z" fill="#ABD641"/>
<path d="M42.235 28.4631C41.3516 30.227 40.1735 31.881 38.7008 33.3519C31.2879 40.7558 19.355 40.7128 11.9933 33.2581C10.4733 31.7189 9.27234 29.9835 8.39062 28.1331C10.9921 26.983 13.8341 25.758 15.6318 24.9876C16.7289 24.5174 18.0026 24.7932 18.8075 25.6745L20.6453 27.6867C21.5239 28.6488 22.9495 28.8792 24.0864 28.2429C24.9796 27.7431 26.0741 27.7693 26.9422 28.3116L28.5807 29.3348C29.5349 29.9307 30.753 29.8988 31.6748 29.254L36.016 26.2164C37.0089 25.5216 38.3356 25.5431 39.3057 26.2695L42.235 28.4631Z" fill="#ABD641"/>
<path d="M28.2811 21.1036C28.2274 21.4418 27.1416 24.7361 27.1416 24.7361L29.2993 25.3383C32.1454 25.6123 34.8026 23.8809 35.7015 21.1666L35.8281 20.7841L34.7795 19.4719C33.982 18.4739 32.5536 18.2521 31.4911 18.9612L28.2811 21.1036Z" fill="#87DFD6"/>
<path d="M13.4385 49.6196V53.8043H16.1284H23.1825H37.3504V49.6196H13.4385Z" fill="#4A7DBA"/>
<path d="M26.8213 25.8878L28.9789 26.4902C29.0466 26.5091 29.116 26.5219 29.1858 26.5286C29.4272 26.5518 29.667 26.5633 29.905 26.5633C33.0429 26.5632 35.8325 24.5777 36.8377 21.5426L36.9644 21.1602C37.0916 20.7762 37.0161 20.354 36.7634 20.0379L35.7148 18.7256C34.5206 17.2313 32.42 16.9049 30.8287 17.9669L27.6186 20.1093C27.3488 20.2894 27.1642 20.5709 27.106 20.8892C27.0373 21.185 26.4961 22.8791 26.0073 24.3618C25.9051 24.6721 25.9343 25.0106 26.088 25.299C26.2417 25.5873 26.5066 25.8 26.8213 25.8878ZM29.3177 21.8501L32.1559 19.9558C32.7065 19.5886 33.4334 19.7011 33.8466 20.2185L34.4861 21.0186C33.7028 23.0535 31.7029 24.3232 29.5148 24.157L28.6676 23.9204C28.9694 22.991 29.1866 22.2993 29.3177 21.8501Z" fill="black"/>
<path d="M43.706 37.081C43.705 37.0649 43.7051 37.0488 43.7036 37.0327C43.7014 37.0106 43.6975 36.9889 43.694 36.9667C43.6917 36.9508 43.6901 36.9348 43.6869 36.919C43.6827 36.8975 43.6766 36.8765 43.6714 36.8552C43.6673 36.8392 43.6642 36.8229 43.6595 36.8072C43.6534 36.7867 43.6456 36.7667 43.6384 36.7465C43.6325 36.7302 43.6278 36.7137 43.6212 36.6977C43.6134 36.6784 43.6036 36.6596 43.5947 36.6406C43.587 36.6243 43.5802 36.6076 43.5718 36.5916C43.5625 36.5741 43.5516 36.5575 43.5414 36.5404C43.5313 36.5234 43.5223 36.5062 43.5114 36.4897C43.5013 36.4745 43.4895 36.4601 43.4788 36.4453C43.466 36.4278 43.454 36.41 43.4402 36.393C43.4298 36.3803 43.418 36.3685 43.407 36.3561C43.3912 36.3384 43.3762 36.3202 43.3591 36.3032C43.3588 36.3029 43.3582 36.3024 43.3579 36.3021C43.3577 36.3019 43.3576 36.3017 43.3573 36.3014L40.3692 33.326C40.3742 33.3204 40.3791 33.3148 40.384 33.3093C40.4141 33.2754 40.4436 33.2408 40.4734 33.2067C40.5321 33.1396 40.591 33.0727 40.649 33.0048C40.6747 32.9744 40.7 32.9435 40.7258 32.913C40.7866 32.8408 40.8476 32.7685 40.9074 32.6954C40.9306 32.6672 40.9531 32.6383 40.9761 32.6098C41.0374 32.5342 41.0987 32.4584 41.1589 32.3819C41.182 32.3524 41.2044 32.3226 41.2274 32.2929C41.2867 32.2166 41.346 32.1404 41.4041 32.0633C41.4234 32.0377 41.4419 32.0117 41.4611 31.9861C41.5221 31.9044 41.5829 31.8227 41.6426 31.74C41.6595 31.7166 41.6758 31.6927 41.6926 31.6692C41.7537 31.5838 41.8146 31.4984 41.8744 31.4122C41.887 31.394 41.8991 31.3753 41.9117 31.3572C41.9749 31.2652 42.0376 31.1733 42.0991 31.0804C42.1144 31.0573 42.1292 31.0337 42.1445 31.0105C42.2027 30.9219 42.2607 30.8334 42.3175 30.7439C42.3269 30.7291 42.3358 30.7142 42.3451 30.6993C42.6922 30.149 43.0127 29.5818 43.3047 28.9987C43.3049 28.9981 43.3052 28.9976 43.3055 28.997C46.1528 23.3126 46.1202 16.5431 43.2186 10.8887C42.2711 9.04048 41.0386 7.35128 39.5551 5.86789C39.4671 5.77991 39.3783 5.69269 39.2889 5.60654C36.8925 3.2974 34.0154 1.67061 30.9379 0.784064C30.9154 0.777511 30.893 0.770636 30.8704 0.764191C30.8615 0.76172 30.8524 0.75925 30.8436 0.756779C27.5971 -0.161352 24.1315 -0.25642 20.7744 0.539251C20.5837 0.584475 20.3932 0.631955 20.2032 0.68298C20.1938 0.685451 20.1843 0.687814 20.175 0.690393C19.4647 0.882032 18.7601 1.11406 18.0644 1.38724C18.0641 1.38734 18.0638 1.38745 18.0636 1.38756C15.8668 2.25004 13.8678 3.47959 12.1048 5.04784L9.12022 2.06324C9.06275 2.00588 9.00076 1.9556 8.93567 1.9122C8.47128 1.60358 7.83879 1.65386 7.4294 2.06324C-2.47647 11.9692 -2.47647 28.0875 7.4294 37.9934C12.0789 42.6429 18.097 45.1097 24.199 45.3946V48.4237H13.4386C12.7782 48.4237 12.243 48.959 12.243 49.6193V53.804C12.243 54.4642 12.7782 54.9996 13.4386 54.9996H16.1285C16.7888 54.9996 17.3241 54.4642 17.3241 53.804C17.3241 53.1438 16.7888 52.6084 16.1285 52.6084H14.6337V50.8149H36.1544V52.6084H23.182C22.5217 52.6084 21.9864 53.1438 21.9864 53.804C21.9864 54.4642 22.5217 54.9996 23.182 54.9996H37.3499C38.0103 54.9996 38.5455 54.4642 38.5455 53.804V49.6193C38.5455 48.959 38.0103 48.4237 37.3499 48.4237H26.5895V45.3946C32.6914 45.1097 38.7094 42.6428 43.359 37.9934C43.3594 37.9929 43.3599 37.9923 43.3604 37.9919L43.3607 37.9915C43.3663 37.9859 43.371 37.9797 43.3765 37.9741C43.3994 37.9504 43.4217 37.9263 43.4421 37.9012C43.4487 37.893 43.4544 37.8842 43.4607 37.8759C43.4788 37.8525 43.4969 37.8288 43.513 37.8043C43.52 37.7937 43.5257 37.7824 43.5322 37.7717C43.5462 37.7489 43.5606 37.7261 43.5729 37.7027C43.5801 37.6889 43.5857 37.6745 43.5923 37.6605C43.6024 37.6392 43.6131 37.6181 43.6218 37.5966C43.6285 37.58 43.6335 37.5631 43.6395 37.5465C43.6464 37.5267 43.6542 37.5073 43.66 37.4872C43.6655 37.4688 43.6691 37.4499 43.6736 37.4312C43.6781 37.4125 43.6835 37.3939 43.6872 37.3751C43.6911 37.3548 43.6932 37.3342 43.696 37.3137C43.6983 37.2962 43.7017 37.279 43.7034 37.2615C43.7054 37.2399 43.7056 37.2182 43.7065 37.1965C43.7072 37.18 43.7087 37.1635 43.7087 37.147C43.7091 37.1252 43.7072 37.103 43.706 37.081ZM12.4794 32.0365C12.4611 32.0169 12.4425 31.9975 12.4244 31.978C12.3082 31.852 12.1942 31.7243 12.0819 31.5955C12.0571 31.5671 12.0325 31.5383 12.0079 31.5097C11.8983 31.3824 11.7903 31.2538 11.6846 31.1236C11.6803 31.1184 11.6759 31.1131 11.6716 31.1079C11.5618 30.9722 11.4547 30.8347 11.3491 30.6961C11.327 30.6672 11.3051 30.6382 11.2831 30.609C11.1783 30.4696 11.0749 30.3289 10.9742 30.1866C10.971 30.1821 10.9679 30.1775 10.9647 30.173C10.8671 30.0344 10.772 29.8941 10.6784 29.7528C10.6592 29.7239 10.64 29.695 10.621 29.6659C10.5267 29.5217 10.434 29.376 10.344 29.2291C10.3327 29.2107 10.3218 29.192 10.3106 29.1736C10.2288 29.039 10.1491 28.9034 10.071 28.7665C10.0608 28.7489 10.0507 28.7313 10.0406 28.7134C12.251 27.7433 14.5016 26.7733 16.103 26.0871C16.7315 25.818 17.4636 25.9763 17.9249 26.4814L19.7627 28.4935C21.0224 29.8726 23.0405 30.199 24.6705 29.2867C25.1834 29 25.8111 29.0151 26.3093 29.3261L27.9478 30.3493C29.311 31.201 31.0433 31.1557 32.3606 30.234L36.7019 27.1964C37.273 26.7968 38.0316 26.8092 38.5895 27.2269L40.6932 28.8025C40.6487 28.8799 40.6045 28.9577 40.5588 29.0344C40.5211 29.0977 40.4841 29.1614 40.4456 29.2241C40.3536 29.3744 40.2591 29.5229 40.1627 29.6703C40.14 29.705 40.1183 29.7405 40.0953 29.7751C39.9749 29.9563 39.8508 30.1352 39.7236 30.3119C39.69 30.3586 39.6549 30.4041 39.6208 30.4505C39.5255 30.5804 39.429 30.7093 39.33 30.8366C39.2833 30.8968 39.2355 30.9561 39.1879 31.0156C39.0971 31.1292 39.005 31.2421 38.9113 31.3537C38.8611 31.4136 38.8106 31.4732 38.7596 31.5324C38.6603 31.6475 38.559 31.7612 38.4566 31.874C38.4107 31.9245 38.3655 31.9755 38.319 32.0256C38.1751 32.1802 38.0289 32.3331 37.8791 32.4831C37.8732 32.489 37.8676 32.4951 37.8618 32.5009C37.7614 32.6013 37.6598 32.7002 37.5574 32.7979C37.5544 32.8008 37.5513 32.8039 37.5482 32.8066C34.2559 35.9425 29.9573 37.6637 25.394 37.6637C21.1423 37.6637 17.1205 36.1688 13.9282 33.4284C13.9108 33.4133 13.8931 33.3986 13.8755 33.3835C13.7944 33.3133 13.7143 33.2417 13.6343 33.1699C13.6015 33.1406 13.5685 33.1116 13.536 33.0819C13.4686 33.0206 13.4024 32.9582 13.3359 32.8958C13.2927 32.8553 13.2493 32.815 13.2064 32.7739C13.148 32.7179 13.0903 32.661 13.0325 32.6041C12.9828 32.5553 12.9328 32.5066 12.8835 32.457C12.8534 32.4266 12.8237 32.3958 12.7938 32.3653C12.6874 32.2568 12.5825 32.1474 12.4794 32.0365ZM12.924 7.55892C14.1472 6.33571 15.5169 5.31499 17.0116 4.50804C16.9854 6.35054 17.5763 7.97056 18.7382 9.13265C20.2788 10.6733 22.6639 11.2168 25.2818 10.6234C27.6553 10.0857 30.0711 10.366 32.0839 11.4126C33.5523 12.1761 35.2596 12.6948 37.0217 12.9129C37.6562 12.9912 38.2916 13.0302 38.9206 13.0302C39.7956 13.0302 40.657 12.9533 41.4846 12.8038C43.4435 17.1697 43.5365 22.1815 41.7574 26.6119L40.0226 25.3128C38.6359 24.2741 36.7502 24.2437 35.3308 25.2369L30.9896 28.2745C30.4597 28.6454 29.7629 28.6636 29.2143 28.321L27.5758 27.2977C26.3375 26.5243 24.7769 26.4869 23.5028 27.1998C22.8472 27.567 22.0351 27.4356 21.5283 26.8806L19.6905 24.8685C18.5439 23.613 16.7234 23.2193 15.161 23.889C13.5378 24.5846 11.2496 25.5707 9.00839 26.555C6.42243 20.0582 7.92708 12.556 12.924 7.55892ZM19.5923 3.37217C19.7648 3.31212 19.9379 3.2539 20.1114 3.19954C20.1164 3.19782 20.1214 3.19632 20.1264 3.1946C20.3034 3.13928 20.4812 3.08782 20.6592 3.0382C20.7047 3.02563 20.7501 3.01306 20.7955 3.00081C20.9737 2.9528 21.1524 2.90639 21.3313 2.86407C21.3396 2.86202 21.3479 2.86052 21.3559 2.85848C21.5291 2.81787 21.7024 2.7806 21.8762 2.74537C21.9214 2.73613 21.9664 2.7271 22.0117 2.71819C22.1914 2.68317 22.3712 2.65008 22.5512 2.62065C22.5653 2.61839 22.5796 2.61657 22.5937 2.6142C22.7628 2.58703 22.9321 2.56296 23.1016 2.54094C23.1465 2.53493 23.1915 2.52913 23.2364 2.52365C23.4165 2.50141 23.5968 2.48132 23.7771 2.46478C23.7966 2.46295 23.8162 2.46177 23.8357 2.46016C24.0009 2.44555 24.1661 2.43363 24.3313 2.42375C24.3759 2.42127 24.4205 2.41837 24.4649 2.41612C24.6449 2.40677 24.8248 2.39936 25.0046 2.3956C25.0287 2.39496 25.0526 2.39517 25.0767 2.39474C25.2356 2.39195 25.3945 2.39173 25.5532 2.39302C25.6033 2.39367 25.6535 2.39399 25.7035 2.39496C25.8854 2.39818 26.0672 2.40334 26.2487 2.41225C26.2536 2.41247 26.2585 2.4129 26.2634 2.41322C26.4409 2.42192 26.6179 2.43438 26.7948 2.44845C26.8448 2.45253 26.8946 2.45683 26.9444 2.46124C27.0966 2.47466 27.2484 2.49002 27.4001 2.50753C27.4321 2.51129 27.4644 2.5143 27.4964 2.51817C27.6751 2.53965 27.8535 2.56436 28.0314 2.59122C28.0768 2.5982 28.122 2.60572 28.1672 2.61302C28.3104 2.6359 28.4533 2.66039 28.5959 2.68682C28.6403 2.69498 28.6847 2.70283 28.7289 2.71131C28.9054 2.74537 29.0815 2.78189 29.2569 2.8212C29.2905 2.82872 29.3239 2.8371 29.3575 2.84484C29.5043 2.87868 29.6507 2.91455 29.7967 2.95215C29.8451 2.96461 29.8934 2.97707 29.9417 2.98996C30.117 3.03669 30.2918 3.08525 30.4655 3.13735C30.4689 3.13842 30.4725 3.1396 30.4759 3.14057C30.6467 3.19202 30.8166 3.24681 30.986 3.30342C31.0335 3.31932 31.0809 3.33575 31.1284 3.35187C31.2726 3.4015 31.4163 3.45284 31.5593 3.50623C31.5898 3.51773 31.6205 3.52847 31.651 3.53996C31.8197 3.60388 31.9873 3.67102 32.1542 3.7402C32.1965 3.7576 32.2386 3.77607 32.2808 3.79391C32.415 3.85095 32.5485 3.90938 32.6814 3.96975C32.7226 3.98845 32.764 4.00682 32.8051 4.02583C32.9694 4.10199 33.1328 4.1803 33.295 4.26162C33.3251 4.27666 33.355 4.29256 33.385 4.30792C33.5213 4.37731 33.6567 4.44842 33.7913 4.52136C33.8353 4.5451 33.8794 4.56895 33.9232 4.59334C34.0839 4.68207 34.2437 4.77252 34.4019 4.86651C34.4031 4.86737 34.4046 4.86823 34.4059 4.86898C34.5629 4.96233 34.7181 5.05922 34.8726 5.15762C34.9148 5.18469 34.9569 5.21187 34.9989 5.23926C35.1291 5.3238 35.2583 5.41006 35.3865 5.49836C35.4136 5.51705 35.4408 5.5351 35.4679 5.55379C35.6186 5.65885 35.7679 5.7667 35.9159 5.8767C35.9526 5.90409 35.9888 5.93192 36.0252 5.95942C36.1444 6.04965 36.2626 6.14139 36.3799 6.23484C36.4157 6.26342 36.4517 6.29167 36.4872 6.32046C36.6313 6.43712 36.774 6.55603 36.9149 6.67764C36.9401 6.69955 36.9648 6.722 36.9901 6.74402C37.1087 6.84758 37.2261 6.95317 37.3424 7.06038C37.3801 7.09508 37.4177 7.12988 37.4552 7.1649C37.5929 7.29402 37.7295 7.42486 37.8636 7.55892C38.009 7.70426 38.1505 7.85272 38.2904 8.00247C38.3293 8.04414 38.3677 8.08604 38.4061 8.12815C38.5201 8.25254 38.6322 8.37833 38.7424 8.50573C38.7686 8.53603 38.7955 8.56578 38.8215 8.59629C38.9524 8.74969 39.0804 8.90534 39.2056 9.06282C39.2378 9.10321 39.269 9.14414 39.3008 9.18474C39.4 9.31161 39.4974 9.43966 39.5929 9.56899C39.6245 9.61153 39.6563 9.65396 39.6873 9.69693C39.8056 9.86 39.9213 10.0247 40.0336 10.1915C40.0527 10.2199 40.0708 10.2486 40.0897 10.277C40.1532 10.3724 40.2141 10.4694 40.2757 10.566C39.3188 10.6714 38.317 10.6634 37.3147 10.5397C35.8324 10.3563 34.405 9.92445 33.1867 9.29099C31.5 8.41389 29.5967 7.9654 27.6433 7.9654C26.6855 7.9654 25.7154 8.07325 24.753 8.29132C22.9263 8.70522 21.3905 8.40358 20.4288 7.44183C19.5232 6.53627 19.2033 5.08372 19.5212 3.3972C19.5451 3.38882 19.5688 3.38044 19.5923 3.37217ZM8.29608 4.6217L10.4131 6.73876C5.10953 12.7174 3.84324 21.3699 7.31113 28.6468C7.31124 28.6473 7.31135 28.6477 7.31156 28.648C7.37225 28.7754 7.43445 28.9023 7.49783 29.0285C7.51341 29.0593 7.52973 29.0899 7.54542 29.1207C7.59333 29.2148 7.64145 29.3088 7.69076 29.4021C7.71794 29.4536 7.74619 29.5043 7.77369 29.5552C7.81279 29.6274 7.85157 29.7 7.89142 29.7719C7.92429 29.8309 7.95835 29.8893 7.99197 29.9482C8.02785 30.0109 8.06308 30.074 8.0996 30.1363C8.13634 30.1991 8.17426 30.2612 8.21165 30.3235C8.24634 30.3814 8.2805 30.4395 8.31574 30.4968C8.35505 30.5611 8.39555 30.6245 8.43562 30.6882C8.47021 30.7429 8.50415 30.7981 8.53917 30.8524C8.58053 30.9169 8.62307 30.9805 8.66529 31.0443C8.7003 31.0974 8.735 31.1509 8.77067 31.2038C8.81363 31.2674 8.85757 31.3305 8.90118 31.3938C8.93717 31.4459 8.97283 31.4983 9.00936 31.5502C9.05361 31.613 9.09895 31.6751 9.14396 31.7374C9.18112 31.7891 9.21808 31.8408 9.25589 31.892C9.30111 31.9533 9.3472 32.014 9.39307 32.0746C9.43195 32.1262 9.47052 32.1779 9.50983 32.229C9.5557 32.2886 9.60264 32.3477 9.64927 32.4069C9.68976 32.4584 9.73005 32.5098 9.77119 32.5611C9.8177 32.6188 9.86518 32.6761 9.91224 32.7335C9.95477 32.7851 9.99699 32.8369 10.0401 32.8881C10.0868 32.944 10.1344 32.9991 10.1819 33.0543C10.2265 33.1064 10.2711 33.1587 10.3164 33.2103C10.3636 33.2642 10.4115 33.3175 10.4593 33.371C10.506 33.4231 10.5524 33.4753 10.5996 33.5269C10.6474 33.5792 10.6961 33.631 10.7445 33.6831C10.7929 33.735 10.8411 33.7867 10.8901 33.8382C10.9385 33.889 10.9875 33.9392 11.0365 33.9895C11.0718 34.026 11.1067 34.0628 11.1424 34.0991C11.1559 34.1126 11.1695 34.1256 11.1828 34.1391C11.1996 34.156 11.2158 34.1731 11.2327 34.19C11.2763 34.2336 11.321 34.2759 11.365 34.3191C11.4264 34.3795 11.4877 34.44 11.5498 34.4994C11.6028 34.5503 11.6567 34.6002 11.7103 34.6505C11.781 34.717 11.8518 34.7834 11.9234 34.8486C11.9656 34.8869 12.0083 34.9248 12.0508 34.9629C12.1362 35.0394 12.2216 35.1155 12.3081 35.1905C12.3343 35.2131 12.3608 35.2353 12.3872 35.258C12.492 35.3478 12.5971 35.4367 12.7035 35.5244C12.7088 35.5288 12.7143 35.5331 12.7198 35.5377C16.2764 38.46 20.6795 40.0576 25.3256 40.0735C25.3491 40.0736 25.3723 40.0737 25.3959 40.0737C30.3308 40.0737 35 38.2866 38.6766 35.016L40.7985 37.1289C36.5647 40.9523 31.14 43.0446 25.3935 43.0446C19.2459 43.0446 13.4663 40.6507 9.11925 36.3036C0.429713 27.6129 0.155251 13.6455 8.29608 4.6217Z" fill="black"/>
<path d="M20.759 53.3464C20.7291 53.2746 20.6921 53.2053 20.649 53.1408C20.6059 53.075 20.5558 53.014 20.5008 52.959C20.4458 52.904 20.3847 52.8538 20.319 52.8096C20.2544 52.7665 20.185 52.7306 20.1122 52.7007C20.0405 52.6709 19.9652 52.6469 19.8887 52.6327C19.7344 52.6016 19.5754 52.6016 19.4212 52.6327C19.3459 52.6469 19.2706 52.6709 19.1976 52.7007C19.1259 52.7306 19.0566 52.7678 18.992 52.8096C18.9263 52.8538 18.8653 52.904 18.8103 52.959C18.7553 53.014 18.7051 53.075 18.662 53.1408C18.6189 53.2053 18.5819 53.2746 18.552 53.3464C18.5222 53.4193 18.4982 53.4947 18.4839 53.57C18.4683 53.6476 18.46 53.7266 18.46 53.8043C18.46 53.8818 18.4683 53.9609 18.4839 54.0374C18.4983 54.1139 18.5222 54.1892 18.552 54.2608C18.5819 54.3338 18.6189 54.403 18.662 54.4676C18.7051 54.5333 18.7553 54.5944 18.8103 54.6494C18.8653 54.7044 18.9263 54.7547 18.992 54.7976C19.0566 54.8407 19.126 54.8777 19.1976 54.9076C19.2706 54.9375 19.3459 54.9602 19.4212 54.9757C19.4988 54.9913 19.5778 54.9997 19.6555 54.9997C19.7331 54.9997 19.8121 54.9913 19.8886 54.9757C19.965 54.9601 20.0403 54.9375 20.1121 54.9076C20.185 54.8777 20.2543 54.8407 20.3189 54.7976C20.3846 54.7546 20.4456 54.7044 20.5006 54.6494C20.5556 54.5944 20.6058 54.5333 20.6489 54.4676C20.692 54.403 20.729 54.3337 20.7589 54.2608C20.7888 54.1891 20.8115 54.1139 20.827 54.0374C20.8426 53.9608 20.8509 53.8818 20.8509 53.8043C20.8509 53.7266 20.8426 53.6476 20.827 53.57C20.8116 53.4947 20.789 53.4193 20.759 53.3464Z" fill="black"/>
</svg>
