<svg width="55" height="49" viewBox="0 0 55 49" fill="none" xmlns="http://www.w3.org/2000/svg">
<path d="M33.8156 29H1C1 29 2.36732 29 3.73463 32.9C5.10195 36.8 6.46926 40.7 13.3058 40.7C16.0405 40.7 32.4483 42 37.9175 42C44.5969 42 46.7449 32.5243 51 29H33.8156Z" fill="#795548"/>
<path d="M55 37.8C50.875 37.8 49.5 35 49.5 35C49.5 35 48.125 37.8 44 37.8C39.875 37.8 38.5 35 38.5 35C38.5 35 37.125 37.8 33 37.8C28.875 37.8 27.5 35 27.5 35C27.5 35 26.125 37.8 22 37.8C17.875 37.8 16.5 35 16.5 35C16.5 35 15.125 37.8 11 37.8C6.875 37.8 5.5 35 5.5 35C5.5 35 4.125 37.8 0 37.8V49H55V37.8Z" fill="#90CAF9"/>
<path d="M55 43.6667C50.875 43.6667 49.5 41 49.5 41C49.5 41 48.125 43.6667 44 43.6667C39.875 43.6667 38.5 41 38.5 41C38.5 41 37.125 43.6667 33 43.6667C28.875 43.6667 27.5 41 27.5 41C27.5 41 26.125 43.6667 22 43.6667C17.875 43.6667 16.5 41 16.5 41C16.5 41 15.125 43.6667 11 43.6667C6.875 43.6667 5.5 41 5.5 41C5.5 41 4.125 43.6667 0 43.6667V49H55V43.6667Z" fill="#2196F3"/>
<path d="M14.8462 24.9076H1V29H19C14.8462 29 14.8462 24.9076 14.8462 24.9076ZM38.3846 23.5435C38.3846 23.5435 38.3846 29 34.2308 29H55V23.5435H38.3846ZM24.5385 2H27.3077V29H24.5385V2Z" fill="#5D4037"/>
<path d="M12 31H14.7V34H12V31ZM20.1 31H22.8V34H20.1V31ZM28.2 31H30.9V34H28.2V31ZM36.3 31H39V34H36.3V31Z" fill="#3E2723"/>
<path d="M25 0.346133V6C30.0908 3.99712 34.8592 7.41347 38 0.346133C32.5842 4.35472 29.7658 -1.4207 25 0.346133Z" fill="#FF3D00"/>
<path d="M37.1176 8C37.1176 8 41.1765 12.1538 39.8235 20.4615H52C52 20.4615 46.5882 10.7692 37.1176 8ZM34.4118 26H18.3266C23.5882 17.6923 18.3266 8 18.3266 8H34.4118C34.4118 8 41.1765 17.6923 34.4118 26ZM17.3011 21.8462C18.7352 17.4722 17.4486 12.9902 16.5881 10.7692H6C6 10.7692 8.70588 16.3077 6.15018 21.8462H17.3011Z" fill="#90CAF9"/>
</svg>
