<svg width="56" height="53" viewBox="0 0 56 53" fill="none" xmlns="http://www.w3.org/2000/svg">
<path d="M54.0781 0.182129C54.1102 0.194943 54.1419 0.208148 54.1734 0.222269C54.1421 0.208148 54.1102 0.194943 54.0781 0.182129Z" fill="#DADCEC"/>
<path d="M36.2604 52.7844C35.9854 52.7844 35.7296 52.6097 35.6393 52.3344L31.7534 40.4857C31.641 40.1426 31.8278 39.7732 32.1708 39.6606C32.5139 39.5482 32.8832 39.7349 32.9958 40.078L36.8817 51.9267C36.9942 52.2698 36.8073 52.6391 36.4644 52.7517C36.3966 52.774 36.328 52.7844 36.2604 52.7844Z" fill="#7B80A3"/>
<path d="M18.1306 52.7844C18.063 52.7844 17.9945 52.774 17.9268 52.7518C17.5837 52.6393 17.3967 52.2699 17.5093 51.9268L21.3939 40.0782C21.5065 39.7351 21.8761 39.5481 22.2188 39.6607C22.5619 39.7731 22.7489 40.1425 22.6363 40.4856L18.7517 52.3343C18.6614 52.6096 18.4055 52.7844 18.1306 52.7844Z" fill="#7B80A3"/>
<path d="M42.6521 52.7843H11.8471C11.486 52.7843 11.1934 52.4917 11.1934 52.1306C11.1934 51.7694 11.486 51.4768 11.8471 51.4768H42.6521C43.0132 51.4768 43.3059 51.7694 43.3059 52.1306C43.3059 52.4917 43.0131 52.7843 42.6521 52.7843Z" fill="#7B80A3"/>
<path d="M0 31.9897V2.55619C0 1.14407 1.14015 0 2.54703 0H53.1373C54.5442 0 55.6843 1.14407 55.6843 2.55619V37.727C55.6843 39.1378 54.544 40.2818 53.1373 40.2818H32.374H22.0146H2.54703C1.14002 40.2818 0 39.1378 0 37.727V31.9897Z" fill="#DADCEC"/>
<path d="M1.56901 39.6181V33.8809V4.4475C1.56901 3.03539 2.70917 1.89132 4.11605 1.89132H54.7063C55.0353 1.89132 55.3484 1.95604 55.637 2.06979C55.4105 0.890677 54.3783 0 53.1373 0H2.54703C1.14002 0 0 1.14407 0 2.55619V31.9896V37.727C0 38.808 0.670492 39.7302 1.61622 40.1034C1.58601 39.9462 1.56901 39.7842 1.56901 39.6181Z" fill="#BFC3DD"/>
<path d="M31.6782 11.6079C33.7362 11.6079 35.4006 13.2737 35.4006 15.3265C35.4006 19.0437 31.6782 21.1619 27.9596 24.8805C24.2412 21.1619 20.5225 19.0437 20.5225 15.3265C20.5225 13.2737 22.1882 11.6079 24.241 11.6079C26.1003 11.6079 27.0299 12.5376 27.9595 14.3968C28.8892 12.5377 29.8189 11.6079 31.6782 11.6079Z" fill="#EF3E5C"/>
<path d="M22.6682 15.6711C22.6682 13.7674 24.1013 12.1976 25.9465 11.9795C25.471 11.7328 24.9182 11.6079 24.241 11.6079C22.1882 11.6079 20.5225 13.2737 20.5225 15.3265C20.5225 19.0437 24.241 21.1619 27.9596 24.8805C28.2565 24.5837 28.5531 24.298 28.848 24.0199C25.5927 21.0074 22.6682 18.9676 22.6682 15.6711Z" fill="#E42A53"/>
<path d="M27.1952 34.3589C27.9104 34.3589 28.4896 34.9381 28.4896 35.6532C28.4896 36.3685 27.9102 36.9489 27.1952 36.9489C26.4801 36.9489 25.8994 36.3685 25.8994 35.6532C25.8994 34.938 26.48 34.3589 27.1952 34.3589Z" fill="#7B80A3"/>
<path d="M50.9446 32.5126C50.5834 32.5126 50.2908 32.22 50.2908 31.8588V5.26259H5.39345V31.8587C5.39345 32.2198 5.10083 32.5125 4.73969 32.5125C4.37869 32.5125 4.08594 32.2198 4.08594 31.8587V4.60883C4.08594 4.24783 4.37869 3.95508 4.73969 3.95508H50.9446C51.3057 3.95508 51.5983 4.24783 51.5983 4.60883V31.8587C51.5983 32.2198 51.3057 32.5126 50.9446 32.5126Z" fill="#7B80A3"/>
<path d="M22.5099 26.7189H9.47797C9.11684 26.7189 8.82422 26.4263 8.82422 26.0651C8.82422 25.704 9.11684 25.4114 9.47797 25.4114H22.5099C22.8711 25.4114 23.1637 25.7041 23.1637 26.0651C23.1637 26.4261 22.871 26.7189 22.5099 26.7189Z" fill="#7B80A3"/>
<path d="M18.9561 23.1652H9.47797C9.11684 23.1652 8.82422 22.8724 8.82422 22.5114C8.82422 22.1504 9.11684 21.8577 9.47797 21.8577H18.9561C19.3171 21.8577 19.6099 22.1504 19.6099 22.5114C19.6099 22.8724 19.3171 23.1652 18.9561 23.1652Z" fill="#7B80A3"/>
<path d="M15.4023 19.61H9.47797C9.11684 19.61 8.82422 19.3173 8.82422 18.9562C8.82422 18.5952 9.11684 18.3025 9.47797 18.3025H15.4023C15.7634 18.3025 16.0561 18.5952 16.0561 18.9562C16.0561 19.3173 15.7634 19.61 15.4023 19.61Z" fill="#7B80A3"/>
<path d="M46.2062 26.7189H33.1743C32.8131 26.7189 32.5205 26.4263 32.5205 26.0651C32.5205 25.704 32.8131 25.4114 33.1743 25.4114H46.2062C46.5674 25.4114 46.86 25.7041 46.86 26.0651C46.86 26.4261 46.5674 26.7189 46.2062 26.7189Z" fill="#7B80A3"/>
<path d="M46.2061 23.1652H36.728C36.3668 23.1652 36.0742 22.8724 36.0742 22.5114C36.0742 22.1504 36.3668 21.8577 36.728 21.8577H46.2061C46.5673 21.8577 46.8599 22.1504 46.8599 22.5114C46.8599 22.8724 46.5673 23.1652 46.2061 23.1652Z" fill="#7B80A3"/>
<path d="M46.206 19.61H40.2817C39.9206 19.61 39.6279 19.3173 39.6279 18.9562C39.6279 18.5952 39.9206 18.3025 40.2817 18.3025H46.2062C46.5673 18.3025 46.8599 18.5952 46.8599 18.9562C46.8599 19.3173 46.5672 19.61 46.206 19.61Z" fill="#7B80A3"/>
<path d="M10.1642 31.3359H1.56901H0V31.9897V32.6434H1.56901H10.1642C10.5796 32.6434 10.9164 32.3508 10.9164 31.9897C10.9164 31.6286 10.5796 31.3359 10.1642 31.3359Z" fill="#7B80A3"/>
<path d="M15.4331 31.3359C15.0547 31.3359 14.748 31.6286 14.748 31.9897C14.748 32.3508 15.0548 32.6434 15.4331 32.6434H55.6836V31.3359H15.4331Z" fill="#7B80A3"/>
</svg>
