<svg width="55" height="55" viewBox="0 0 55 55" fill="none" xmlns="http://www.w3.org/2000/svg">
<path d="M28 1V54C42.385 53.8498 54 42.0419 54 27.5C54 12.9581 42.385 1.15025 28 1Z" fill="#4CF5CB"/>
<path d="M28.1472 1.00235C40.2425 1.1852 50 12.9792 50 27.5C50 42.0208 40.2425 53.8148 28.1472 53.9977C28.0528 53.9988 27.9571 54 27.8615 54C25.219 54 22.6651 53.6225 20.2529 52.9214C17.8407 52.219 15.5702 51.1928 13.4921 49.8917L1 54L5.16443 41.6761C2.52782 37.577 1 32.715 1 27.5C1 12.8651 13.0268 1 27.8615 1C27.9571 1 28.0527 1.00118 28.1472 1.00235Z" fill="#D1FDF2"/>
<path d="M45.9166 25.7065L41.2856 14.9412C38.6394 11.9306 35.0566 9.79189 31.0026 9C31.0026 9 30.9968 45.9414 31.0026 46C39.5453 44.3315 46 36.6833 46 27.5007C46 26.8954 45.9718 26.2961 45.9166 25.7065Z" fill="#68AEF4"/>
<path d="M38.2405 14.94C36.2697 12.1291 33.6471 10.0789 30.6747 9.17349L23.7783 9C21.2286 9.50476 18.8677 10.5585 16.8159 12.0382L9.22927 24.5091C9.07759 25.4827 9 26.4815 9 27.4994C9 28.4264 9.06484 29.339 9.19101 30.2301L13.9164 40.365C16.495 43.2142 19.9201 45.2345 23.7782 46C23.7782 45.9988 30.6746 45.8254 30.6746 45.8254C37.1704 43.8482 42 36.3927 42 27.4995L38.2405 14.94Z" fill="#7CC8EF"/>
<path d="M40.8964 15C40.8951 15.0012 38 15.0012 38 15.0012L42.206 27H44.057C45.1309 27 46 26.232 46 25.2859C45.5791 21.3514 43.7216 17.7849 40.8964 15Z" fill="#276AAD"/>
<path d="M42.4201 27.5001H39.2021V24.5746H35.6914H27.5V21.0639H31.0106C31.0106 20.095 31.7971 19.3087 32.7659 19.3087H33.9362V15.2129H38.6205C40.9831 18.4743 42.4201 22.7795 42.4201 27.5001Z" fill="#3891E9"/>
<path d="M33.9361 28.0852V39.2022H29.8403C28.5531 39.2022 27.4999 38.149 27.4999 36.8618V32.766H26.3297C25.0366 32.766 23.9893 31.7186 23.9893 30.4256C23.9893 29.1326 25.0366 28.0852 26.3297 28.0852H33.9361Z" fill="#3891E9"/>
<path d="M30.9737 45.429L27.6924 45.9298C28.8204 45.918 29.924 45.8057 30.9947 45.5998C30.9888 45.5413 30.983 45.4851 30.9737 45.429Z" fill="#F0EBEA"/>
<path d="M27.6924 9.07031L30.9737 9.57111C30.983 9.51493 30.9889 9.45875 30.9947 9.40139C29.924 9.19438 28.8204 9.08202 27.6924 9.07031Z" fill="#F0EBEA"/>
<path d="M30.9736 9.57094C30.7314 11.2712 29.2675 12.5795 27.4993 12.5795C25.6726 12.5795 24.1713 11.1834 24.0039 9.40121C25.1355 9.18239 26.3046 9.06885 27.4993 9.06885C27.5636 9.06885 27.628 9.06885 27.6923 9.07003C28.8204 9.08765 29.9193 9.26081 30.9736 9.57094Z" fill="white"/>
<path d="M27.4993 42.4199C29.2675 42.4199 30.7314 43.7282 30.9736 45.4285C29.9193 45.7386 28.8205 45.9118 27.6923 45.9293C27.628 45.9305 27.5636 45.9305 27.4993 45.9305C26.3046 45.9305 25.1355 45.8169 24.0039 45.5993C24.1712 43.816 25.6726 42.4199 27.4993 42.4199Z" fill="white"/>
<path d="M11.1174 29.2549C10.3637 29.2549 9.69528 29.6127 9.26721 30.1661C9.2657 30.168 9.2642 30.1693 9.2627 30.1712C9.81506 33.9779 11.5306 37.4066 14.0383 40.0864L16.6512 36.9129C17.4694 35.9191 18.1387 34.0529 18.1387 32.7656V29.2549H11.1174Z" fill="#3891E9"/>
<path d="M16.968 12.3735V24.5742H9.30078C10.1035 19.5329 12.9518 15.1739 16.968 12.3735Z" fill="#3891E9"/>
<path d="M27.5 47C38.2523 47 47 38.2524 47 27.5C47 16.7476 38.2524 8 27.5 8C16.7476 8 8 16.7477 8 27.5C8 38.2523 16.7476 47 27.5 47ZM10.0262 30.4897C10.2866 30.2769 10.6111 30.1591 10.9546 30.1591H17.1591V32.8183C17.1591 33.908 16.5514 35.6019 15.8589 36.4432L13.8854 38.8401C11.9258 36.4915 10.5618 33.6302 10.0262 30.4897ZM25.0583 45.0584C25.4661 44.1058 26.4058 43.4545 27.4999 43.4545C28.594 43.4545 29.5338 44.1057 29.9415 45.0584C29.143 45.169 28.3282 45.2273 27.4999 45.2273C26.6716 45.2272 25.8567 45.1688 25.0583 45.0584ZM31.7097 44.7208C31.1266 42.9349 29.4604 41.6817 27.5 41.6817C25.5397 41.6817 23.8735 42.9349 23.2903 44.7208C20.1507 43.9533 17.3367 42.3474 15.0995 40.1546L17.2276 37.5699C18.1834 36.409 18.932 34.3218 18.932 32.8181V29.2727C18.932 28.7832 18.5353 28.3863 18.0457 28.3863H10.9545C10.5553 28.3863 10.1684 28.459 9.80761 28.5951C9.78537 28.2327 9.77279 27.8679 9.77279 27.5C9.77279 26.8004 9.81488 26.1105 9.89407 25.4318H15.9774V25.7272C15.9774 26.2167 16.3741 26.6136 16.8637 26.6136C17.3533 26.6136 17.7501 26.2167 17.7501 25.7272V12.7026C19.4214 11.5978 21.2897 10.7683 23.2903 10.2792C23.8736 12.0653 25.5399 13.3183 27.5 13.3183C29.4604 13.3183 31.1266 12.0652 31.7097 10.2792C34.535 10.9699 37.0965 12.3394 39.2116 14.2046H32.2272C31.7376 14.2046 31.3409 14.6014 31.3409 15.0909C31.3409 15.5804 31.7376 15.9773 32.2272 15.9773H33.1136V18.3409H32.8181C31.6625 18.3409 30.6768 19.0818 30.3109 20.1136H27.5C27.0104 20.1136 26.6137 20.5104 26.6137 20.9999V23.659H25.1364C24.6468 23.659 24.2501 24.0559 24.2501 24.5454C24.2501 25.0349 24.6468 25.4317 25.1364 25.4317H34.8863V27.2044H26.3181C24.5262 27.2044 23.0682 28.6622 23.0682 30.4543C23.0682 32.2464 24.5262 33.7043 26.3181 33.7043H26.6136V36.9542C26.6136 38.7463 28.0715 40.2042 29.8635 40.2042H33.9999C34.4895 40.2042 34.8862 39.8073 34.8862 39.3178V35.4769C34.8862 34.9874 34.4895 34.5906 33.9999 34.5906C33.5103 34.5906 33.1136 34.9874 33.1136 35.4769V38.4315H29.8636C29.049 38.4315 28.3863 37.7688 28.3863 36.9542V32.8178C28.3863 32.3283 27.9896 31.9315 27.5 31.9315H26.3181C25.5035 31.9315 24.8409 31.2688 24.8409 30.4542C24.8409 29.6396 25.5035 28.9769 26.3181 28.9769H33.1136V31.9315C33.1136 32.421 33.5103 32.8178 33.9999 32.8178C34.4895 32.8178 34.8862 32.421 34.8862 31.9315V28.9769H35.7726C36.2622 28.9769 36.6589 28.5801 36.6589 28.0906V25.4315H38.4316V30.4542C38.4316 30.9437 38.8283 31.3405 39.3179 31.3405C39.8075 31.3405 40.2043 30.9437 40.2043 30.4542V28.3863H44.2573C44.5936 28.3863 44.9151 28.3227 45.2117 28.2082C44.8954 36.2194 39.238 42.8803 31.7097 44.7208ZM39.3181 23.6591H28.3863V21.8864H31.0455C31.5351 21.8864 31.9318 21.4896 31.9318 21.0001C31.9318 20.5113 32.3294 20.1138 32.8181 20.1138H34C34.4896 20.1138 34.8863 19.7169 34.8863 19.2274V15.9775H40.9601C43.2642 18.6651 44.7792 22.0479 45.1421 25.7637C45.123 26.2356 44.7341 26.6139 44.2576 26.6139H40.2045V24.5457C40.2045 24.056 39.8077 23.6591 39.3181 23.6591ZM29.9416 9.94181C29.5339 10.8944 28.5942 11.5456 27.5 11.5456C26.4059 11.5456 25.4662 10.8944 25.0584 9.9417C25.8569 9.83137 26.6717 9.77279 27.5 9.77279C28.3283 9.77279 29.1431 9.83126 29.9416 9.94181ZM15.9773 14.0399V23.659H10.1931C11.0381 19.849 13.1122 16.4962 15.9773 14.0399Z" fill="black"/>
<path d="M37 35C36.4476 35 36 35.403 36 35.9V37.1C36 37.597 36.4476 38 37 38C37.5524 38 38 37.597 38 37.1V35.9C38 35.403 37.5524 35 37 35Z" fill="black"/>
<path d="M25 19C25.5524 19 26 18.597 26 18.1V16.9C26 16.403 25.5524 16 25 16C24.4476 16 24 16.403 24 16.9V18.1C24 18.597 24.4477 19 25 19Z" fill="black"/>
<path d="M46.9455 8.05458C41.7514 2.86053 34.8456 0 27.5001 0C20.8279 0 14.3926 2.42053 9.37959 6.8158C9.01521 7.13527 8.97869 7.68978 9.29827 8.05426C9.61796 8.41864 10.1723 8.45516 10.5368 8.13558C15.2295 4.02122 21.2538 1.75538 27.5001 1.75538C41.6958 1.75538 53.2448 13.3043 53.2448 27.5001C53.2448 41.6958 41.6959 53.2447 27.5001 53.2447C22.6056 53.2447 17.8436 51.8648 13.7288 49.2545C13.5062 49.1132 13.2313 49.0793 12.981 49.1629L2.26535 52.7348L5.83724 42.0193C5.9207 41.769 5.88708 41.4944 5.74571 41.2716C3.13514 37.1565 1.75531 32.3944 1.75531 27.4999C1.75531 21.2539 4.02116 15.2296 8.13553 10.5367C8.455 10.1722 8.41859 9.61768 8.05421 9.2981C7.68962 8.97852 7.13511 9.01504 6.81564 9.37942C2.42057 14.3927 3.23258e-05 20.828 3.23258e-05 27.4999C3.23258e-05 32.5875 1.39598 37.5415 4.04146 41.8557L0.0450422 53.8448C-0.0600166 54.1602 0.0219464 54.5078 0.257093 54.7429C0.424457 54.9103 0.648754 55 0.877885 55C0.970698 55 1.06437 54.9853 1.15536 54.955L13.1445 50.9587C17.4585 53.604 22.4126 54.9999 27.5001 54.9999C34.8456 54.9999 41.7514 52.1395 46.9455 46.9453C52.1396 41.7512 55 34.8454 55 27.4999C55 20.1545 52.1396 13.2486 46.9455 8.05458Z" fill="black"/>
</svg>
