<svg width="55" height="45" viewBox="0 0 55 45" fill="none" xmlns="http://www.w3.org/2000/svg">
<path d="M38.3169 3.77759H31.2439L28.999 24.6877L31.2439 44.235H38.3169V3.77759Z" fill="#FF0F4D"/>
<path d="M24.1717 3.77759L21.9268 24.6877L24.1717 44.235H31.2446V3.77759H24.1717Z" fill="#FF4F67"/>
<path d="M11.0304 4.55225H5.51541L3.27051 24.3937L5.51541 44.235H11.0304L13.2754 24.3937L11.0304 4.55225Z" fill="#003DA8"/>
<path d="M5.51461 4.55225H0V44.2353H5.51461V4.55225Z" fill="#2F91ED"/>
<path d="M24.1712 0H17.6004L15.3555 22.3422L17.6004 44.235H24.1712V18.5622L23.0487 16.8793L24.1712 15.1951V0Z" fill="#D5681E"/>
<path d="M11.0303 0V15.1951L12.1527 16.8793L11.0303 18.5622V44.235H17.6008V0H11.0303Z" fill="#FF9933"/>
<path d="M20.1475 4.34473H15.0527V7.71208H20.1475V4.34473Z" fill="#983300"/>
<path d="M20.1475 9.16675H15.0527V12.5341H20.1475V9.16675Z" fill="#983300"/>
<path d="M24.1712 15.1948H17.6004L15.3555 16.8786L17.6004 18.5622H24.1712V15.1948Z" fill="#663300"/>
<path d="M17.6011 15.1953H11.0303V18.5627H17.6011V15.1953Z" fill="#983300"/>
<path d="M7.19865 9.64624H5.51503L4.39258 24.0063L5.51503 39.1413H7.19865V9.64624Z" fill="#FFBA00"/>
<path d="M5.51468 9.646H3.83105V39.1406H5.51468V9.646Z" fill="#FDE09C"/>
<path d="M34.887 31.7522H31.2439L28.999 33.4359L31.2439 35.1196H34.887V31.7522Z" fill="#FFBA00"/>
<path d="M34.887 36.5747H31.2439L28.999 38.2584L31.2439 39.9421H34.887V36.5747Z" fill="#FFBA00"/>
<path d="M31.2438 31.7524H27.6006V35.1198H31.2438V31.7524Z" fill="#FDE09C"/>
<path d="M31.2438 36.5745H27.6006V39.9418H31.2438V36.5745Z" fill="#FDE09C"/>
<path d="M48.0334 6.89453L43.8647 7.72372L42.5303 9.64625L43.7412 26.5846L48.8588 41.4619L50.8314 42.7489L55.0003 41.9197L48.0334 6.89453Z" fill="#FF8E00"/>
<path d="M36.3926 9.2098L43.3595 44.2349L47.5284 43.4057L48.8584 41.4618L42.5298 9.64615L40.5614 8.38062L36.3926 9.2098Z" fill="#FFBA00"/>
<path d="M40.5608 8.37928L47.5283 43.406L50.831 42.749L43.8635 7.72231L40.5608 8.37928Z" fill="#FDE09C"/>
</svg>
