<svg width="55" height="55" viewBox="0 0 55 55" fill="none" xmlns="http://www.w3.org/2000/svg">
<g clip-path="url(#clip0_22_1731)">
<path d="M27.5 55C42.6878 55 55 42.6878 55 27.5C55 12.3122 42.6878 0 27.5 0C12.3122 0 0 12.3122 0 27.5C0 42.6878 12.3122 55 27.5 55Z" fill="#FFAD9E"/>
<path d="M55 27.5C55 26.9428 54.9815 26.39 54.9486 25.841L39.7222 10.6145L29.4754 35.8334L31.1276 37.4857L15.2778 43.2745L26.9968 54.9936C27.1642 54.9966 27.3319 54.9999 27.5 54.9999C42.6877 55 55 42.6878 55 27.5Z" fill="#FF6262"/>
<path d="M16.2655 43.7501H38.7346C39.4335 43.7501 40 43.1836 40 42.4847V11.4045C40 10.7056 39.4335 10.1392 38.7346 10.1392H16.2655C15.5667 10.1392 15 10.7056 15 11.4045V42.4846C15.0001 43.1835 15.5667 43.7501 16.2655 43.7501Z" fill="#273B7A"/>
<path d="M38.7343 10.1389H27.438V43.75H38.7343C39.4331 43.75 39.9996 43.1836 39.9996 42.4847V11.4045C39.9999 10.7054 39.4331 10.1389 38.7343 10.1389Z" fill="#121149"/>
<path d="M17.4151 21.3888H37.5848C37.9215 21.3888 38.1944 21.1159 38.1944 20.7794V12.8318C38.1944 12.4952 37.9215 12.2224 37.5848 12.2224H17.4151C17.0784 12.2224 16.8057 12.4954 16.8057 12.8318V20.7794C16.8056 21.1159 17.0785 21.3888 17.4151 21.3888Z" fill="#71E2EF"/>
<path d="M37.5846 12.2222H27.438V21.3888H37.5846C37.9213 21.3888 38.1942 21.1158 38.1942 20.7792V12.8318C38.1944 12.4951 37.9214 12.2222 37.5846 12.2222Z" fill="#38C6D9"/>
<path d="M20.3705 23.3333H16.8057V26.3888H20.3705V23.3333Z" fill="white"/>
<path d="M32.2538 23.3333H28.689V26.3888H32.2538V23.3333Z" fill="white"/>
<path d="M38.1947 23.3333H34.6299V26.3888H38.1947V23.3333Z" fill="white"/>
<path d="M26.3114 23.3333H22.7466V26.3888H26.3114V23.3333Z" fill="white"/>
<path d="M20.3705 28.426H16.8057V31.4815H20.3705V28.426Z" fill="white"/>
<path d="M32.2538 28.426H28.689V31.4815H32.2538V28.426Z" fill="white"/>
<path d="M26.3114 28.426H22.7466V31.4815H26.3114V28.426Z" fill="white"/>
<path d="M20.3705 33.5186H16.8057V36.5741H20.3705V33.5186Z" fill="white"/>
<path d="M32.2538 33.5186H28.689V36.5741H32.2538V33.5186Z" fill="white"/>
<path d="M26.3114 33.5186H22.7466V36.5741H26.3114V33.5186Z" fill="white"/>
<path d="M20.3705 38.6111H16.8057V41.6666H20.3705V38.6111Z" fill="white"/>
<path d="M32.2538 38.6111H28.689V41.6666H32.2538V38.6111Z" fill="white"/>
<path d="M38.1947 28.426H34.6299V41.6667H38.1947V28.426Z" fill="white"/>
<path d="M26.3114 38.6111H22.7466V41.6666H26.3114V38.6111Z" fill="white"/>
</g>
<defs>
<clipPath id="clip0_22_1731">
<rect width="55" height="55" fill="white"/>
</clipPath>
</defs>
</svg>
