<svg width="45" height="49" viewBox="0 0 45 49" fill="none" xmlns="http://www.w3.org/2000/svg">
<path d="M31.8071 44.5085L29.662 43.6676L37.6482 23.2541C38.0158 22.3125 37.5173 21.25 36.5555 20.9378L22.5873 16.3758C21.691 16.0837 20.7242 16.547 20.3919 17.4282L13.433 35.8376L10.1348 34.5938L19.9034 8.75217C20.2307 7.88104 21.1824 7.41779 22.0737 7.6897L42.9706 14.1451C43.9475 14.4472 44.4661 15.5147 44.0935 16.4714L33.3983 43.8137C33.1465 44.4431 32.4366 44.7553 31.8071 44.5085Z" fill="#360682"/>
<path d="M-0.000976562 33.3502C-0.000976562 35.1932 0.731133 36.9606 2.0343 38.2638C3.33746 39.567 5.10493 40.2991 6.94788 40.2991C8.79083 40.2991 10.5583 39.567 11.8615 38.2638C13.1646 36.9606 13.8967 35.1932 13.8967 33.3502C13.8967 31.5073 13.1646 29.7398 11.8615 28.4366C10.5583 27.1335 8.79083 26.4014 6.94788 26.4014C5.10493 26.4014 3.33746 27.1335 2.0343 28.4366C0.731133 29.7398 -0.000976562 31.5073 -0.000976562 33.3502Z" fill="#360682"/>
<path d="M20.0498 41.1249C20.0498 42.9678 20.7819 44.7353 22.0851 46.0385C23.3882 47.3416 25.1557 48.0737 26.9987 48.0737C28.8416 48.0737 30.6091 47.3416 31.9122 46.0385C33.2154 44.7353 33.9475 42.9678 33.9475 41.1249C33.9475 39.2819 33.2154 37.5145 31.9122 36.2113C30.6091 34.9081 28.8416 34.176 26.9987 34.176C25.1557 34.176 23.3882 34.9081 22.0851 36.2113C20.7819 37.5145 20.0498 39.2819 20.0498 41.1249Z" fill="#360682"/>
<path d="M7.24139 18.3761L1.65008 4.37365C1.28485 3.46593 1.77899 2.44005 2.71356 2.15539L8.50897 0.388295C9.28241 0.151967 10.1042 0.522573 10.4426 1.25841L11.1515 2.80529C11.5544 3.68078 11.1032 4.70665 10.1901 5.00744L6.23163 6.31261C5.86102 6.43615 5.66766 6.84435 5.81268 7.20421L9.59393 16.8507C9.70673 17.1407 9.56708 17.463 9.27704 17.5812L7.24139 18.3761Z" fill="#FFD35A"/>
<path d="M0.806641 18.3762C0.806641 18.9744 0.924452 19.5666 1.15335 20.1192C1.38224 20.6718 1.71774 21.1739 2.14068 21.5969C2.56362 22.0198 3.06572 22.3553 3.61832 22.5842C4.17092 22.8131 4.7632 22.9309 5.36133 22.9309C5.95946 22.9309 6.55173 22.8131 7.10433 22.5842C7.65693 22.3553 8.15904 22.0198 8.58198 21.5969C9.00492 21.1739 9.34042 20.6718 9.56931 20.1192C9.7982 19.5666 9.91602 18.9744 9.91602 18.3762C9.91602 17.1682 9.43615 16.0097 8.58198 15.1556C7.72781 14.3014 6.56931 13.8215 5.36133 13.8215C4.15335 13.8215 2.99485 14.3014 2.14068 15.1556C1.28651 16.0097 0.806641 17.1682 0.806641 18.3762Z" fill="#FFD35A"/>
</svg>
