<svg width="38" height="55" viewBox="0 0 38 55" fill="none" xmlns="http://www.w3.org/2000/svg">
<path d="M37.05 55H0.950043C0.42541 55 0 54.5758 0 54.0526V1.94741C0 1.42423 0.42541 1 0.950043 1H37.05C37.5746 1 38 1.42423 38 1.94741V54.0526C38 54.5758 37.5746 55 37.05 55Z" fill="#707487"/>
<path d="M4.5 53C3.67167 53 3 52.5775 3 52.0566V3.94344C3 3.42245 3.67167 3 4.5 3C5.32833 3 6 3.42245 6 3.94344V52.0566C6 52.5775 5.32833 53 4.5 53Z" fill="#5B5D6E"/>
<path d="M12.352 10.9194L10.4999 9.51021L8.64777 10.9194C8.3709 11.13 8 10.9035 8 10.5238V0.951064C8 0.425867 8.37316 0 8.83336 0H12.1666C12.6268 0 13 0.425867 13 0.951064V10.5238C12.9998 10.9035 12.6289 11.13 12.352 10.9194Z" fill="#FFD782"/>
<path d="M22.6831 37.0812H20.7969V17.2761C20.7969 16.7553 21.2192 16.333 21.74 16.333C22.2608 16.333 22.6832 16.7553 22.6832 17.2761V37.0812H22.6831Z" fill="#FFC36E"/>
<path d="M26.4562 39.9105H17.0252C16.5044 39.9105 16.082 39.4881 16.082 38.9673C16.082 38.4465 16.5044 38.0242 17.0252 38.0242H26.4562C26.977 38.0242 27.3993 38.4465 27.3993 38.9673C27.3992 39.4881 26.977 39.9105 26.4562 39.9105Z" fill="#FFC36E"/>
<path d="M20.625 36L18 38H25L22.375 36H20.625Z" fill="#FFD782"/>
<path d="M30.5201 20.8552C31.0219 20.8346 31.4227 20.4284 31.4227 19.9286C31.4227 19.4158 31.0008 19 30.4804 19H13.5195C12.9991 19 12.5772 19.4158 12.5772 19.9286C12.5772 20.4282 12.9779 20.8345 13.4798 20.8552L10 32H11.9716L14.4649 24.0147L16.9581 32H18.9297L15.4504 20.8572H28.5496L25.0702 31.9999H27.0418L29.5351 24.0146L32.0284 31.9999H34L30.5201 20.8552Z" fill="#F5B464"/>
<path d="M10.0878 30.4795C9.64906 30.4795 9.34725 30.942 9.53956 31.3363C10.3812 33.0619 12.1496 34.2518 14.1991 34.2518C16.2485 34.2518 18.0168 33.0619 18.8585 31.3363C19.0508 30.942 18.749 30.4795 18.3102 30.4795H10.0878Z" fill="#FFD782"/>
<path d="M25.1708 30.4795C24.7321 30.4795 24.4303 30.942 24.6226 31.3363C25.4642 33.062 27.2325 34.2518 29.282 34.2518C31.3313 34.2518 33.0997 33.0619 33.9414 31.3363C34.1337 30.942 33.8319 30.4795 33.3931 30.4795H25.1708Z" fill="#FFD782"/>
</svg>
