<svg width="55" height="55" viewBox="0 0 55 55" fill="none" xmlns="http://www.w3.org/2000/svg">
<path d="M39.5759 27.4347C40.4237 26.4456 41.1628 25.4456 41.7824 24.4673C43.9672 21.0216 44.4237 18.0869 43.0867 16.2173C41.5867 14.1195 38.0976 13.8369 33.7824 15.0977C32.2932 10.8586 30.0215 8.19556 27.4454 8.19556C24.8693 8.19556 22.5976 10.8586 21.1085 15.0977C20.7498 14.989 20.3911 14.8912 20.0432 14.8043C16.0759 13.8369 13.1519 14.3369 11.8041 16.2173C10.0215 18.6956 11.5324 22.989 15.3041 27.4347C11.5324 31.8803 10.0215 36.1738 11.8041 38.6521C12.7063 39.9021 14.3041 40.5434 16.4454 40.5434C17.5106 40.5434 18.7172 40.3803 20.0324 40.0651C20.3802 39.9782 20.7389 39.8803 21.0976 39.7716C22.5867 44.0108 24.8585 46.6738 27.4346 46.6738C30.0106 46.6738 32.2824 44.0108 33.7715 39.7716C35.4672 40.2716 37.0432 40.5325 38.4128 40.5325C40.5215 40.5325 42.1628 39.9238 43.0759 38.6521C44.4237 36.7825 43.9563 33.8477 41.7715 30.4021C41.1628 29.4129 40.4237 28.4238 39.5759 27.4347ZM38.4128 15.7173C40.0976 15.7173 41.3367 16.1629 41.9563 17.0216C42.9346 18.3803 42.4454 20.826 40.6085 23.7173C40.0541 24.5977 39.3911 25.489 38.6411 26.3803C37.6846 25.3477 36.6085 24.3151 35.4563 23.3151C35.228 20.7825 34.7932 18.4456 34.1954 16.4021C35.7932 15.9456 37.2172 15.7173 38.4128 15.7173ZM31.4128 32.9564C30.0976 33.9021 28.7715 34.7499 27.4346 35.4999C26.1411 34.7716 24.815 33.9238 23.478 32.9564C22.5106 32.2608 21.6085 31.5651 20.7715 30.8586C20.6846 29.7608 20.6411 28.6195 20.6411 27.4347C20.6411 26.2499 20.6846 25.1086 20.7715 24.0108C21.6193 23.3043 22.5106 22.5977 23.478 21.9129C24.8259 20.9456 26.1519 20.0977 27.4454 19.3695C28.7715 20.1195 30.1085 20.9782 31.4128 21.9129C32.3585 22.5869 33.2606 23.2934 34.1193 24.0216C34.2063 25.1195 34.2498 26.2608 34.2498 27.4456C34.2498 28.6303 34.2063 29.7716 34.1193 30.8695C33.2715 31.576 32.3585 32.2825 31.4128 32.9564ZM33.9346 32.8043C33.6954 34.739 33.3367 36.489 32.8911 38.0325C31.6302 37.5869 30.2824 36.9999 28.8802 36.2825C29.9998 35.6195 31.1302 34.8803 32.228 34.0869C32.815 33.6738 33.3802 33.239 33.9346 32.8043ZM26.0106 36.2825C24.6519 36.9782 23.3041 37.5651 21.9998 38.0325C21.5541 36.489 21.1954 34.739 20.9563 32.8151C21.5106 33.2499 22.0759 33.6738 22.6628 34.0977C23.7824 34.8912 24.9019 35.6195 26.0106 36.2825ZM19.3041 29.5651C18.5215 28.8477 17.815 28.1303 17.1628 27.4238C17.815 26.7173 18.5215 25.9999 19.3041 25.2825C19.2715 25.9782 19.2498 26.6956 19.2498 27.4238C19.2498 28.1521 19.2715 28.8695 19.3041 29.5651ZM20.9563 22.0543C21.1954 20.1195 21.5541 18.3695 21.9998 16.8369C23.2932 17.2934 24.6411 17.8803 26.0106 18.5869C24.9019 19.2499 23.7824 19.9782 22.6628 20.7716C22.0759 21.1956 21.5106 21.6195 20.9563 22.0543ZM28.8693 18.576C30.2715 17.8477 31.6193 17.2716 32.8802 16.826C33.3259 18.3695 33.6846 20.1195 33.9237 22.0543C33.3693 21.6195 32.8041 21.1847 32.2172 20.7716C31.1193 19.9782 29.9998 19.2499 28.8693 18.576ZM35.5976 25.3043C36.3585 26.0108 37.065 26.7173 37.728 27.4347C37.0759 28.1521 36.3585 28.8586 35.5976 29.5651C35.6302 28.8695 35.6411 28.1521 35.6411 27.4347C35.6411 26.7064 35.6302 25.9999 35.5976 25.3043ZM27.4454 9.57599C29.2606 9.57599 31.1411 11.7608 32.4672 15.5108C30.8693 16.076 29.1737 16.826 27.4454 17.7608C25.7389 16.8369 24.0541 16.076 22.4237 15.4999C23.7498 11.7608 25.6411 9.57599 27.4454 9.57599ZM12.9454 17.0216C13.565 16.1521 14.7932 15.7064 16.4563 15.7064C17.4128 15.7064 18.5106 15.8477 19.7172 16.1412C20.0324 16.2173 20.3585 16.3043 20.6846 16.4021C20.0867 18.4456 19.6519 20.7716 19.4237 23.3043C18.2498 24.3151 17.1846 25.3477 16.228 26.3695C12.8693 22.3586 11.6954 18.7608 12.9454 17.0216ZM19.7172 38.7064C16.3911 39.5108 13.9128 39.1956 12.9454 37.8369C11.6954 36.0977 12.8693 32.489 16.2498 28.4673C17.2063 29.4999 18.2715 30.5216 19.4454 31.5325C19.6737 34.0651 20.1085 36.4021 20.7063 38.4347C20.3585 38.5434 20.0432 38.6303 19.7172 38.7064ZM27.4454 45.2825C25.6302 45.2825 23.7498 43.0977 22.4237 39.3477C24.0432 38.7716 25.7389 38.0108 27.4454 37.0869C29.1737 38.0216 30.8693 38.7825 32.4672 39.3369C31.1411 43.0977 29.2606 45.2825 27.4454 45.2825ZM41.9563 37.8369C40.9019 39.3151 38.0215 39.5651 34.2063 38.4564C34.8041 36.4129 35.2389 34.076 35.4672 31.5434C36.6193 30.5434 37.6846 29.5216 38.6519 28.4782C39.4019 29.3695 40.065 30.2608 40.6193 31.1412C42.4454 34.0325 42.9346 36.4782 41.9563 37.8369Z" fill="#324A5E"/>
<path d="M42.4454 14.5C41.1627 14.5 40.1084 15.5435 40.1084 16.837C40.1084 18.1196 41.1519 19.1739 42.4454 19.1739C43.7388 19.1739 44.7823 18.1304 44.7823 16.837C44.7823 15.5435 43.7388 14.5 42.4454 14.5Z" fill="#4CDBC4"/>
<path d="M27.4454 43.3152C26.1627 43.3152 25.1084 44.3587 25.1084 45.6521C25.1084 46.9348 26.1519 47.9891 27.4454 47.9891C28.7388 47.9891 29.7823 46.9348 29.7823 45.6521C29.7823 44.3587 28.7388 43.3152 27.4454 43.3152Z" fill="#E6E9EE"/>
<path d="M12.3155 14.489C11.0329 14.489 9.97852 15.5325 9.97852 16.826C9.97852 18.1086 11.022 19.1629 12.3155 19.1629C13.6089 19.1629 14.6524 18.1194 14.6524 16.826C14.6524 15.5434 13.6089 14.489 12.3155 14.489Z" fill="#84DBFF"/>
<path d="M27.4566 31.9783C29.9659 31.9783 32 29.9441 32 27.4348C32 24.9255 29.9659 22.8914 27.4566 22.8914C24.9473 22.8914 22.9131 24.9255 22.9131 27.4348C22.9131 29.9441 24.9473 31.9783 27.4566 31.9783Z" fill="#FFD05B"/>
</svg>
