<svg width="36" height="40" viewBox="0 0 36 40" fill="none" xmlns="http://www.w3.org/2000/svg">
<path d="M30.5759 19.4347C31.4237 18.4456 32.1628 17.4456 32.7824 16.4673C34.9672 13.0216 35.4237 10.0869 34.0867 8.21729C32.5867 6.11947 29.0976 5.83686 24.7824 7.09773C23.2932 2.8586 21.0215 0.195557 18.4454 0.195557C15.8693 0.195557 13.5976 2.8586 12.1085 7.09773C11.7498 6.98903 11.3911 6.89121 11.0432 6.80425C7.07586 5.83686 4.15194 6.33686 2.80412 8.21729C1.02151 10.6956 2.53238 14.989 6.30412 19.4347C2.53238 23.8803 1.02151 28.1738 2.80412 30.6521C3.70629 31.9021 5.30412 32.5434 7.44542 32.5434C8.51064 32.5434 9.71716 32.3803 11.0324 32.0651C11.3802 31.9782 11.7389 31.8803 12.0976 31.7716C13.5867 36.0108 15.8585 38.6738 18.4346 38.6738C21.0106 38.6738 23.2824 36.0108 24.7715 31.7716C26.4672 32.2716 28.0432 32.5325 29.4128 32.5325C31.5215 32.5325 33.1628 31.9238 34.0759 30.6521C35.4237 28.7825 34.9563 25.8477 32.7715 22.4021C32.1628 21.4129 31.4237 20.4238 30.5759 19.4347ZM29.4128 7.7173C31.0976 7.7173 32.3367 8.16295 32.9563 9.02164C33.9346 10.3803 33.4454 12.826 31.6085 15.7173C31.0541 16.5977 30.3911 17.489 29.6411 18.3803C28.6846 17.3477 27.6085 16.3151 26.4563 15.3151C26.228 12.7825 25.7932 10.4456 25.1954 8.40208C26.7932 7.94556 28.2172 7.7173 29.4128 7.7173ZM22.4128 24.9564C21.0976 25.9021 19.7715 26.7499 18.4346 27.4999C17.1411 26.7716 15.815 25.9238 14.478 24.9564C13.5106 24.2608 12.6085 23.5651 11.7715 22.8586C11.6846 21.7608 11.6411 20.6195 11.6411 19.4347C11.6411 18.2499 11.6846 17.1086 11.7715 16.0108C12.6193 15.3043 13.5106 14.5977 14.478 13.9129C15.8259 12.9456 17.1519 12.0977 18.4454 11.3695C19.7715 12.1195 21.1085 12.9782 22.4128 13.9129C23.3585 14.5869 24.2606 15.2934 25.1193 16.0216C25.2063 17.1195 25.2498 18.2608 25.2498 19.4456C25.2498 20.6303 25.2063 21.7716 25.1193 22.8695C24.2715 23.576 23.3585 24.2825 22.4128 24.9564ZM24.9346 24.8043C24.6954 26.739 24.3367 28.489 23.8911 30.0325C22.6302 29.5869 21.2824 28.9999 19.8802 28.2825C20.9998 27.6195 22.1302 26.8803 23.228 26.0869C23.815 25.6738 24.3802 25.239 24.9346 24.8043ZM17.0106 28.2825C15.6519 28.9782 14.3041 29.5651 12.9998 30.0325C12.5541 28.489 12.1954 26.739 11.9563 24.8151C12.5106 25.2499 13.0759 25.6738 13.6628 26.0977C14.7824 26.8912 15.9019 27.6195 17.0106 28.2825ZM10.3041 21.5651C9.52151 20.8477 8.81499 20.1303 8.16281 19.4238C8.81499 18.7173 9.52151 17.9999 10.3041 17.2825C10.2715 17.9782 10.2498 18.6956 10.2498 19.4238C10.2498 20.1521 10.2715 20.8695 10.3041 21.5651ZM11.9563 14.0543C12.1954 12.1195 12.5541 10.3695 12.9998 8.83686C14.2932 9.29338 15.6411 9.88034 17.0106 10.5869C15.9019 11.2499 14.7824 11.9782 13.6628 12.7716C13.0759 13.1956 12.5106 13.6195 11.9563 14.0543ZM19.8693 10.576C21.2715 9.84773 22.6193 9.27164 23.8802 8.82599C24.3259 10.3695 24.6846 12.1195 24.9237 14.0543C24.3693 13.6195 23.8041 13.1847 23.2172 12.7716C22.1193 11.9782 20.9998 11.2499 19.8693 10.576ZM26.5976 17.3043C27.3585 18.0108 28.065 18.7173 28.728 19.4347C28.0759 20.1521 27.3585 20.8586 26.5976 21.5651C26.6302 20.8695 26.6411 20.1521 26.6411 19.4347C26.6411 18.7064 26.6302 17.9999 26.5976 17.3043ZM18.4454 1.57599C20.2606 1.57599 22.1411 3.76077 23.4672 7.51077C21.8693 8.07599 20.1737 8.82599 18.4454 9.76077C16.7389 8.83686 15.0541 8.07599 13.4237 7.4999C14.7498 3.76077 16.6411 1.57599 18.4454 1.57599ZM3.94542 9.02164C4.56499 8.15208 5.79325 7.70643 7.45629 7.70643C8.41281 7.70643 9.51064 7.84773 10.7172 8.14121C11.0324 8.2173 11.3585 8.30425 11.6846 8.40208C11.0867 10.4456 10.6519 12.7716 10.4237 15.3043C9.24977 16.3151 8.18455 17.3477 7.22803 18.3695C3.86934 14.3586 2.69542 10.7608 3.94542 9.02164ZM10.7172 30.7064C7.39108 31.5108 4.91281 31.1956 3.94542 29.8369C2.69542 28.0977 3.86934 24.489 7.24977 20.4673C8.20629 21.4999 9.27151 22.5216 10.4454 23.5325C10.6737 26.0651 11.1085 28.4021 11.7063 30.4347C11.3585 30.5434 11.0432 30.6303 10.7172 30.7064ZM18.4454 37.2825C16.6302 37.2825 14.7498 35.0977 13.4237 31.3477C15.0432 30.7716 16.7389 30.0108 18.4454 29.0869C20.1737 30.0216 21.8693 30.7825 23.4672 31.3369C22.1411 35.0977 20.2606 37.2825 18.4454 37.2825ZM32.9563 29.8369C31.9019 31.3151 29.0215 31.5651 25.2063 30.4564C25.8041 28.4129 26.2389 26.076 26.4672 23.5434C27.6193 22.5434 28.6846 21.5216 29.6519 20.4782C30.4019 21.3695 31.065 22.2608 31.6193 23.1412C33.4454 26.0325 33.9346 28.4782 32.9563 29.8369Z" fill="#324A5E"/>
<path d="M33.4454 6.5C32.1627 6.5 31.1084 7.54348 31.1084 8.83696C31.1084 10.1196 32.1519 11.1739 33.4454 11.1739C34.7388 11.1739 35.7823 10.1304 35.7823 8.83696C35.7823 7.54348 34.7388 6.5 33.4454 6.5Z" fill="#4CDBC4"/>
<path d="M18.4454 35.3152C17.1627 35.3152 16.1084 36.3587 16.1084 37.6521C16.1084 38.9348 17.1519 39.9891 18.4454 39.9891C19.7388 39.9891 20.7823 38.9348 20.7823 37.6521C20.7823 36.3587 19.7388 35.3152 18.4454 35.3152Z" fill="#E6E9EE"/>
<path d="M3.31547 6.48901C2.03286 6.48901 0.978516 7.53249 0.978516 8.82597C0.978516 10.1086 2.02199 11.1629 3.31547 11.1629C4.60895 11.1629 5.65243 10.1194 5.65243 8.82597C5.65243 7.54336 4.60895 6.48901 3.31547 6.48901Z" fill="#84DBFF"/>
<path d="M18.4566 23.9783C20.9659 23.9783 23 21.9441 23 19.4348C23 16.9255 20.9659 14.8914 18.4566 14.8914C15.9473 14.8914 13.9131 16.9255 13.9131 19.4348C13.9131 21.9441 15.9473 23.9783 18.4566 23.9783Z" fill="#FFD05B"/>
</svg>
