<svg width="64" height="56" viewBox="0 0 64 56" fill="none" xmlns="http://www.w3.org/2000/svg">
<path d="M50.1449 37.9534C42.9537 37.9534 37.0276 42.6809 36.3618 48.6735C36.2952 49.2728 36.7613 49.8055 37.4272 49.8055H62.9291C63.5284 49.8055 64.0611 49.2728 63.9945 48.6735C63.2621 42.6809 57.336 37.9534 50.1449 37.9534Z" fill="#53BF9D"/>
<path d="M13.7894 37.9534C6.59823 37.9534 0.672174 42.6809 0.00632608 48.6735C-0.0602588 49.2728 0.405835 49.8055 1.07168 49.8055H26.5737C27.1729 49.8055 27.7056 49.2728 27.639 48.6735C26.9066 42.6809 20.9806 37.9534 13.7894 37.9534Z" fill="#FFC54D"/>
<path d="M45.8175 8.72261C45.8175 10.3207 45.2848 12.1184 44.6855 13.0506C42.6214 16.1135 35.4968 22.772 32.9 25.1691C32.3673 25.6352 31.5683 25.6352 31.0356 25.1691C28.4388 22.772 21.3142 16.1135 19.2501 13.0506C18.6508 12.1184 18.1182 10.3207 18.1182 8.72261C18.1182 6.79165 18.784 4.99386 19.8494 3.529C20.382 2.86315 20.9813 2.26388 21.6472 1.73121C23.112 0.665849 24.9098 0 26.8408 0C28.7717 0 30.5695 0.599264 31.9678 1.73121C33.4327 0.665849 35.1639 0 37.0948 0C39.0258 0 40.8236 0.665849 42.2885 1.73121C42.9543 2.26388 43.5536 2.86315 44.0862 3.529C45.1516 4.99386 45.8175 6.79165 45.8175 8.72261Z" fill="#F94C66"/>
<path d="M31.9671 43.946C24.776 43.946 18.8499 48.6736 18.1841 54.6662C18.1175 55.2655 18.5836 55.7981 19.2494 55.7981H44.7514C45.3507 55.7981 45.8834 55.2655 45.8168 54.6662C45.0843 48.607 39.1583 43.946 31.9671 43.946Z" fill="#BD4291"/>
<path d="M51.0553 36.2176C54.1408 35.7169 56.2361 32.8097 55.7354 29.7243C55.2346 26.6388 52.3274 24.5435 49.242 25.0442C46.1565 25.545 44.0612 28.4522 44.562 31.5376C45.0627 34.6231 47.9699 36.7184 51.0553 36.2176Z" fill="#FFE3B0"/>
<path d="M19.0234 32.7716C20.2196 29.8837 18.8483 26.5729 15.9604 25.3767C13.0725 24.1804 9.76162 25.5518 8.56539 28.4397C7.36915 31.3276 8.74052 34.6384 11.6284 35.8347C14.5163 37.0309 17.8272 35.6595 19.0234 32.7716Z" fill="#FFE3B0"/>
<path d="M31.9673 42.2149C35.0931 42.2149 37.627 39.681 37.627 36.5552C37.627 33.4294 35.0931 30.8955 31.9673 30.8955C28.8416 30.8955 26.3076 33.4294 26.3076 36.5552C26.3076 39.681 28.8416 42.2149 31.9673 42.2149Z" fill="#FFE3B0"/>
</svg>
