<svg width="523" height="398" viewBox="0 0 523 398" fill="none" xmlns="http://www.w3.org/2000/svg">
<path d="M454.197 362.809C475.59 362.809 492.932 345.478 492.932 324.098C492.932 302.719 475.59 285.388 454.197 285.388C432.804 285.388 415.461 302.719 415.461 324.098C415.461 345.478 432.804 362.809 454.197 362.809Z" fill="#A6D2FF"/>
<path d="M431.578 269.755C435.169 269.755 438.079 266.846 438.079 263.258C438.079 259.67 435.169 256.761 431.578 256.761C427.988 256.761 425.077 259.67 425.077 263.258C425.077 266.846 427.988 269.755 431.578 269.755Z" fill="#D3BEFF"/>
<path d="M116.952 349.07C152.333 349.07 181.015 320.71 181.015 285.726C181.015 250.742 152.333 222.382 116.952 222.382C81.5711 222.382 52.8892 250.742 52.8892 285.726C52.8892 320.71 81.5711 349.07 116.952 349.07Z" fill="#FECE26"/>
<path d="M345.913 349.206V373.907H221.985C215.146 373.907 209.593 368.29 209.593 361.32C209.593 354.349 215.146 348.732 222.053 348.732C255.778 348.868 346.522 349.206 345.913 349.206Z" fill="#E8F4FF"/>
<path d="M347.538 375.938H222.46C214.604 375.938 208.171 369.576 208.171 361.658C208.171 353.74 214.537 347.379 222.46 347.379H347.809C348.554 347.379 349.164 347.988 349.164 348.732C349.164 349.477 348.554 350.086 347.809 350.086H222.46C216.094 350.086 210.88 355.297 210.88 361.658C210.88 368.02 216.094 373.231 222.46 373.231H347.538C348.283 373.231 348.893 373.84 348.893 374.584C348.893 375.329 348.283 375.938 347.538 375.938Z" fill="#ADD3FF"/>
<path d="M496.928 349.206V373.907H373.001C366.161 373.907 360.608 368.29 360.608 361.32C360.608 354.349 366.161 348.732 373.068 348.732C406.793 348.868 497.537 349.206 496.928 349.206Z" fill="#E8F4FF"/>
<path d="M441.872 355.703L496.521 354.688V356.244L441.872 355.703Z" fill="#D1DAE1"/>
<path d="M465.167 361.658L496.657 360.778V362.809L465.167 361.658Z" fill="#D1DAE1"/>
<path d="M290.856 355.703L345.506 354.688V356.244L290.856 355.703Z" fill="#D1DAE1"/>
<path d="M314.152 361.658L345.642 360.778V362.809L314.152 361.658Z" fill="#D1DAE1"/>
<path d="M498.553 375.938H373.475C365.619 375.938 359.186 369.576 359.186 361.658C359.186 353.74 365.552 347.379 373.475 347.379H498.824C499.569 347.379 500.179 347.988 500.179 348.732C500.179 349.477 499.569 350.086 498.824 350.086H373.475C367.109 350.086 361.895 355.297 361.895 361.658C361.895 368.02 367.109 373.231 373.475 373.231H498.553C499.298 373.231 499.908 373.84 499.908 374.584C499.908 375.329 499.298 375.938 498.553 375.938Z" fill="#FFD66D"/>
<path d="M73.3408 233.075C72.9345 233.075 72.6636 232.804 72.6636 232.398V188.883H114.853V169.595H136.794C137.201 169.595 137.471 169.866 137.471 170.272C137.471 170.678 137.201 170.948 136.794 170.948H116.275V190.236H74.0857V232.398C74.018 232.736 73.6794 233.075 73.3408 233.075Z" fill="#A5D5FF"/>
<path d="M135.71 166.617V174.062L143.16 171.084L135.71 166.617Z" fill="#A5D5FF"/>
<path d="M206.478 285.456V316.992H58.8487C50.2482 316.992 43.3408 309.954 43.3408 301.224C43.3408 292.494 50.316 285.456 58.8487 285.456H206.478Z" stroke="black" stroke-width="0.9924" stroke-miterlimit="10" stroke-linecap="round"/>
<path d="M59.7291 317.195H201.941C210.609 317.195 217.652 310.157 217.652 301.495C217.652 292.832 210.609 285.794 201.941 285.794H59.7291C51.0609 285.794 44.0181 292.832 44.0181 301.495C44.0181 310.157 51.0609 317.195 59.7291 317.195Z" fill="#E8F4FF"/>
<path d="M208.577 317.94H59.2549C49.7064 317.94 41.9863 310.157 41.9863 300.683C41.9863 291.208 49.7741 283.425 59.2549 283.425H208.983V286.809H59.2549C51.6025 286.809 45.3723 293.035 45.3723 300.683C45.3723 308.33 51.6025 314.556 59.2549 314.556H208.577V317.94Z" fill="#FC3935"/>
<path d="M177.764 318.143H81.2637V340.002H177.764V318.143Z" fill="#E8F4FF"/>
<path d="M27.9684 340.002V372.283H177.426C186.162 372.283 193.272 365.177 193.272 356.447C193.272 347.785 186.23 340.679 177.561 340.611C136.252 340.476 27.8329 339.867 27.9684 340.002Z" fill="#E8F4FF"/>
<path d="M177.358 374.111H25.7333C24.9884 374.111 24.3789 373.501 24.3789 372.757C24.3789 372.013 24.9884 371.404 25.7333 371.404H177.358C185.62 371.404 192.324 364.704 192.324 356.447C192.324 348.191 185.62 341.491 177.358 341.491H25.7333C24.9884 341.491 24.3789 340.882 24.3789 340.137C24.3789 339.393 24.9884 338.784 25.7333 338.784H177.358C187.11 338.784 195.033 346.702 195.033 356.447C195.033 366.193 187.11 374.111 177.358 374.111Z" fill="#FFD66D"/>
<path d="M27.833 346.161L88.984 347.04L27.9684 349.206L27.833 346.161Z" fill="#D1DAE1"/>
<path d="M27.9683 362.876L108.961 364.027L27.9683 365.245V362.876Z" fill="#D1DAE1"/>
<path d="M202.618 345.01V302.104H413.836C426.025 302.104 435.98 311.849 435.98 323.828C435.98 335.874 426.093 345.619 413.836 345.551C355.597 345.619 202.618 345.551 202.618 345.01Z" fill="#E8F4FF"/>
<path d="M318.012 310.834L202.55 309.548V313.541L318.012 310.834Z" fill="#D1DAE1"/>
<path d="M305.619 333.505L202.55 331.407V335.603L305.619 333.505Z" fill="#D1DAE1"/>
<path d="M94.1981 238.556C88.7128 244.376 93.25 250.4 93.25 250.4C93.25 250.4 88.645 254.663 87.1552 254.663C85.7331 254.663 83.9724 259.4 87.4938 261.295C91.0152 263.258 82.618 262.987 84.1078 266.777C85.5976 270.567 91.0152 271.988 95.7556 270.77C100.496 269.552 114.785 266.642 116.342 266.912C117.9 267.183 124.807 267.522 125.688 262.784C126.568 258.047 124.74 258.927 125.485 257.641C126.23 256.355 125.823 250.603 122.573 250.264C119.322 249.926 123.385 244.309 121.489 243.226C119.593 242.143 116.952 240.654 116.952 238.692C116.952 236.797 116.207 226.645 109.909 230.368C103.611 234.157 101.783 235.24 99.8188 235.646C97.9226 236.12 94.1981 238.556 94.1981 238.556Z" fill="#16153D"/>
<path d="M101.783 237.812C101.783 237.812 103.408 239.166 103.408 240.045C103.408 240.925 100.022 241.94 100.564 243.564C101.038 245.189 104.762 247.422 102.054 252.092C102.054 252.092 98.1935 248.708 96.4328 251.482C94.6721 254.257 97.9226 258.521 101.376 255.34C101.376 255.34 104.288 258.859 103.543 261.566C102.798 264.273 92.3019 272.936 90.9475 274.154C89.5931 275.304 93.1823 281.192 98.9384 282.004C104.627 282.816 121.083 283.358 122.979 275.71C122.979 275.71 111.399 266.303 110.993 264.747C110.586 263.123 110.722 260.822 111.399 260.416C112.076 260.01 117.765 260.077 117.765 256.423C117.765 252.768 116.41 246.474 116.478 245.189C116.546 243.903 115.056 238.015 112.279 238.218C109.503 238.421 108.487 239.639 107.403 239.639C106.32 239.639 104.424 240.993 103.543 238.895C103.611 238.962 102.324 237.677 101.783 237.812Z" fill="#FC7E56"/>
<path d="M104.221 248.437C103.95 248.369 103.882 248.234 103.882 248.031C103.882 247.963 104.221 246.271 105.575 245.392C106.388 244.85 107.336 244.783 108.487 245.053C108.69 245.121 108.758 245.256 108.758 245.459C108.69 245.662 108.555 245.73 108.352 245.73C107.404 245.459 106.591 245.595 105.982 246.001C104.898 246.745 104.627 248.166 104.627 248.234C104.56 248.302 104.424 248.437 104.221 248.437Z" fill="black"/>
<path d="M115.395 244.58C115.259 244.58 115.191 244.512 115.124 244.444C114.717 243.903 114.243 243.564 113.769 243.497C112.686 243.361 111.738 244.241 111.738 244.309C111.602 244.444 111.399 244.444 111.264 244.309C111.128 244.173 111.128 243.97 111.264 243.835C111.331 243.767 112.483 242.752 113.837 242.888C114.582 242.955 115.191 243.361 115.665 244.106C115.801 244.241 115.733 244.444 115.598 244.58C115.462 244.58 115.462 244.58 115.395 244.58Z" fill="black"/>
<path d="M113.431 253.377C113.295 253.377 113.228 253.31 113.16 253.242C113.092 253.107 113.092 252.904 113.228 252.768C114.988 251.618 114.921 251.212 114.921 251.212C114.921 251.212 114.853 251.076 114.311 251.009C112.076 250.738 111.128 246.136 111.061 245.595C111.061 245.392 111.128 245.256 111.331 245.189C111.535 245.189 111.67 245.256 111.738 245.459C111.941 246.745 112.889 250.129 114.379 250.264C114.65 250.264 115.462 250.4 115.598 250.941C115.733 251.55 115.124 252.227 113.566 253.174C113.566 253.377 113.498 253.377 113.431 253.377Z" fill="#BC5333"/>
<path d="M112.212 256.423C111.061 256.423 110.248 256.017 110.248 256.017C110.113 255.949 110.045 255.746 110.113 255.543C110.18 255.408 110.383 255.34 110.587 255.408C110.722 255.475 113.16 256.626 115.462 254.325C115.598 254.19 115.801 254.19 115.936 254.325C116.072 254.46 116.072 254.663 115.936 254.799C114.582 256.084 113.228 256.423 112.212 256.423Z" fill="#BC5333"/>
<path d="M108.758 250.332C109.282 250.332 109.706 249.878 109.706 249.317C109.706 248.756 109.282 248.302 108.758 248.302C108.235 248.302 107.81 248.756 107.81 249.317C107.81 249.878 108.235 250.332 108.758 250.332Z" fill="#15173D"/>
<path d="M114.311 248.369C114.835 248.369 115.259 247.915 115.259 247.354C115.259 246.794 114.835 246.339 114.311 246.339C113.788 246.339 113.363 246.794 113.363 247.354C113.363 247.915 113.788 248.369 114.311 248.369Z" fill="#15173D"/>
<path d="M91.2861 273.612C91.2861 273.612 66.0943 310.969 73.1372 324.369L143.566 323.895C143.566 323.895 132.934 283.831 122.776 275.372C122.776 275.304 107.403 287.689 91.2861 273.612Z" fill="#A6D2FF"/>
<path d="M116.884 290.058L101.986 324.098L148.035 324.166L162.121 292.156C162.866 290.396 161.579 288.433 159.683 288.433H119.254C118.306 288.433 117.358 289.042 116.884 290.058Z" fill="#15173D"/>
<path d="M147.358 306.097C147.358 306.097 144.379 306.976 146.207 309.074L152.979 309.21C152.979 309.21 144.92 309.616 144.92 310.36C144.92 311.105 145.056 312.593 146.546 312.593C148.036 312.593 151.963 312.39 151.963 312.39L146.275 313.744C146.275 313.744 145.191 315.097 146.952 315.233C148.78 315.368 151.083 315.233 151.083 315.233L146.952 316.383C146.952 316.383 146.952 318.278 148.374 318.211C149.796 318.143 153.995 317.534 153.995 317.534C153.995 317.534 155.891 316.857 155.552 314.894C155.552 314.894 156.704 313.541 156.433 312.526C156.433 312.526 157.652 311.172 157.245 309.819C157.245 309.819 158.464 306.638 156.433 306.232C154.401 305.758 147.358 306.097 147.358 306.097Z" fill="#FC7E56"/>
<path d="M140.044 324.166C140.044 324.166 156.026 330.866 155.823 341.965C155.62 353.064 145.394 351.981 134.694 352.861C123.995 353.74 104.898 354.958 104.898 354.958L87.5615 324.098L140.044 324.166Z" fill="#FF454A"/>
<path d="M102.663 339.258C102.663 339.258 125.011 331.069 135.507 331.678" stroke="black" stroke-miterlimit="10" stroke-linecap="round"/>
<path d="M129.548 328.362C129.548 328.362 126.162 330.798 126.5 332.558" stroke="black" stroke-miterlimit="10" stroke-linecap="round"/>
<path d="M122.302 378.442C119.729 380.337 116.14 379.863 114.108 377.427L104.289 363.892L110.18 358.139L123.182 369.441C125.62 372.148 125.214 376.276 122.302 378.442Z" fill="#252A6C"/>
<path d="M58.9162 306.976C48.3519 312.864 59.5934 329.512 66.5685 336.415C73.4759 343.318 105.033 369.712 105.033 369.712L116.681 358.951L82.6858 314.962C82.6858 314.962 71.3766 300.073 58.9162 306.976Z" fill="#FC4349"/>
<path d="M89.9321 324.504L112.686 354.214" stroke="black" stroke-miterlimit="10" stroke-linecap="round"/>
<path d="M94.266 290.937L91.1509 308.533L106.93 312.12" stroke="black" stroke-miterlimit="10" stroke-linecap="round"/>
<path d="M96.5009 294.524L92.9795 298.382" stroke="black" stroke-miterlimit="10" stroke-linecap="round"/>
<path d="M414.242 347.243H204.311V343.86H414.242C425.483 343.86 434.626 334.723 434.626 323.489V323.151C434.626 311.917 425.483 302.781 414.242 302.781H203.227V299.397H414.242C427.312 299.397 438.012 310.022 438.012 323.151V323.489C438.012 336.618 427.312 347.243 414.242 347.243Z" fill="#FC3935"/>
<path d="M254.491 270.432H249.75V342.912H254.491V270.432Z" fill="#14163C"/>
<path d="M243.994 329.174C243.994 329.174 240.27 338.039 242.775 343.995L275.823 343.859C275.823 343.859 275.823 338.648 272.978 338.648C270.066 338.648 256.184 329.377 256.184 329.377L243.994 329.174Z" fill="#292C71"/>
<path d="M201.534 329.039C201.534 329.039 197.539 337.363 200.248 341.829L202.415 343.792L234.04 343.724C234.04 343.724 232.618 338.919 230.247 338.716C227.877 338.581 215.484 334.25 214.401 329.783C213.25 325.384 201.534 329.039 201.534 329.039Z" fill="#2B2B71"/>
<path d="M242.911 339.461C242.911 339.461 247.381 338.445 248.193 341.423H271.083C271.083 341.423 272.234 339.325 272.911 339.325" stroke="white" stroke-miterlimit="10" stroke-linecap="round"/>
<path d="M200.248 339.664C200.248 339.664 203.837 339.122 204.785 341.491H228.554C228.554 341.491 229.096 339.731 230.315 339.664" stroke="white" stroke-miterlimit="10" stroke-linecap="round"/>
<path d="M258.08 335.806C258.08 335.806 261.127 333.167 262.617 333.64" stroke="white" stroke-miterlimit="10" stroke-linecap="round"/>
<path d="M260.315 337.972C260.315 337.972 262.821 334.791 265.123 335.197" stroke="white" stroke-miterlimit="10" stroke-linecap="round"/>
<path d="M263.836 338.513C263.836 338.513 265.462 335.738 267.967 336.889" stroke="white" stroke-miterlimit="10" stroke-linecap="round"/>
<path d="M213.521 335.942C213.521 335.942 216.432 333.302 219.006 334.588" stroke="white" stroke-miterlimit="10" stroke-linecap="round"/>
<path d="M215.484 337.566C215.484 337.566 218.667 334.791 221.647 335.941" stroke="white" stroke-miterlimit="10" stroke-linecap="round"/>
<path d="M218.735 338.648C218.735 338.648 221.985 336.347 224.491 337.363" stroke="white" stroke-miterlimit="10" stroke-linecap="round"/>
<path d="M286.523 270.702H217.042V265.762H286.523C287.877 265.762 289.028 266.845 289.028 268.266C289.028 269.552 287.877 270.702 286.523 270.702Z" fill="#14163C"/>
<path d="M209.186 281.733C209.186 281.733 200.925 298.652 200.925 308.804C200.925 318.955 199.977 330.73 199.977 330.73L215.484 331.475C215.484 331.475 219.886 299.6 223.611 294.998C227.268 290.396 229.909 277.131 227.471 276.049C225.033 274.966 210.473 275.439 209.186 281.733Z" fill="#1155C0"/>
<path d="M156.771 270.432C156.771 270.432 161.85 284.711 177.358 284.508L215.011 284.305L240.473 330.528H257.945L232.889 268.604C232.889 268.604 229.977 264.273 227.606 264.07C225.236 263.867 179.593 261.295 179.593 261.295L156.771 270.432Z" fill="#1470FF"/>
<path d="M282.324 262.987H254.423V265.83H282.324V262.987Z" fill="#3641C1"/>
<path d="M158.6 186.04C158.6 186.04 153.385 190.168 158.261 196.665C163.069 203.162 164.288 203.433 164.288 203.433L171.196 195.853C171.196 195.853 172.144 191.996 170.586 189.965L178.916 184.89C178.916 184.89 181.557 177.378 176.41 176.566C171.196 175.754 171.67 179.476 169.3 179.679C166.929 179.882 157.652 180.762 158.6 186.04Z" fill="#15173D"/>
<path d="M173.159 181.912C173.159 181.912 174.717 188.544 170.18 189.83C170.18 189.83 171.331 192.74 171.331 193.687C171.331 194.567 170.992 195.718 170.992 195.718C170.992 195.718 168.487 193.755 166.861 195.244C165.575 196.462 165.168 198.222 166.523 199.711C167.877 201.132 163.475 203.027 163.475 203.027L162.73 211.08L174.04 215.75C174.04 215.75 172.414 205.192 173.972 204.922C173.972 204.922 186.974 207.832 183.25 196.056C183.25 196.056 185.891 193.687 185.349 193.146C184.807 192.605 181.489 192.334 181.015 191.522C180.541 190.71 179.254 182.521 173.159 181.912Z" fill="#EC6F53"/>
<path d="M231.06 265.83C231.06 265.83 229.977 263.461 233.159 262.107C236.342 260.754 242.843 262.175 242.843 262.175C242.843 262.175 244.13 263.799 244.062 265.83C244.062 265.762 230.992 265.83 231.06 265.83Z" fill="#322F7E"/>
<path d="M150.541 157.007C153.588 154.436 155.349 151.323 155.349 147.939C155.349 139.479 144.311 132.576 130.631 132.576C116.952 132.576 105.914 139.479 105.914 147.939C105.914 156.398 116.952 163.301 130.631 163.301C135.439 163.301 139.909 162.421 143.701 161L154.536 165.128L150.541 157.007Z" fill="#D2BDFE"/>
<path d="M112.686 149.157L121.76 145.502L127.245 150.24L138.148 145.164L142.144 149.834L149.051 146.924" stroke="white" stroke-width="2" stroke-miterlimit="10" stroke-linecap="round"/>
<path d="M222.053 258.859C222.053 258.859 228.961 256.761 229.976 256.22C230.992 255.678 241.15 255.069 243.182 260.822C243.182 260.822 242.504 261.837 238.577 262.31C234.649 262.784 231.872 263.461 231.128 264.138C230.315 264.814 226.59 265.694 223.882 265.559C221.105 265.424 222.053 258.859 222.053 258.859Z" fill="#EC6F53"/>
<path d="M238.644 262.649C238.509 262.649 238.441 262.581 238.373 262.446C237.019 260.077 232.279 261.431 232.211 261.431C232.008 261.498 231.872 261.363 231.805 261.228C231.737 261.025 231.872 260.889 232.008 260.822C232.211 260.754 237.358 259.265 238.983 262.108C239.051 262.243 239.051 262.446 238.848 262.581C238.712 262.649 238.644 262.649 238.644 262.649Z" fill="#BC5333"/>
<path d="M241.286 261.701C241.15 261.701 241.082 261.634 241.015 261.566C238.238 257.573 233.565 258.994 233.362 259.062C233.159 259.13 233.024 258.994 232.956 258.859C232.888 258.656 233.024 258.521 233.159 258.453C233.227 258.453 238.509 256.829 241.624 261.228C241.76 261.363 241.692 261.566 241.556 261.701C241.421 261.701 241.353 261.701 241.286 261.701Z" fill="#BC5333"/>
<path d="M163.882 209.185C163.882 209.185 161.647 209.118 160.97 211.96C160.293 214.802 153.318 237.203 153.453 250.129C153.656 263.055 155.078 273.748 156.975 273.748C158.871 273.748 179.119 263.529 179.119 263.529C179.119 263.529 179.661 265.356 182.911 265.356C186.162 265.356 223.814 265.559 223.814 265.559V256.693L188.6 250.264L174.04 213.719L163.882 209.185Z" fill="#F74747"/>
<path d="M163.882 242.414L179.187 263.596" stroke="black" stroke-width="1.0081" stroke-miterlimit="10" stroke-linecap="round"/>
<path d="M162.866 244.918L166.591 246.204" stroke="black" stroke-width="1.0081" stroke-miterlimit="10" stroke-linecap="round"/>
<path d="M160.834 224.683C160.834 224.683 162.663 214.938 174.311 217.239" stroke="black" stroke-width="1.0081" stroke-miterlimit="10" stroke-linecap="round"/>
<path d="M188.532 254.46L188.667 250.332L185.078 252.498" stroke="black" stroke-width="1.0081" stroke-miterlimit="10" stroke-linecap="round"/>
<path d="M174.108 191.657C173.904 191.657 173.769 191.454 173.769 191.319C173.769 191.251 173.837 189.83 174.92 188.883C175.53 188.341 176.41 188.138 177.358 188.274C177.561 188.274 177.697 188.477 177.629 188.68C177.629 188.883 177.426 189.018 177.223 188.95C176.41 188.883 175.733 189.018 175.259 189.424C174.446 190.101 174.311 191.319 174.311 191.319C174.446 191.522 174.243 191.657 174.108 191.657Z" fill="black"/>
<path d="M177.223 193.078C177.634 193.078 177.968 192.745 177.968 192.334C177.968 191.923 177.634 191.59 177.223 191.59C176.812 191.59 176.478 191.923 176.478 192.334C176.478 192.745 176.812 193.078 177.223 193.078Z" fill="#15173D"/>
<path d="M182.166 200.252C179.796 200.252 178.577 199.305 178.509 199.237L178.916 198.696C178.916 198.696 180.473 199.914 183.588 199.44L183.724 200.117C183.114 200.184 182.64 200.252 182.166 200.252Z" fill="#BC5333"/>
<path d="M369.75 242.955H310.901V300.344H369.75V242.955Z" fill="#15173D"/>
<path d="M400.901 288.839H280.157V300.412H400.901V288.839Z" fill="#282A74"/>
<path d="M189.819 43.1771C191.09 43.1771 192.121 42.147 192.121 40.8762C192.121 39.6054 191.09 38.5752 189.819 38.5752C188.547 38.5752 187.516 39.6054 187.516 40.8762C187.516 42.147 188.547 43.1771 189.819 43.1771Z" fill="#AACBF8"/>
<path d="M189.819 54.3436C191.09 54.3436 192.121 53.3135 192.121 52.0427C192.121 50.7719 191.09 49.7417 189.819 49.7417C188.547 49.7417 187.516 50.7719 187.516 52.0427C187.516 53.3135 188.547 54.3436 189.819 54.3436Z" fill="#AACBF8"/>
<path d="M189.954 65.307C191.225 65.307 192.256 64.2768 192.256 63.006C192.256 61.7353 191.225 60.7051 189.954 60.7051C188.682 60.7051 187.651 61.7353 187.651 63.006C187.651 64.2768 188.682 65.307 189.954 65.307Z" fill="#AACBF8"/>
<path d="M189.954 76.4059C191.225 76.4059 192.256 75.3757 192.256 74.1049C192.256 72.8341 191.225 71.804 189.954 71.804C188.682 71.804 187.651 72.8341 187.651 74.1049C187.651 75.3757 188.682 76.4059 189.954 76.4059Z" fill="#AACBF8"/>
<path d="M189.954 87.234C191.225 87.234 192.256 86.2038 192.256 84.9331C192.256 83.6623 191.225 82.6321 189.954 82.6321C188.682 82.6321 187.651 83.6623 187.651 84.9331C187.651 86.2038 188.682 87.234 189.954 87.234Z" fill="#AACBF8"/>
<path d="M189.954 98.4003C191.225 98.4003 192.256 97.3701 192.256 96.0993C192.256 94.8285 191.225 93.7983 189.954 93.7983C188.682 93.7983 187.651 94.8285 187.651 96.0993C187.651 97.3701 188.682 98.4003 189.954 98.4003Z" fill="#AACBF8"/>
<path d="M200.654 43.1771C201.925 43.1771 202.956 42.147 202.956 40.8762C202.956 39.6054 201.925 38.5752 200.654 38.5752C199.382 38.5752 198.351 39.6054 198.351 40.8762C198.351 42.147 199.382 43.1771 200.654 43.1771Z" fill="#AACBF8"/>
<path d="M200.654 54.3436C201.925 54.3436 202.956 53.3135 202.956 52.0427C202.956 50.7719 201.925 49.7417 200.654 49.7417C199.382 49.7417 198.351 50.7719 198.351 52.0427C198.351 53.3135 199.382 54.3436 200.654 54.3436Z" fill="#AACBF8"/>
<path d="M200.789 65.307C202.061 65.307 203.092 64.2768 203.092 63.006C203.092 61.7353 202.061 60.7051 200.789 60.7051C199.518 60.7051 198.487 61.7353 198.487 63.006C198.487 64.2768 199.518 65.307 200.789 65.307Z" fill="#AACBF8"/>
<path d="M200.789 76.4059C202.061 76.4059 203.092 75.3757 203.092 74.1049C203.092 72.8341 202.061 71.804 200.789 71.804C199.518 71.804 198.487 72.8341 198.487 74.1049C198.487 75.3757 199.518 76.4059 200.789 76.4059Z" fill="#AACBF8"/>
<path d="M200.789 87.234C202.061 87.234 203.092 86.2038 203.092 84.9331C203.092 83.6623 202.061 82.6321 200.789 82.6321C199.518 82.6321 198.487 83.6623 198.487 84.9331C198.487 86.2038 199.518 87.234 200.789 87.234Z" fill="#AACBF8"/>
<path d="M200.789 98.4003C202.061 98.4003 203.092 97.3701 203.092 96.0993C203.092 94.8285 202.061 93.7983 200.789 93.7983C199.518 93.7983 198.487 94.8285 198.487 96.0993C198.487 97.3701 199.518 98.4003 200.789 98.4003Z" fill="#AACBF8"/>
<path d="M212.166 43.1771C213.438 43.1771 214.469 42.147 214.469 40.8762C214.469 39.6054 213.438 38.5752 212.166 38.5752C210.895 38.5752 209.864 39.6054 209.864 40.8762C209.864 42.147 210.895 43.1771 212.166 43.1771Z" fill="#AACBF8"/>
<path d="M212.166 54.3436C213.438 54.3436 214.469 53.3135 214.469 52.0427C214.469 50.7719 213.438 49.7417 212.166 49.7417C210.895 49.7417 209.864 50.7719 209.864 52.0427C209.864 53.3135 210.895 54.3436 212.166 54.3436Z" fill="#AACBF8"/>
<path d="M212.301 65.307C213.573 65.307 214.604 64.2768 214.604 63.006C214.604 61.7353 213.573 60.7051 212.301 60.7051C211.03 60.7051 209.999 61.7353 209.999 63.006C209.999 64.2768 211.03 65.307 212.301 65.307Z" fill="#AACBF8"/>
<path d="M212.301 76.4059C213.573 76.4059 214.604 75.3757 214.604 74.1049C214.604 72.8341 213.573 71.804 212.301 71.804C211.03 71.804 209.999 72.8341 209.999 74.1049C209.999 75.3757 211.03 76.4059 212.301 76.4059Z" fill="#AACBF8"/>
<path d="M212.301 87.234C213.573 87.234 214.604 86.2038 214.604 84.9331C214.604 83.6623 213.573 82.6321 212.301 82.6321C211.03 82.6321 209.999 83.6623 209.999 84.9331C209.999 86.2038 211.03 87.234 212.301 87.234Z" fill="#AACBF8"/>
<path d="M212.301 98.4003C213.573 98.4003 214.604 97.3701 214.604 96.0993C214.604 94.8285 213.573 93.7983 212.301 93.7983C211.03 93.7983 209.999 94.8285 209.999 96.0993C209.999 97.3701 211.03 98.4003 212.301 98.4003Z" fill="#AACBF8"/>
<path d="M222.324 43.1771C223.596 43.1771 224.626 42.147 224.626 40.8762C224.626 39.6054 223.596 38.5752 222.324 38.5752C221.052 38.5752 220.021 39.6054 220.021 40.8762C220.021 42.147 221.052 43.1771 222.324 43.1771Z" fill="#AACBF8"/>
<path d="M222.324 54.3436C223.596 54.3436 224.626 53.3135 224.626 52.0427C224.626 50.7719 223.596 49.7417 222.324 49.7417C221.052 49.7417 220.021 50.7719 220.021 52.0427C220.021 53.3135 221.052 54.3436 222.324 54.3436Z" fill="#AACBF8"/>
<path d="M222.459 66.3221C220.631 66.3221 219.141 64.8333 219.141 63.006C219.141 61.1788 220.631 59.6899 222.459 59.6899C224.288 59.6899 225.778 61.1788 225.778 63.006C225.778 64.8333 224.288 66.3221 222.459 66.3221ZM222.459 61.7202C221.782 61.7202 221.173 62.3293 221.173 63.006C221.173 63.6828 221.782 64.2919 222.459 64.2919C223.137 64.2919 223.746 63.6828 223.746 63.006C223.746 62.3293 223.137 61.7202 222.459 61.7202Z" fill="black"/>
<path d="M222.459 77.421C220.631 77.421 219.141 75.9322 219.141 74.1049C219.141 72.2777 220.631 70.7888 222.459 70.7888C224.288 70.7888 225.778 72.2777 225.778 74.1049C225.778 75.9322 224.288 77.421 222.459 77.421ZM222.459 72.8191C221.782 72.8191 221.173 73.4282 221.173 74.1049C221.173 74.7817 221.782 75.3908 222.459 75.3908C223.137 75.3908 223.746 74.7817 223.746 74.1049C223.746 73.4282 223.137 72.8191 222.459 72.8191Z" fill="black"/>
<path d="M222.459 88.2491C220.631 88.2491 219.141 86.7603 219.141 84.933C219.141 83.1058 220.631 81.6169 222.459 81.6169C224.288 81.6169 225.778 83.1058 225.778 84.933C225.778 86.7603 224.288 88.2491 222.459 88.2491ZM222.459 83.6472C221.782 83.6472 221.173 84.2563 221.173 84.933C221.173 85.6098 221.782 86.2189 222.459 86.2189C223.137 86.2189 223.746 85.6098 223.746 84.933C223.746 84.2563 223.137 83.6472 222.459 83.6472Z" fill="black"/>
<path d="M222.459 99.4156C220.631 99.4156 219.141 97.9268 219.141 96.0995C219.141 94.2723 220.631 92.7834 222.459 92.7834C224.288 92.7834 225.778 94.2723 225.778 96.0995C225.778 97.9268 224.288 99.4156 222.459 99.4156ZM222.459 94.8137C221.782 94.8137 221.173 95.4228 221.173 96.0995C221.173 96.7763 221.782 97.3854 222.459 97.3854C223.137 97.3854 223.746 96.7763 223.746 96.0995C223.746 95.4228 223.137 94.8137 222.459 94.8137Z" fill="black"/>
<path d="M233.159 43.1771C234.431 43.1771 235.462 42.147 235.462 40.8762C235.462 39.6054 234.431 38.5752 233.159 38.5752C231.888 38.5752 230.857 39.6054 230.857 40.8762C230.857 42.147 231.888 43.1771 233.159 43.1771Z" fill="#AACBF8"/>
<path d="M233.159 54.3436C234.431 54.3436 235.462 53.3135 235.462 52.0427C235.462 50.7719 234.431 49.7417 233.159 49.7417C231.888 49.7417 230.857 50.7719 230.857 52.0427C230.857 53.3135 231.888 54.3436 233.159 54.3436Z" fill="#AACBF8"/>
<path d="M233.295 66.3221C231.466 66.3221 229.977 64.8333 229.977 63.006C229.977 61.1788 231.466 59.6899 233.295 59.6899C235.123 59.6899 236.613 61.1788 236.613 63.006C236.613 64.8333 235.123 66.3221 233.295 66.3221ZM233.295 61.7202C232.618 61.7202 232.008 62.3293 232.008 63.006C232.008 63.6828 232.618 64.2919 233.295 64.2919C233.972 64.2919 234.582 63.6828 234.582 63.006C234.582 62.3293 233.972 61.7202 233.295 61.7202Z" fill="black"/>
<path d="M233.295 77.421C231.466 77.421 229.977 75.9322 229.977 74.1049C229.977 72.2777 231.466 70.7888 233.295 70.7888C235.123 70.7888 236.613 72.2777 236.613 74.1049C236.613 75.9322 235.123 77.421 233.295 77.421ZM233.295 72.8191C232.618 72.8191 232.008 73.4282 232.008 74.1049C232.008 74.7817 232.618 75.3908 233.295 75.3908C233.972 75.3908 234.582 74.7817 234.582 74.1049C234.582 73.4282 233.972 72.8191 233.295 72.8191Z" fill="black"/>
<path d="M233.295 88.2491C231.466 88.2491 229.977 86.7603 229.977 84.933C229.977 83.1058 231.466 81.6169 233.295 81.6169C235.123 81.6169 236.613 83.1058 236.613 84.933C236.613 86.7603 235.123 88.2491 233.295 88.2491ZM233.295 83.6472C232.618 83.6472 232.008 84.2563 232.008 84.933C232.008 85.6098 232.618 86.2189 233.295 86.2189C233.972 86.2189 234.582 85.6098 234.582 84.933C234.582 84.2563 233.972 83.6472 233.295 83.6472Z" fill="black"/>
<path d="M233.295 99.4156C231.466 99.4156 229.977 97.9268 229.977 96.0995C229.977 94.2723 231.466 92.7834 233.295 92.7834C235.123 92.7834 236.613 94.2723 236.613 96.0995C236.613 97.9268 235.123 99.4156 233.295 99.4156ZM233.295 94.8137C232.618 94.8137 232.008 95.4228 232.008 96.0995C232.008 96.7763 232.618 97.3854 233.295 97.3854C233.972 97.3854 234.582 96.7763 234.582 96.0995C234.582 95.4228 233.972 94.8137 233.295 94.8137Z" fill="black"/>
<path d="M243.994 43.1771C245.266 43.1771 246.297 42.147 246.297 40.8762C246.297 39.6054 245.266 38.5752 243.994 38.5752C242.723 38.5752 241.692 39.6054 241.692 40.8762C241.692 42.147 242.723 43.1771 243.994 43.1771Z" fill="#AACBF8"/>
<path d="M243.994 54.3436C245.266 54.3436 246.297 53.3135 246.297 52.0427C246.297 50.7719 245.266 49.7417 243.994 49.7417C242.723 49.7417 241.692 50.7719 241.692 52.0427C241.692 53.3135 242.723 54.3436 243.994 54.3436Z" fill="#AACBF8"/>
<path d="M244.13 66.3221C242.301 66.3221 240.812 64.8333 240.812 63.006C240.812 61.1788 242.301 59.6899 244.13 59.6899C245.958 59.6899 247.448 61.1788 247.448 63.006C247.448 64.8333 245.958 66.3221 244.13 66.3221ZM244.13 61.7202C243.453 61.7202 242.843 62.3293 242.843 63.006C242.843 63.6828 243.453 64.2919 244.13 64.2919C244.807 64.2919 245.416 63.6828 245.416 63.006C245.416 62.3293 244.807 61.7202 244.13 61.7202Z" fill="black"/>
<path d="M244.13 77.421C242.301 77.421 240.812 75.9322 240.812 74.1049C240.812 72.2777 242.301 70.7888 244.13 70.7888C245.958 70.7888 247.448 72.2777 247.448 74.1049C247.448 75.9322 245.958 77.421 244.13 77.421ZM244.13 72.8191C243.453 72.8191 242.843 73.4282 242.843 74.1049C242.843 74.7817 243.453 75.3908 244.13 75.3908C244.807 75.3908 245.416 74.7817 245.416 74.1049C245.416 73.4282 244.807 72.8191 244.13 72.8191Z" fill="black"/>
<path d="M244.13 88.2491C242.301 88.2491 240.812 86.7603 240.812 84.933C240.812 83.1058 242.301 81.6169 244.13 81.6169C245.958 81.6169 247.448 83.1058 247.448 84.933C247.448 86.7603 245.958 88.2491 244.13 88.2491ZM244.13 83.6472C243.453 83.6472 242.843 84.2563 242.843 84.933C242.843 85.6098 243.453 86.2189 244.13 86.2189C244.807 86.2189 245.416 85.6098 245.416 84.933C245.416 84.2563 244.807 83.6472 244.13 83.6472Z" fill="black"/>
<path d="M244.13 99.4156C242.301 99.4156 240.812 97.9268 240.812 96.0995C240.812 94.2723 242.301 92.7834 244.13 92.7834C245.958 92.7834 247.448 94.2723 247.448 96.0995C247.448 97.9268 245.958 99.4156 244.13 99.4156ZM244.13 94.8137C243.453 94.8137 242.843 95.4228 242.843 96.0995C242.843 96.7763 243.453 97.3854 244.13 97.3854C244.807 97.3854 245.416 96.7763 245.416 96.0995C245.416 95.4228 244.807 94.8137 244.13 94.8137Z" fill="black"/>
<path d="M455.551 243.023H225.236C221.782 243.023 219.006 240.248 219.006 236.797V61.9232C219.006 58.4717 221.782 55.697 225.236 55.697H455.551C459.005 55.697 461.781 58.4717 461.781 61.9232V236.865C461.781 240.248 459.005 243.023 455.551 243.023Z" fill="#1F215E"/>
<path d="M280.766 263.461L296.816 239.504H298.983L282.324 265.83L280.766 263.461Z" fill="#3641C1"/>
<path d="M449.863 225.292H230.992C227.877 225.292 225.372 222.788 225.372 219.675V67.5402C225.372 64.4271 227.877 61.9231 230.992 61.9231H449.863C452.978 61.9231 455.483 64.4271 455.483 67.5402V219.675C455.551 222.788 452.978 225.292 449.863 225.292Z" fill="white"/>
<path d="M359.186 63.8858C359.186 63.8858 346.251 51.0951 356.748 42.568C356.748 42.568 352.211 28.4915 360.134 24.7693C368.057 21.0472 373.881 29.9127 376.928 31.0631C379.976 32.2136 396.161 36.4095 397.448 36.5449C398.734 36.6802 403.407 41.6882 402.797 50.4184C402.797 50.4184 406.183 50.4184 403.746 59.6222C401.308 68.8261 400.969 74.1725 400.969 77.0825C400.969 79.9926 393.994 86.2864 387.696 84.6622C381.398 83.038 359.186 63.8858 359.186 63.8858Z" fill="#15173D"/>
<path d="M190.563 161.136L211.895 225.766H295.258L275.484 160.933L190.563 161.136Z" fill="#15173D"/>
<path d="M364.671 42.771C364.671 42.771 363.046 49.7416 357.899 49.7416C357.899 49.7416 357.764 62.5323 357.086 66.7281C356.409 70.924 354.174 90.3469 365.145 91.7681L361.42 106.792C361.42 106.792 380.517 115.049 393.587 105.033C393.587 105.033 387.086 89.8732 389.253 76.7441C389.253 76.7441 396.702 81.2784 398.125 72.5482C399.547 63.8181 388.779 66.0514 388.102 69.7735C388.102 69.7735 383.565 65.2393 387.763 56.3738C387.763 56.3738 378.08 52.0425 379.705 43.4477C379.705 43.4477 376.793 48.7941 372.256 48.7941C367.718 48.7941 364.671 42.771 364.671 42.771Z" fill="#F88254"/>
<path d="M383.43 59.8928C383.159 59.8928 382.888 59.6898 382.753 59.4191C381.263 54.2757 373.475 55.4939 373.407 55.4939C373.001 55.5616 372.662 55.2909 372.662 54.9525C372.595 54.6141 372.865 54.2081 373.204 54.2081C376.319 53.6667 382.685 54.0727 384.107 59.1484C384.242 59.4868 383.972 59.8928 383.633 59.9605C383.565 59.8928 383.497 59.8928 383.43 59.8928Z" fill="black"/>
<path d="M359.254 57.3888C359.118 57.3888 358.983 57.3212 358.847 57.2535C358.509 57.0504 358.441 56.6444 358.644 56.306C358.644 56.2383 361.691 51.9071 366.974 54.4111C367.312 54.5465 367.448 54.9525 367.312 55.2909C367.177 55.6293 366.77 55.7646 366.432 55.6293C362.233 53.599 359.931 56.9151 359.795 57.0505C359.728 57.2535 359.457 57.3888 359.254 57.3888Z" fill="black"/>
<path d="M367.989 73.0896C367.854 72.9543 367.583 72.8189 367.312 72.6835C366.093 72.0068 364.197 70.9917 364.129 69.5705C364.061 68.7584 364.603 67.9463 365.619 67.2018C368.87 64.9009 367.921 59.0131 367.921 58.9454L368.937 58.8101C369.005 59.0808 369.953 65.3746 366.228 68.0139C365.484 68.5553 365.145 69.0291 365.145 69.5028C365.213 70.4503 366.838 71.2624 367.786 71.8038C368.125 72.0068 368.396 72.1421 368.599 72.2775L367.989 73.0896Z" fill="#BC5333"/>
<path d="M369.344 83.647C365.823 82.6318 362.437 75.9996 362.437 75.9996C362.437 75.9996 371.646 78.5713 377.606 75.7289C383.633 72.9542 372.662 84.5944 369.344 83.647Z" fill="#FFFDFF"/>
<path d="M369.412 92.6478C368.057 92.6478 366.635 92.5125 365.078 92.2418L365.281 91.2267C382.753 94.4074 387.425 77.4885 387.628 76.8118L388.644 77.0825C388.576 77.2178 384.31 92.6478 369.412 92.6478Z" fill="#BC5333"/>
<path d="M375.845 64.8332C376.743 64.8332 377.47 63.9243 377.47 62.803C377.47 61.6817 376.743 60.7727 375.845 60.7727C374.947 60.7727 374.22 61.6817 374.22 62.803C374.22 63.9243 374.947 64.8332 375.845 64.8332Z" fill="#15173D"/>
<path d="M363.655 64.63C364.478 64.63 365.145 63.7513 365.145 62.6674C365.145 61.5835 364.478 60.7048 363.655 60.7048C362.833 60.7048 362.166 61.5835 362.166 62.6674C362.166 63.7513 362.833 64.63 363.655 64.63Z" fill="#15173D"/>
<path d="M395.079 69.5747L389.249 72.7429L389.734 73.6347L395.564 70.4665L395.079 69.5747Z" fill="#BC5333"/>
<path d="M392.184 71.504L391.425 72.1785L393.45 74.4546L394.209 73.7801L392.184 71.504Z" fill="#BC5333"/>
<path d="M369.682 88.249C367.312 88.249 366.364 86.9631 366.296 86.8955L367.109 86.2864C367.177 86.3541 368.599 88.1813 372.73 86.5571L373.136 87.5045C371.782 88.0459 370.63 88.249 369.682 88.249Z" fill="#BC5333"/>
<path d="M356.613 56.915L340.021 77.4884C338.464 79.3833 339.818 82.2934 342.324 82.2934H353.091" stroke="black" stroke-width="2" stroke-miterlimit="10" stroke-linecap="round"/>
<path d="M359.321 86.6248H352.482C350.585 86.6248 349.028 85.0683 349.028 83.1734C349.028 81.2785 350.585 79.7219 352.482 79.7219H359.321C361.217 79.7219 362.775 81.2785 362.775 83.1734C362.843 85.0683 361.285 86.6248 359.321 86.6248Z" fill="#1D1441"/>
<path d="M353.362 107.401L363.046 100.295C363.046 100.295 370.495 112.544 392.166 100.972C392.166 100.972 393.791 106.657 398.463 108.078L400.563 113.56L371.443 128.245L352.82 110.447L353.362 107.401Z" fill="white"/>
<path d="M420.878 76.2029H426.567" stroke="black" stroke-width="0.9924" stroke-miterlimit="10" stroke-linecap="round"/>
<path d="M431.172 70.7888L437.064 76.6766" stroke="black" stroke-width="0.9924" stroke-miterlimit="10" stroke-linecap="round"/>
<path d="M437.334 70.5857L430.969 76.8795" stroke="black" stroke-width="0.9924" stroke-miterlimit="10" stroke-linecap="round"/>
<path d="M447.966 70.1797H441.194V77.1503H447.966V70.1797Z" stroke="black" stroke-width="0.9924" stroke-miterlimit="10" stroke-linecap="round" stroke-linejoin="bevel"/>
<path d="M496.657 38.3721H468.688V68.2847H496.657V38.3721Z" fill="#FECE26"/>
<path d="M484.332 57.3213L491.036 73.2927L494.084 69.0968L502.21 76.8795L506.409 72.4129L497.741 64.6303L501.668 60.7051L484.332 57.3213Z" fill="#A3D2FE"/>
<path d="M502.278 77.8946L494.219 70.1119L490.901 74.6461L483.249 56.4414L503.09 60.2989L498.756 64.6301L507.425 72.4128L502.278 77.8946ZM494.016 68.0816L502.21 75.9996L505.461 72.5482L496.792 64.6978L500.314 61.1787L485.483 58.3363L491.24 72.0068L494.016 68.0816Z" fill="white"/>
<path d="M355.326 106.724C355.326 106.724 343.136 109.973 341.105 111.056C339.682 111.868 325.935 122.154 324.784 139.682C323.497 158.429 320.924 170.407 320.924 170.407L303.791 132.441L282.121 137.111L307.922 225.36H441.668C441.668 225.36 434.896 126.283 413.023 116.74C413.023 116.74 400.901 107.672 398.328 107.536C398.328 107.536 392.165 119.65 378.757 119.515C365.348 119.38 356.612 116.74 355.326 106.724Z" fill="#6459EB"/>
<path d="M330.134 204.516L400.63 191.725C400.63 191.725 406.793 191.725 408.96 195.041" stroke="black" stroke-width="2" stroke-miterlimit="10" stroke-linecap="round"/>
<path d="M410.991 117.079C410.991 117.079 396.499 126.824 397.583 149.089C398.666 171.354 401.172 191.522 401.172 191.522" stroke="black" stroke-width="2" stroke-miterlimit="10" stroke-linecap="round"/>
<path d="M335.145 141.036L329.321 202.553" stroke="black" stroke-width="2" stroke-miterlimit="10" stroke-linecap="round"/>
<path d="M236.613 98.4679C236.748 99.8214 237.764 100.837 239.118 101.04L255.033 102.731C255.033 102.731 254.017 103.341 253.881 104.897C253.746 106.454 253.543 108.958 255.1 109.77C255.1 109.77 251.985 113.357 255.168 115.454C255.168 115.454 254.491 121.139 258.283 122.29C262.075 123.44 275.078 122.696 275.078 122.696C275.078 122.696 277.448 122.628 278.396 124.997C279.276 127.365 284.084 137.652 284.084 137.652L302.978 133.456L292.685 108.146C292.685 108.146 287.538 93.5276 280.292 93.3246C274.265 93.1892 247.922 94.8811 239.186 95.4225C237.696 95.6255 236.477 96.9791 236.613 98.4679Z" fill="#FF7D59"/>
<path d="M268.035 225.156C268.035 225.156 281.308 205.734 305.755 206.072L329.998 205.125L333.587 224.818C333.587 224.818 310.156 225.969 306.229 222.585C306.229 222.585 293.7 221.637 291.94 225.36C292.007 225.292 268.035 224.412 268.035 225.156Z" fill="#FF7D59"/>
<path d="M275.823 225.089L275.078 224.412C275.552 223.938 286.861 212.298 296.342 211.824L296.409 212.84C287.335 213.246 275.958 224.954 275.823 225.089Z" fill="#BC5333"/>
<path d="M284.694 224.683L284.017 223.871C284.355 223.6 293.159 216.426 298.847 216.629V217.645C298.78 217.645 298.712 217.645 298.712 217.645C293.362 217.645 284.829 224.615 284.694 224.683Z" fill="#BC5333"/>
<path d="M268.103 110.717C263.768 110.717 256.861 110.04 256.522 110.04L256.59 109.025C256.658 109.025 265.8 109.905 269.66 109.702C270.337 109.634 270.811 109.431 271.015 109.025C271.692 107.875 270.947 105.506 270.473 104.423L257.606 103.137L257.741 102.122L271.218 103.476L271.353 103.747C271.556 104.153 273.114 107.604 271.963 109.567C271.556 110.311 270.811 110.717 269.796 110.785C269.254 110.717 268.712 110.717 268.103 110.717Z" fill="#BC5333"/>
<path d="M264.446 116.402C261.127 116.402 257.471 116.266 256.319 116.199L256.387 115.184C260.992 115.387 268.644 115.59 269.592 115.048C270.27 114.71 269.863 112.138 269.254 110.379L270.202 110.04C270.473 110.852 271.827 115.048 269.999 115.928C269.389 116.266 267.019 116.402 264.446 116.402Z" fill="#BC5333"/>
<path d="M262.076 122.087C261.398 122.087 260.992 122.019 260.924 122.019L260.992 121.004C261.06 121.004 266.139 121.41 268.238 119.244C268.983 118.5 269.254 117.552 269.118 116.266L270.134 116.131C270.337 117.688 269.931 118.906 268.983 119.921C267.222 121.816 263.836 122.087 262.076 122.087Z" fill="#BC5333"/>
<path d="M272.369 94.4075C272.369 94.4075 267.426 99.2801 265.733 100.498C264.107 101.716 260.992 105.033 263.972 107.943C266.952 110.853 271.895 104.288 273.317 103.747C274.739 103.138 279.141 102.664 280.292 104.356" fill="#FF7D59"/>
<path d="M265.8 109.228C265.055 109.228 264.378 108.958 263.701 108.349C262.685 107.401 262.211 106.251 262.279 105.033C262.414 102.529 264.988 100.498 265.462 100.092C267.087 98.8741 271.963 94.0691 272.03 94.0015L272.775 94.7459C272.572 94.9489 267.764 99.6862 266.071 100.904C264.852 101.784 263.362 103.476 263.295 105.1C263.227 105.98 263.633 106.86 264.378 107.604C266.071 109.296 268.712 107.131 271.286 104.762C272.098 104.017 272.708 103.476 273.182 103.273C274.604 102.664 279.344 102.055 280.766 104.017L279.954 104.627C279.006 103.273 274.942 103.679 273.588 104.22C273.317 104.356 272.64 104.965 272.03 105.506C270.405 106.995 267.967 109.228 265.8 109.228Z" fill="#BC5333"/>
<path d="M433.068 252.024L431.578 263.258L443.835 258.385L433.068 252.024Z" fill="#FDCD25"/>
<path d="M296.68 239.369L273.046 205.125L231.669 246.61L280.766 263.461L296.68 239.369Z" fill="url(#paint0_linear_43_391)"/>
<defs>
<linearGradient id="paint0_linear_43_391" x1="237.554" y1="217.942" x2="294.847" y2="248.592" gradientUnits="userSpaceOnUse">
<stop offset="0.5367" stop-color="white" stop-opacity="0"/>
<stop offset="1" stop-color="white" stop-opacity="0.3"/>
</linearGradient>
</defs>
</svg>
