<svg width="666" height="512" viewBox="0 0 666 512" fill="none" xmlns="http://www.w3.org/2000/svg">
<path d="M184.27 75.5568L182.893 51.9857C182.785 50.0896 182.085 48.275 180.893 46.7963L166.861 29.314C166.182 28.472 165.677 27.5026 165.378 26.463C165.078 25.4234 164.99 24.3344 165.117 23.26C165.245 22.1857 165.586 21.1477 166.121 20.207C166.655 19.2662 167.373 18.4418 168.231 17.7821L170.269 16.2061C171.147 15.5283 172.155 15.0376 173.231 14.7641C174.306 14.4906 175.426 14.4402 176.522 14.6159C177.617 14.7917 178.665 15.1899 179.601 15.786C180.537 16.3822 181.34 17.1635 181.962 18.082L188.832 28.2377C189.157 28.7103 189.647 29.0446 190.206 29.1754C190.765 29.3062 191.353 29.2241 191.855 28.945C192.139 28.7825 192.386 28.5614 192.578 28.2963C192.771 28.0312 192.904 27.7282 192.97 27.4074L195.117 17.4131C195.182 17.1086 195.349 16.8357 195.591 16.6398C195.834 16.4439 196.136 16.337 196.447 16.3368C196.631 16.3366 196.814 16.3738 196.983 16.446C197.152 16.5182 197.305 16.6239 197.433 16.7569C197.56 16.8898 197.659 17.0472 197.723 17.2194C197.788 17.3917 197.817 17.5753 197.809 17.7591L197.224 31.3206C197.094 34.3809 196.338 37.3821 195.001 40.1386C194.039 42.1212 193.693 44.3464 194.009 46.5273L197.855 73.2428L184.27 75.5568Z" fill="#F9B499"/>
<path d="M319.592 170.418C319.592 170.418 297.552 193.143 287.329 194.827L265.789 179.943C265.789 179.943 288.205 173.608 302.006 150.629L319.592 170.418Z" fill="#F9B499"/>
<path d="M389.426 477.781V487.029L407.311 496.547V476.943L389.426 477.781Z" fill="#F9B499"/>
<path d="M367.34 508.333C367.34 508.333 370.286 496.278 385.641 495.44V489.343C385.641 489.343 386.171 483.193 391.933 484.846C392.876 485.126 393.767 485.557 394.572 486.122C397.187 487.862 399.622 489.858 401.841 492.08C401.841 492.08 406.049 487.16 409.203 496.455C410.438 500.333 411.351 504.305 411.934 508.333H367.34Z" fill="#A1EDE5"/>
<path d="M411.934 508.333H367.34V511.623H411.934V508.333Z" fill="#2F2E41"/>
<path d="M330.669 477.781V497.431L346.724 501.275V479.488L330.669 477.781Z" fill="#F9B499"/>
<path d="M307.953 508.333C307.953 508.333 309.653 497.57 326.115 495.263L326.662 488.482C326.707 487.912 326.874 487.359 327.15 486.858C327.427 486.358 327.808 485.923 328.267 485.581C328.726 485.24 329.252 485 329.811 484.879C330.37 484.757 330.949 484.757 331.508 484.877L333.562 485.315C335.075 485.64 336.451 486.426 337.499 487.565C338.547 488.703 339.217 490.139 339.416 491.673L339.993 496.14H350.301L353.04 508.363L307.953 508.333Z" fill="#A1EDE5"/>
<path d="M353.04 508.333H307.953V511.623H353.04V508.333Z" fill="#2F2E41"/>
<path d="M364.048 260.051C364.048 260.051 365.171 279.617 374.987 291.103L383.68 422.005L386.757 478.342C386.757 478.342 394.049 483.385 409.473 480.026C409.473 480.026 420.135 439.103 416.766 382.481C416.766 382.481 413.689 349.124 415.081 340.436C415.081 340.436 420.82 259.483 419.912 246.144C419.92 246.144 386.764 260.959 364.048 260.051Z" fill="#2F2E41"/>
<path opacity="0.2" d="M364.048 260.051C364.048 260.051 365.171 279.617 374.987 291.103L383.68 422.005L386.757 478.342C386.757 478.342 394.049 483.385 409.473 480.026C409.473 480.026 420.135 439.103 416.766 382.481C416.766 382.481 413.689 349.124 415.081 340.436C415.081 340.436 420.82 259.483 419.912 246.144C419.92 246.144 386.764 260.959 364.048 260.051Z" fill="black"/>
<path d="M366.309 364.707C366.232 363.982 366.258 363.249 366.386 362.531C366.956 356.22 370.033 325.445 376.879 319.679L374.987 291.103C374.987 291.103 365.755 280.578 364.048 260.051C364.048 260.051 352.201 260.151 346.178 257.291L337.716 322.216C337.716 322.216 334.908 346.325 335.193 360.901L327.054 478.065L347.216 485.107C347.216 485.107 353.67 480.341 360.117 434.367C360.117 434.367 368.571 376.085 366.309 364.707Z" fill="#2F2E41"/>
<path d="M294.976 148.484C294.976 148.484 317.492 173.186 320.431 173.601C320.431 173.601 326.531 167.927 328.008 171.502L337.054 252.018C337.054 252.018 353.732 271.852 402.157 254.624L432.159 241.508C432.159 241.508 425.235 165.198 424.797 155.527C424.797 155.527 425.143 152.075 428.343 152.367C429.365 152.479 430.393 152.517 431.42 152.482L438.059 152.159C438.059 152.159 441.844 147.546 442.475 136.783V117.687C442.475 117.687 411.519 96.0067 376.318 100.435C376.318 100.435 340.893 99.3971 321.538 121.261L294.976 148.484Z" fill="#A1EDE5"/>
<path d="M351.985 86.3506L352.616 104.64C352.616 104.64 346.308 111.998 359.139 113.151C359.139 113.151 370.478 114.511 377.248 108.669C378.101 107.944 378.73 106.992 379.063 105.924C379.509 104.386 379.394 102.418 376.386 101.273L373.863 83.5138L351.985 86.3506Z" fill="#F9B499"/>
<path d="M327.199 170.456L326.715 170.38C331.077 144.241 321.33 121.569 321.261 121.346L321.707 121.146C321.807 121.377 331.554 144.179 327.199 170.456Z" fill="#2F2E41"/>
<path d="M426.635 152.636C414.727 131.525 417.766 105.909 417.797 105.655L418.281 105.717C418.281 105.97 415.204 131.425 427.066 152.398L426.635 152.636Z" fill="#2F2E41"/>
<path d="M405.003 222.258L404.564 222.05C413.903 202.553 416.504 177.806 416.527 177.56L417.019 177.614C416.996 177.86 414.38 202.684 405.003 222.258Z" fill="#2F2E41"/>
<path d="M242.611 115.365C242.611 115.365 234.611 111.828 243.234 99.8276C243.234 99.8276 254.381 81.515 264.058 86.5582C264.058 86.5582 267.635 88.1727 267.635 91.5708C267.635 91.5708 277.928 86.7197 284.69 92.8393C285.787 93.8541 286.682 95.067 287.329 96.4141C289.267 100.373 294.006 111.851 290.021 123.037C288.788 126.535 288.402 130.275 288.897 133.951C289.392 137.626 290.753 141.132 292.867 144.179C294.942 147.133 297.417 149.785 300.221 152.059C301.378 153.123 302.347 154.373 303.091 155.757C303.558 156.683 303.775 157.715 303.719 158.75C303.663 159.786 303.337 160.788 302.773 161.658C302.209 162.529 301.427 163.236 300.504 163.71C299.581 164.184 298.55 164.408 297.514 164.36C295.413 164.24 293.353 163.735 291.436 162.868C291.436 162.868 298.168 168.965 293.121 172.963C293.121 172.963 289.752 176.953 279.867 168.757C279.867 168.757 279.028 180.289 269.982 176.538L256.935 166.443H254.835L237.372 158.033L234.403 155.296C234.57 154.523 234.956 153.815 235.516 153.256C236.075 152.697 236.784 152.311 237.557 152.144C237.557 152.144 228.087 152.982 227.041 149.622C227.041 149.622 221.356 143.018 231.034 135.938C231.034 135.938 226.249 135.407 223.641 133.308C223.237 132.972 222.909 132.555 222.677 132.083C222.445 131.612 222.315 131.097 222.296 130.572C222.276 130.047 222.367 129.523 222.563 129.036C222.759 128.549 223.056 128.108 223.433 127.742C224.78 126.42 227.364 124.882 232.295 124.075C232.318 124.083 237.78 123.56 242.611 115.365Z" fill="#2F2E41"/>
<path d="M184.824 87.3347L189.316 156.833C189.316 156.833 190.716 179.259 187.07 196.08L166.6 315.773C166.6 315.773 175.292 337.915 202.217 353.329C211.701 319.896 219.151 285.92 224.525 251.587C224.525 251.587 224.672 201.27 233.757 160.977C233.757 160.977 236.911 160.447 237.541 158.14L227.702 150.629L226.695 152.036C226.695 152.036 216.502 144.348 213.84 129.095L204.724 86.3506L184.824 87.3347Z" fill="#A1EDE5"/>
<path d="M178.516 75.8413L179.362 89.9947H206.986L202.64 69.5295L178.516 75.8413Z" fill="#A1EDE5"/>
<path opacity="0.2" d="M178.516 75.8413L179.362 89.9947H206.986L202.64 69.5295L178.516 75.8413Z" fill="black"/>
<path d="M270.559 179.943C270.559 179.943 284.952 188.239 290.56 194.966L321.477 223.834C321.477 223.834 333.746 234.251 323.654 246.129C323.654 246.129 312.43 257.86 308.784 260.036C305.137 262.212 296.476 243.438 296.476 243.438L299.122 241.201L282.736 230.83L303.507 339.583C303.507 339.583 284.575 282.4 268.936 271.752L267.32 219.09L270.559 179.943Z" fill="#A1EDE5"/>
<path d="M257.958 232.805L265.774 217.084C264.881 210.011 263.805 202.694 262.543 195.135C261.338 187.959 260.035 181.04 258.635 174.377C257.25 176.684 254.112 180.112 249.465 183.534C243.95 187.585 236.572 190.599 229.141 186.409C228.5 191.462 227.911 196.631 227.372 201.915C226.71 208.481 226.167 214.887 225.741 221.135C236.192 225.778 246.958 229.678 257.958 232.805Z" fill="#2F2E41"/>
<path d="M252.32 248.504L257.997 232.805C257.997 232.805 240.011 227.562 225.742 221.158L224.257 247.551L252.32 248.504Z" fill="#F9B499"/>
<path d="M255.434 477.781C255.434 477.781 245.126 417.238 237.134 398.741C237.134 398.741 228.51 376.446 227.902 370.15L248.726 366.368C248.726 366.368 271.443 415.77 267.45 483.67L265.558 487.452L255.434 477.781Z" fill="#F9B499"/>
<path d="M239.026 506.58C239.026 506.58 241.334 490.189 254.596 489.136C254.596 489.136 247.388 477.343 257.535 477.781C257.535 477.781 261.958 479.741 264.689 485.469C264.689 485.469 267.635 479.234 271.212 487.429C271.212 487.429 275.42 499.83 274.79 506.557L239.026 506.58Z" fill="#A1EDE5"/>
<path d="M274.851 506.58H239.026V511.623H274.851V506.58Z" fill="#2F2E41"/>
<path d="M285.897 361.563L306.552 351.022C306.552 351.022 343.092 400.871 355.116 462.874L349.177 468.532L342.169 462.643C342.169 462.643 318.214 404.984 302.644 387.102C300.97 385.172 299.448 383.116 298.09 380.952L285.897 361.563Z" fill="#F9B499"/>
<path d="M367.971 472.738L357.709 461.275C357.709 461.275 353.648 460.644 353.017 464.88C353.017 464.88 340.601 457.354 341.308 464.219C341.308 464.219 341.162 471.223 345.232 474.982C345.232 474.982 337.101 485.353 336.539 495.44C336.539 495.44 346.916 499.645 353.017 494.318C353.04 494.333 366.71 478.765 367.971 472.738Z" fill="#A1EDE5"/>
<path d="M336.115 497.716L336.562 495.409C336.562 495.409 345.677 500.176 353.039 494.287C353.039 494.287 364.578 482.094 367.971 472.707C367.971 472.707 371.048 473.691 370.64 477.75C370.64 477.75 359.139 495.694 352.27 499.476C352.27 499.476 348.385 502.182 338.462 500.906C338.094 500.86 337.739 500.739 337.42 500.551C337.1 500.364 336.822 500.113 336.603 499.815C336.383 499.516 336.227 499.176 336.143 498.815C336.059 498.454 336.05 498.08 336.115 497.716Z" fill="#2F2E41"/>
<path d="M265.774 217.084C265.774 217.084 268.705 244.314 268.413 256.008L256.366 254.631C256.366 254.631 255.228 254.685 254.966 255.239C254.966 255.239 252.597 251.356 252.281 248.504L257.958 232.805L265.774 217.084Z" fill="#A1EDE5"/>
<path opacity="0.2" d="M265.774 217.084C265.774 217.084 268.705 244.314 268.413 256.008L256.366 254.631C256.366 254.631 255.228 254.685 254.966 255.239C254.966 255.239 252.597 251.356 252.281 248.504L257.958 232.805L265.774 217.084Z" fill="white"/>
<path d="M442.436 117.671L452.328 120.193C452.328 120.193 468.529 97.8979 473.152 53.554L464.883 31.5204C464.727 31.099 464.726 30.636 464.879 30.2137C465.033 29.7914 465.331 29.4372 465.721 29.2141C466.14 28.9778 466.633 28.9083 467.1 29.0195C467.568 29.1307 467.977 29.4144 468.244 29.8137L474.399 39.0392L482.76 24.978C483.24 24.1724 483.907 23.4941 484.705 23.0003C485.502 22.5065 486.407 22.2117 487.342 22.1408C488.278 22.0699 489.216 22.2251 490.079 22.5931C490.942 22.9612 491.703 23.5313 492.299 24.2554L500.054 33.6808C500.976 34.8012 501.449 36.2248 501.379 37.6743C501.31 39.1238 500.703 40.4955 499.677 41.5224L485.137 56.0756C485.137 56.0756 483.668 119.562 470.414 136.176C470.414 136.176 465.921 143.933 440.928 145.832C440.928 145.832 442.466 140.796 442.466 132.386L442.436 117.671Z" fill="#F9B499"/>
<path d="M352.185 92.0474L351.978 87.3117L373.963 84.3672L374.356 86.9888C374.356 86.9888 367.532 95.2072 352.185 92.0474Z" fill="#F7A389"/>
<path d="M361.101 91.5707C372.64 91.5707 381.995 78.5737 381.995 62.5412C381.995 46.5086 372.64 33.5116 361.101 33.5116C349.562 33.5116 340.208 46.5086 340.208 62.5412C340.208 78.5737 349.562 91.5707 361.101 91.5707Z" fill="#F9B499"/>
<path d="M341.185 69.8139C343.896 69.8139 346.093 66.9915 346.093 63.5098C346.093 60.0282 343.896 57.2057 341.185 57.2057C338.475 57.2057 336.277 60.0282 336.277 63.5098C336.277 66.9915 338.475 69.8139 341.185 69.8139Z" fill="#F9B499"/>
<path d="M340.554 57.2519C339.996 57.3684 339.462 57.5817 338.977 57.8823C338.977 57.8823 327.023 37.7169 343.008 31.2744C343.008 31.2744 355.916 25.9467 365.448 26.7847C365.448 26.7847 364.309 22.2411 365.378 19.0967C365.504 18.7212 365.75 18.3971 366.077 18.1739C366.404 17.9508 366.796 17.8408 367.192 17.8608C367.588 17.8809 367.966 18.0298 368.269 18.2849C368.572 18.54 368.784 18.8872 368.871 19.2736C369.245 21.3084 369.227 23.3959 368.817 25.4239C368.817 25.4239 371.125 21.1494 374.463 20.5959C374.672 20.5635 374.884 20.5742 375.088 20.6272C375.292 20.6803 375.483 20.7746 375.648 20.9043C375.814 21.034 375.952 21.1964 376.052 21.3814C376.153 21.5664 376.214 21.77 376.233 21.9797C376.348 23.3635 375.81 25.6161 372.179 27.9455C372.179 27.9455 385.018 26.6847 385.649 39.931C385.649 39.931 386.01 47.3268 384.349 59.2892C384.349 59.2892 384.118 75.6414 379.094 77.3404C381.772 70.9994 382.653 64.0443 381.641 57.2365C380.82 57.0192 379.948 57.1324 379.21 57.5517C379.21 57.5517 377.494 54.5765 377.633 46.435C377.648 46.168 377.589 45.9021 377.463 45.6661C377.337 45.4302 377.149 45.2333 376.919 45.0969C376.689 44.9605 376.426 44.8899 376.158 44.8926C375.891 44.8954 375.629 44.9715 375.402 45.1127C374.729 45.5577 374.105 46.0731 373.54 46.6502C373.54 46.6502 363.863 55.9757 363.032 51.6628C363.032 51.6628 362.017 49.8407 365.755 45.005C365.83 44.9111 365.871 44.7945 365.871 44.6744C365.871 44.5543 365.83 44.4378 365.755 44.3439C365.378 43.8672 364.432 43.3982 362.463 45.9506C362.068 46.4731 361.639 46.9687 361.178 47.4344C358.632 49.9945 350.747 57.4287 348.724 53.5847C348.724 53.5847 346.785 51.163 350.539 44.0902C350.652 43.8856 350.697 43.6506 350.668 43.4188C350.639 43.187 350.538 42.9703 350.378 42.7997C350.219 42.6291 350.009 42.5133 349.78 42.4689C349.55 42.4245 349.313 42.4538 349.101 42.5526C347.905 43.2565 346.878 44.2145 346.093 45.3587C346.093 45.3587 341.131 52.0625 342.416 60.4962C342.416 60.4962 341.008 60.8498 340.554 57.2519Z" fill="#2F2E41"/>
<path d="M380.741 69.8139C383.451 69.8139 385.649 66.9915 385.649 63.5098C385.649 60.0282 383.451 57.2057 380.741 57.2057C378.03 57.2057 375.833 60.0282 375.833 63.5098C375.833 66.9915 378.03 69.8139 380.741 69.8139Z" fill="#F9B499"/>
<path opacity="0.2" d="M218.226 201.423L211.71 193.366C211.71 193.366 211.71 172.686 227.742 150.645L237.596 158.156C237.596 158.156 237.419 160.009 233.796 160.993L229.18 186.432C227.765 196.941 226.872 206.136 226.241 213.655C225.611 221.343 225.272 227.639 225.08 231.752C224.749 239.079 224.595 245.744 224.557 251.602C221.834 246.759 219.172 241.608 216.433 236.303C212.249 228.216 207.833 219.229 206.887 215.654L218.226 201.423Z" fill="black"/>
<path d="M268.689 217.107L276.259 211.856L269.951 176.538L256.935 166.443C256.935 166.443 267.458 211.225 268.297 248.85L268.927 271.768C268.927 271.768 275.235 244.23 280.705 232.875L268.689 217.107Z" fill="#A1EDE5"/>
<path opacity="0.2" d="M268.689 217.107L276.259 211.856L269.951 176.538L256.935 166.443C256.935 166.443 267.458 211.225 268.297 248.85L268.927 271.768C268.927 271.768 275.235 244.23 280.705 232.875L268.689 217.107Z" fill="black"/>
<path d="M312.052 260.051L298.029 265.879C298.029 265.879 291.298 258.521 289.336 249.55L298.152 241.216C298.152 241.216 304.483 256.469 312.052 260.051Z" fill="#A1EDE5"/>
<path opacity="0.2" d="M312.052 260.051L298.029 265.879C298.029 265.879 291.298 258.521 289.336 249.55L298.152 241.216C298.152 241.216 304.483 256.469 312.052 260.051Z" fill="black"/>
<path d="M245.127 145.832C245.127 145.832 237.704 160.908 233.726 160.908C232.873 164.706 232.096 168.719 231.342 172.801C230.48 177.491 229.747 182.029 229.142 186.417C231.79 187.821 234.752 188.53 237.75 188.477C243.035 188.231 250.273 185.402 258.081 175.223C258.081 175.223 254.504 172.732 254.381 168.404C254.377 168.065 254.393 167.726 254.427 167.389C254.643 164.936 255.681 154.466 257.958 149.415L245.127 145.832Z" fill="#F9B499"/>
<path d="M226.618 371.18L210.464 321.978C210.464 321.978 221.549 270.615 224.511 251.587L224.257 247.52L252.32 248.504C252.32 248.504 253.374 257.261 264.943 265.879C275.344 276.917 283.656 289.748 289.475 303.749C289.475 303.749 303.222 333.778 306.591 351.022C306.591 351.022 300.276 359.218 283.875 361.947C283.875 361.947 267.29 325.814 246.658 315.051C246.658 315.051 246.427 350.999 252.32 365.291C252.32 365.314 244.289 375.362 226.618 371.18Z" fill="#2F2E41"/>
<path d="M290.783 251.587L279.598 257.291L256.335 254.631C256.12 254.609 255.902 254.632 255.697 254.699C255.491 254.766 255.302 254.875 255.141 255.02C254.981 255.166 254.853 255.343 254.765 255.541C254.678 255.739 254.634 255.953 254.635 256.169C254.637 256.497 254.745 256.816 254.941 257.079C255.138 257.341 255.413 257.535 255.727 257.63L262.974 259.782L252.766 262.719C252.07 262.91 251.433 263.27 250.909 263.766C250.386 264.262 249.993 264.879 249.764 265.563C249.536 266.247 249.48 266.977 249.601 267.687C249.722 268.398 250.016 269.068 250.458 269.638L255.658 276.457C256.286 277.278 257.183 277.852 258.192 278.077C259.201 278.302 260.257 278.164 261.174 277.688L280.675 267.539L296.452 262.65C293.946 259.312 292.029 255.57 290.783 251.587Z" fill="#F9B499"/>
<path d="M242.611 150.629L245.127 145.832L258.081 150.629C258.081 150.629 253.858 155.68 242.611 150.629Z" fill="#F7A389"/>
<path d="M275.102 136.567C282.168 124.337 281.244 110.585 273.039 105.851C264.834 101.117 252.455 107.193 245.39 119.423C238.324 131.653 239.248 145.405 247.453 150.139C255.658 154.873 268.037 148.797 275.102 136.567Z" fill="#F9B499"/>
<path d="M246.334 125.552C247.381 122.907 246.563 120.102 244.505 119.288C242.446 118.474 239.929 119.958 238.881 122.603C237.833 125.248 238.652 128.052 240.71 128.866C242.768 129.681 245.286 128.197 246.334 125.552Z" fill="#F9B499"/>
<path d="M279.98 137.415C281.028 134.77 280.209 131.966 278.151 131.152C276.093 130.337 273.575 131.821 272.527 134.466C271.479 137.111 272.298 139.916 274.356 140.73C276.414 141.544 278.932 140.06 279.98 137.415Z" fill="#F9B499"/>
<path d="M263.797 104.556C263.797 104.556 257.966 122.515 251.127 111.898C251.127 111.898 246.865 117.141 242.95 115.519C242.626 115.377 242.318 115.199 242.034 114.988C240.534 113.889 236.826 110.375 240.449 104.556C240.449 104.556 252.912 80.4617 264.058 86.5582C265.019 87.0384 265.847 87.7463 266.47 88.6201C267.094 89.4938 267.494 90.5069 267.635 91.5707C267.635 91.5707 281.774 85.2436 287.329 96.4141L281.097 124.091C281.097 124.091 273.943 127.981 273.736 115.58C273.736 115.572 265.628 130.118 263.797 104.556Z" fill="#2F2E41"/>
<path d="M269.393 126.685C264.991 122.43 260.914 123.246 260.914 123.246C262.219 121.202 264.743 119.811 269.393 126.685Z" fill="#1F0F0A"/>
<path d="M262.013 133.274C262.688 133.274 263.236 132.386 263.236 131.289C263.236 130.193 262.688 129.305 262.013 129.305C261.337 129.305 260.789 130.193 260.789 131.289C260.789 132.386 261.337 133.274 262.013 133.274Z" fill="#1F0F0A"/>
<path d="M251.045 128.136C251.045 129.23 250.498 130.121 249.821 130.121C249.145 130.121 248.598 129.23 248.598 128.136C248.598 127.041 249.145 126.151 249.821 126.151C250.498 126.155 251.045 127.041 251.045 128.136Z" fill="#1F0F0A"/>
<path d="M248.764 139.277C248.727 139.277 248.69 139.27 248.653 139.251C247.966 138.928 246.114 137.329 245.142 135.671C244.957 135.359 244.953 134.985 245.127 134.665C245.308 134.335 245.659 134.124 246.04 134.113C250.114 133.998 253.071 130.551 253.071 125.914C253.071 125.769 253.189 125.65 253.333 125.65C253.477 125.65 253.596 125.769 253.596 125.914C253.596 130.766 250.354 134.513 246.055 134.636C245.855 134.643 245.678 134.747 245.585 134.918C245.5 135.074 245.504 135.248 245.593 135.404C246.498 136.947 248.258 138.483 248.875 138.772C249.005 138.832 249.064 138.988 249.001 139.121C248.957 139.221 248.861 139.277 248.764 139.277Z" fill="#1F0F0A"/>
<path d="M254.361 145.948C252.14 145.948 250.11 145.083 248.672 143.826C248.565 143.729 248.554 143.566 248.647 143.455C248.743 143.343 248.905 143.336 249.016 143.429C251.367 145.484 255.407 146.423 259.137 143.9C259.255 143.818 259.418 143.851 259.499 143.97C259.58 144.089 259.547 144.252 259.429 144.334C257.747 145.473 256.002 145.948 254.361 145.948Z" fill="#1F0F0A"/>
<path d="M247.135 120.382C251.131 119.644 252.923 121.447 252.923 121.447C252.106 118.256 250.07 118.501 247.135 120.382Z" fill="#1F0F0A"/>
<path d="M367.693 67.9348C367.794 69.1795 367.334 70.23 366.661 70.2813C365.993 70.3348 365.366 69.3711 365.265 68.1265C365.164 66.8819 365.625 65.8313 366.298 65.78C366.966 65.7265 367.593 66.6902 367.693 67.9348Z" fill="#1F0F0A"/>
<path d="M351.241 67.429C351.342 68.6736 350.882 69.7241 350.209 69.7755C349.541 69.829 348.914 68.8653 348.813 67.6206C348.712 66.376 349.172 65.3255 349.845 65.2741C350.514 65.2206 351.137 66.1857 351.241 67.429Z" fill="#1F0F0A"/>
<path d="M357.023 80.1175C356.978 80.1346 356.93 80.1414 356.879 80.1331C352.329 79.4573 349.733 76.6616 349.806 75.6126C349.845 75.0615 350.468 74.882 351.418 74.6133C352.396 74.334 353.733 73.9488 355.213 73.028C357.706 71.4765 358.145 67.5299 356.412 62.2025C356.362 62.0509 356.459 61.8824 356.597 61.8377C356.748 61.7877 356.911 61.8722 356.961 62.0239C358.784 67.6267 358.26 71.8165 355.519 73.5183C353.969 74.4821 352.531 74.8939 351.579 75.1674C351.051 75.3182 350.395 75.5062 350.384 75.6534C350.35 76.1432 352.46 78.8905 356.964 79.5601C357.123 79.5825 357.232 79.7316 357.208 79.8876C357.188 79.9988 357.117 80.0817 357.023 80.1175Z" fill="#1F0F0A"/>
<path d="M363.176 86.3812C361.284 87.1061 355.728 88.1546 353.285 85.1141C353.185 84.9893 353.203 84.8078 353.327 84.7085C353.451 84.6092 353.634 84.6307 353.732 84.7521C356.253 87.8902 362.673 86.1962 363.388 85.6442C363.514 85.5484 363.696 85.5699 363.792 85.696C363.888 85.8222 363.867 86.005 363.741 86.1008C363.644 86.1778 363.448 86.2767 363.176 86.3812Z" fill="#1F0F0A"/>
<path d="M372.749 62.6595C370.293 60.1126 366.454 60.1656 365.66 60.275C369.272 56.4355 371.479 58.6727 372.749 62.6595Z" fill="#1F0F0A"/>
<path d="M367.629 58.3564C366.627 58.6767 365.66 60.275 365.66 60.275C365.257 58.7171 366.527 58.1669 367.629 58.3564Z" fill="#1F0F0A"/>
<path d="M345.687 61.0025C348.663 58.8292 351.815 59.7426 351.815 59.7426C349.607 56.3139 347.176 57.7817 345.687 61.0025Z" fill="#1F0F0A"/>
<path d="M350.209 57.7083C351.203 58.2254 351.819 59.7412 351.819 59.7412C352.064 58.0661 351.345 57.583 350.209 57.7083Z" fill="#1F0F0A"/>
</svg>
