<svg width="587" height="534" viewBox="0 0 587 534" fill="none" xmlns="http://www.w3.org/2000/svg">
<path d="M175.852 137.271C175.748 137.271 172.679 136.636 166.738 135.381C166.596 135.352 166.506 135.212 166.536 135.069C166.566 134.926 166.706 134.836 166.849 134.866C170.346 135.605 175.638 136.714 175.882 136.746C176.028 136.746 176.132 136.863 176.132 137.009C176.129 137.152 175.998 137.271 175.852 137.271Z" fill="#1F0F0A"/>
<path d="M134.35 108.687C131.906 106.815 132.338 103.218 132.338 103.218C130.183 106.24 130.9 108.401 133.776 109.408C129.32 112.719 127.739 117.469 128.745 124.519C129.751 131.57 132.195 139.199 132.195 139.199L152.607 142.51L168.995 122.937C171.007 119.051 170.864 114.59 170.864 114.59C171.438 116.604 173.882 115.308 173.739 110.272C173.596 105.236 166.983 105.09 160.372 104.515C153.759 103.939 150.166 100.629 144.13 101.636C138.088 102.64 134.639 104.655 134.35 108.687Z" fill="#1F0F0A"/>
<path d="M169.95 152.963C167.938 158.241 163.53 158.241 160.56 158.721L160.214 166.239L139.189 162.559C139.189 162.559 139.478 152.868 136.793 143.562C134.013 146.92 126.73 144.041 126.924 137.42C127.114 130.798 133.728 129.839 136.603 134.541C139.478 135.405 139.862 132.717 139.862 132.717C142.163 134.061 143.981 132.717 143.502 128.688C143.023 124.659 145.993 116.119 142.639 116.214C143.886 115.544 145.324 114.966 145.993 114.2C146.663 113.431 146.856 109.691 146.856 109.691C150.017 113.434 160.943 114.775 161.902 113.625C162.86 112.474 162.67 110.937 162.67 110.937C164.777 112.471 168.42 115.925 169.283 119.954C170.146 123.983 169.572 133.388 169.572 136.842C169.566 140.299 171.292 148.839 169.95 152.963Z" fill="#FF8F6E"/>
<path d="M160.336 514.783C156.134 525.475 157.36 534.418 157.36 534.418H223.367C220.914 527.231 206.032 517.766 192.901 515.835C179.769 513.907 176.968 507.071 176.968 507.071L160.336 514.783Z" fill="#E68164"/>
<path d="M159.577 516.866C160.306 517.65 161.271 518.773 162.503 520.371H184.76C184.76 520.371 183.989 516.723 186.498 514.288C188.296 514.926 190.412 515.469 192.9 515.835C206.032 517.763 220.914 527.231 223.366 534.418H157.36C157.36 534.415 156.291 526.611 159.577 516.866Z" fill="#000724"/>
<path d="M141.011 288.422C135.665 325.881 154.848 520.392 154.848 520.392L186.115 514.238L185.314 508.352L180.772 505.143L182.644 502.467L181.576 296.623L141.011 288.422Z" fill="#000724"/>
<path d="M123.043 514.783C118.84 525.475 120.066 534.418 120.066 534.418H186.073C183.621 527.231 168.739 517.766 155.607 515.835C142.475 513.907 139.675 507.071 139.675 507.071L123.043 514.783Z" fill="#FF8F6E"/>
<path d="M122.284 516.866C123.013 517.65 123.977 518.773 125.209 520.371H147.467C147.467 520.371 146.696 516.723 149.205 514.288C151.003 514.926 153.119 515.469 155.607 515.835C168.739 517.763 183.62 527.231 186.073 534.418H120.066C120.066 534.415 118.998 526.611 122.284 516.866Z" fill="#000F4E"/>
<path d="M123.373 530.953H170.778C170.912 530.953 171.025 530.851 171.04 530.72C171.055 530.586 170.968 530.464 170.84 530.434C170.665 530.392 153.226 526.259 149.583 521.586C149.494 521.473 149.33 521.452 149.214 521.542C149.101 521.631 149.08 521.795 149.169 521.911C152.193 525.788 163.843 529.168 168.653 530.428H123.373C123.227 530.428 123.111 530.544 123.111 530.69C123.108 530.836 123.227 530.953 123.373 530.953Z" fill="#2F4394"/>
<path d="M154.036 520.633C154.042 520.633 154.048 520.633 154.054 520.633C154.199 520.624 154.307 520.499 154.298 520.353C154.295 520.314 154.086 516.512 156.962 515.287C157.095 515.23 157.158 515.075 157.101 514.941C157.045 514.807 156.89 514.744 156.756 514.801C153.536 516.172 153.771 520.344 153.774 520.386C153.783 520.526 153.896 520.633 154.036 520.633Z" fill="#2F4394"/>
<path d="M159.551 522.275C159.557 522.275 159.563 522.275 159.569 522.275C159.715 522.266 159.822 522.141 159.813 521.995C159.81 521.956 159.602 518.154 162.477 516.929C162.611 516.872 162.673 516.717 162.617 516.583C162.56 516.449 162.405 516.386 162.271 516.443C159.051 517.814 159.286 521.986 159.289 522.027C159.298 522.171 159.411 522.275 159.551 522.275Z" fill="#2F4394"/>
<path d="M164.081 523.92C164.087 523.92 164.093 523.92 164.099 523.92C164.244 523.911 164.352 523.786 164.343 523.64C164.34 523.601 164.131 519.798 167.006 518.574C167.14 518.517 167.203 518.362 167.146 518.228C167.09 518.094 166.935 518.031 166.801 518.088C163.581 519.459 163.816 523.631 163.819 523.672C163.828 523.812 163.944 523.92 164.081 523.92Z" fill="#2F4394"/>
<path d="M118.504 291.536C113.158 328.995 116.899 520.392 116.899 520.392L148.166 514.238L147.365 508.352L142.823 505.143L144.693 502.467L162.33 323.646C162.33 323.646 166.608 325.252 166.608 322.04C166.608 318.83 166.072 291.003 166.072 291.003L118.504 291.536Z" fill="#000F4E"/>
<path d="M119.974 174.977L132.606 170.545C134.784 169.783 136.207 167.679 136.109 165.369C135.996 162.717 138.558 160.762 141.082 161.579L142.065 161.898C146.776 163.423 154.571 163.721 159.387 162.559L159.738 162.476C161.857 161.963 163.974 163.337 164.372 165.485C164.587 166.636 165.265 167.646 166.247 168.281C174.421 172.712 181.326 179.173 186.278 187.052C186.585 187.537 186.883 188.011 187.174 188.467L203.083 213.279L209.765 178.228H219.25L224.328 196.555L219.786 239.097L215.244 247.987C211.732 254.859 202.476 256.161 197.208 250.523L181.037 233.212L183.174 299.031C160.458 305.453 139.347 298.495 139.347 298.495L140.386 307.84L119.025 308.63L103.946 259.886C101.399 250.892 100.419 241.532 101.056 232.205C102.015 218.127 104.184 197.449 108.962 185.487C110.935 180.549 114.968 176.735 119.974 174.977Z" fill="#A1EDE5"/>
<path d="M276.254 269.359C276.254 269.359 275.554 261.82 273.977 257.788C272.402 253.756 266.973 252.528 256.994 252.528H230.132C228.099 252.528 227.09 255.005 228.552 256.423C229.671 257.508 231.793 258.444 235.281 258.84C242.984 259.716 253.49 257.964 256.642 261.996C259.794 266.028 262.071 273.74 262.071 273.74L278.531 271.284L276.254 269.359Z" fill="#FF8F6E"/>
<path d="M331.057 156.379L316.699 142.617L316.172 156.817L329.655 169.261L332.807 166.633L331.057 156.379Z" fill="#FF8F6E"/>
<path d="M408.969 395.226L420.526 509.172C409.32 518.988 404.769 529.156 404.769 529.156C404.769 529.156 394.876 532.136 395.141 534.24C395.141 534.24 415.157 534.24 416.678 534.24C421.931 531.346 433.197 519.703 432.566 522.537C432.304 523.72 432.042 534.502 432.042 534.502H436.899C438.343 530.294 443.334 518.329 442.022 512.414C440.709 506.499 438.87 507.813 438.215 505.05C437.56 502.288 441.891 461.837 443.644 433.089C445.394 404.341 441.894 392.418 441.894 392.418L408.969 395.226Z" fill="#E68164"/>
<path d="M395.138 534.24C395.138 534.24 415.154 534.24 416.675 534.24C421.928 531.346 433.194 519.703 432.563 522.537C432.301 523.72 432.039 534.502 432.039 534.502H436.896C438.34 530.294 443.331 518.329 442.019 512.414C441.191 508.686 440.155 507.828 439.337 507.014C426.598 514.306 413.118 533.098 404.766 529.156C404.766 529.156 394.876 532.136 395.138 534.24Z" fill="#000724"/>
<path d="M441.01 395.226L452.567 509.172C441.361 518.988 436.81 529.156 436.81 529.156C436.81 529.156 426.917 532.136 427.181 534.24C427.181 534.24 447.197 534.24 448.718 534.24C453.972 531.346 465.237 519.703 464.606 522.537C464.344 523.72 464.082 534.502 464.082 534.502H468.94C470.383 530.294 475.375 518.329 474.062 512.414C472.75 506.499 470.91 507.813 470.255 505.05C469.598 502.288 473.931 461.837 475.684 433.089C477.434 404.341 473.934 392.418 473.934 392.418L441.01 395.226Z" fill="#FF8F6E"/>
<path d="M427.178 534.24C427.178 534.24 447.194 534.24 448.715 534.24C453.969 531.346 465.234 519.703 464.603 522.537C464.341 523.72 464.079 534.502 464.079 534.502H468.937C470.38 530.294 475.372 518.329 474.059 512.414C473.232 508.686 472.196 507.828 471.377 507.014C458.639 514.306 445.159 533.098 436.807 529.156C436.81 529.156 426.917 532.136 427.178 534.24Z" fill="#000F4E"/>
<path d="M448.189 217.12H472.351C483.381 201.344 478.393 179.256 468.675 164.267C458.957 149.277 462.636 148.225 463.948 132.711C465.261 117.197 457.644 115.618 445.301 109.834C430.33 102.208 415.624 109.309 413.261 121.14C410.898 132.974 413.785 136.654 407.746 153.22C401.704 169.786 401.442 188.193 401.442 188.193C401.442 188.193 424.029 210.808 424.815 211.595C425.604 212.388 448.189 217.12 448.189 217.12Z" fill="#1F0F0A"/>
<path d="M404.329 245.913C370.449 298.635 368.875 400.134 368.875 400.134C368.875 400.134 481.545 401.975 483.381 400.134C488.635 342.283 458.169 244.992 458.169 244.992L416.672 238.68L404.329 245.913Z" fill="#000F4E"/>
<path d="M458.3 164.267C464.821 168.912 464.871 173.064 464.821 191C464.734 222.904 463.684 274.971 463.684 274.971H445.695L444.382 245.916H404.332C402.758 231.322 395.403 217.123 394.876 213.967C394.35 210.811 397.502 201.871 398.028 200.557L367.729 209.828C363.113 211.24 358.095 209.953 354.725 206.487L321.078 171.895L331.057 156.381L363.098 182.415C377.804 178.469 401.442 164.273 407.571 166.639L410.898 171.636L429.807 173.213L445.829 172.161L458.3 164.267Z" fill="#4E3FE9"/>
<path d="M407.57 166.633C406.871 171.892 409.672 181.533 425.08 182.585C440.489 183.637 447.733 176.163 458.302 164.267C454.954 162.821 448.54 165.208 442.763 167.509C436.986 169.809 440.551 151.84 443.114 147.963C447.382 150.132 450.882 146.056 453.115 141.389C453.115 141.389 449.504 141.127 447.072 139.747L445.037 142.048C445.037 142.048 445.694 140.009 445.43 138.761C436.304 135.605 429.542 122.588 434.072 113.386C426.128 116.059 421.75 120.443 419.824 124.475C417.898 128.507 417.371 132.101 416.586 135.432C415.797 138.764 414.309 146.124 415.711 151.998C417.112 157.872 421.312 160.062 424.378 159.8C424.291 164.797 422.782 170.915 419.125 170.843C414.66 170.751 407.57 166.633 407.57 166.633Z" fill="#FF8F6E"/>
<path d="M388.034 216.64C392.677 219.4 390.067 228.554 385.566 234.657C381.069 240.76 369.458 246.571 369.458 246.571L350.303 217.367C349.722 210.248 358.139 200.512 360.169 201.096C359.735 197.899 361.765 194.704 364.086 194.704C366.408 194.704 366.988 199.064 373.229 202.84C379.471 206.615 389.629 208.648 388.034 216.64Z" fill="#1F0F0A"/>
<path d="M439.501 406.853H363.622L371.676 294.954H456.418L439.501 406.853Z" fill="#F0A355"/>
<path d="M371.327 258.491L377.631 264.1L395.382 269.526C398.683 270.536 401.403 272.9 402.865 276.032L432.28 339.082C435.512 346.008 433.325 354.259 427.086 358.667C422.678 361.784 416.982 362.425 411.99 360.371L398.296 354.73L397.597 368.754L323.884 366.475L325.286 322.823L307.788 338.325C304.333 341.061 299.865 342.17 295.531 341.368C290.885 340.507 286.9 337.542 284.736 333.337L254.63 271.418L278.355 269.008L298.49 302.84L326.304 268.48C327.682 266.779 329.596 265.601 331.736 265.14L344.716 262.344L353.996 258.837L371.327 258.491Z" fill="#A1EDE5"/>
<path d="M259.226 281.017L283.653 277.861L278.355 269.008L254.63 271.418L259.226 281.017Z" fill="white"/>
<path d="M220.158 424.325H182.406V534.415H220.158V424.325Z" fill="#2A345E"/>
<path d="M220.161 534.417H256.118V424.326H220.161V534.417Z" fill="#3E4D8C"/>
<path d="M431.313 397.228L446.805 303.149C447.201 298.227 451.505 294.558 456.419 294.952C461.335 295.348 464.999 299.657 464.606 304.577L449.115 398.656C448.719 403.578 444.415 407.247 439.501 406.853C434.584 406.46 430.917 402.151 431.313 397.228Z" fill="#FFD35A"/>
<path d="M389.885 426.08H334.909C329.977 426.08 325.979 422.078 325.979 417.14C325.979 412.203 329.977 408.2 334.909 408.2H389.885C394.817 408.2 398.814 412.203 398.814 417.14C398.814 422.075 394.817 426.08 389.885 426.08Z" fill="#F0A355"/>
<path d="M255.943 514.783C260.146 525.475 258.919 534.418 258.919 534.418H192.913C195.365 527.231 210.247 517.766 223.379 515.835C236.51 513.907 239.311 507.071 239.311 507.071L255.943 514.783Z" fill="#E68164"/>
<path d="M256.702 516.866C255.973 517.65 255.008 518.773 253.776 520.371H231.519C231.519 520.371 232.29 516.723 229.781 514.288C227.983 514.926 225.867 515.469 223.379 515.835C210.247 517.763 195.365 527.231 192.913 534.418H258.919C258.919 534.415 259.988 526.611 256.702 516.866Z" fill="#000724"/>
<path d="M255.615 530.953H208.211C208.077 530.953 207.964 530.851 207.949 530.72C207.934 530.586 208.02 530.464 208.148 530.434C208.324 530.392 225.762 526.259 229.405 521.586C229.495 521.473 229.658 521.452 229.775 521.542C229.888 521.631 229.909 521.795 229.819 521.911C226.795 525.788 215.146 529.168 210.336 530.428H255.612C255.758 530.428 255.874 530.544 255.874 530.69C255.877 530.836 255.761 530.953 255.615 530.953Z" fill="#152B8A"/>
<path d="M224.953 520.633C224.947 520.633 224.941 520.633 224.935 520.633C224.789 520.624 224.682 520.499 224.691 520.353C224.694 520.314 224.903 516.512 222.027 515.287C221.893 515.23 221.831 515.075 221.888 514.941C221.944 514.807 222.099 514.744 222.233 514.801C225.453 516.172 225.218 520.344 225.215 520.386C225.206 520.526 225.09 520.633 224.953 520.633Z" fill="#152B8A"/>
<path d="M219.438 522.275C219.432 522.275 219.426 522.275 219.42 522.275C219.274 522.266 219.167 522.141 219.176 521.995C219.179 521.956 219.387 518.154 216.512 516.929C216.378 516.872 216.316 516.717 216.372 516.583C216.429 516.449 216.584 516.386 216.718 516.443C219.938 517.814 219.703 521.986 219.7 522.027C219.691 522.171 219.575 522.275 219.438 522.275Z" fill="#152B8A"/>
<path d="M214.908 523.92C214.902 523.92 214.896 523.92 214.89 523.92C214.744 523.911 214.637 523.786 214.646 523.64C214.649 523.601 214.857 519.798 211.982 518.574C211.848 518.517 211.786 518.362 211.842 518.228C211.899 518.094 212.053 518.031 212.187 518.088C215.408 519.459 215.173 523.631 215.17 523.672C215.161 523.812 215.045 523.92 214.908 523.92Z" fill="#152B8A"/>
<path d="M343.487 369.633C344.186 390.317 336.834 405.745 326.679 408.2C316.524 410.656 268.2 408.2 268.2 408.2L260.146 517.239L225.477 509.526L231.614 389.406C232.102 379.834 239.874 372.253 249.443 372.011L343.487 369.633Z" fill="#000724"/>
<path d="M267.893 408.025C267.881 408.025 267.866 408.025 267.854 408.022L261.682 407.101C261.539 407.08 261.44 406.946 261.461 406.803C261.482 406.66 261.619 406.564 261.759 406.582L267.521 407.441L265.67 401.263C265.628 401.123 265.706 400.977 265.845 400.935C265.985 400.894 266.131 400.971 266.173 401.111L268.143 407.685C268.17 407.771 268.149 407.864 268.09 407.932C268.042 407.992 267.971 408.025 267.893 408.025Z" fill="#152B8A"/>
<path d="M308.997 514.783C313.199 525.475 311.973 534.418 311.973 534.418H245.963C248.416 527.231 263.298 517.766 276.429 515.835C289.561 513.907 292.362 507.071 292.362 507.071L308.997 514.783Z" fill="#FF8F6E"/>
<path d="M309.756 516.866C309.026 517.65 308.062 518.773 306.83 520.371H284.57C284.57 520.371 285.341 516.723 282.832 514.288C281.034 514.926 278.918 515.469 276.429 515.835C263.298 517.763 248.416 527.231 245.963 534.418H311.97C311.973 534.415 313.042 526.611 309.756 516.866Z" fill="#000F4E"/>
<path d="M308.666 530.953H261.262C261.128 530.953 261.015 530.851 261 530.72C260.985 530.586 261.071 530.464 261.199 530.434C261.375 530.392 278.813 526.259 282.456 521.586C282.546 521.473 282.709 521.452 282.825 521.542C282.938 521.631 282.959 521.795 282.87 521.911C279.846 525.788 268.197 529.168 263.387 530.428H308.663C308.809 530.428 308.925 530.544 308.925 530.69C308.931 530.836 308.812 530.953 308.666 530.953Z" fill="#2F4394"/>
<path d="M278.004 520.633C277.998 520.633 277.992 520.633 277.986 520.633C277.84 520.624 277.733 520.499 277.742 520.353C277.745 520.314 277.953 516.512 275.078 515.287C274.944 515.23 274.882 515.075 274.938 514.941C274.995 514.807 275.15 514.744 275.284 514.801C278.504 516.172 278.269 520.344 278.266 520.386C278.257 520.526 278.144 520.633 278.004 520.633Z" fill="#2F4394"/>
<path d="M272.489 522.275C272.483 522.275 272.477 522.275 272.471 522.275C272.325 522.266 272.218 522.141 272.227 521.995C272.23 521.956 272.438 518.154 269.563 516.929C269.429 516.872 269.367 516.717 269.423 516.583C269.48 516.449 269.634 516.386 269.768 516.443C272.989 517.814 272.754 521.986 272.751 522.027C272.742 522.171 272.629 522.275 272.489 522.275Z" fill="#2F4394"/>
<path d="M267.959 523.92C267.953 523.92 267.947 523.92 267.941 523.92C267.795 523.911 267.688 523.786 267.697 523.64C267.7 523.601 267.908 519.798 265.033 518.574C264.899 518.517 264.836 518.362 264.893 518.228C264.949 518.094 265.104 518.031 265.238 518.088C268.459 519.459 268.223 523.631 268.22 523.672C268.212 523.812 268.095 523.92 267.959 523.92Z" fill="#2F4394"/>
<path d="M396.54 369.633C397.239 390.317 389.888 405.745 379.732 408.2C369.577 410.656 321.253 408.2 321.253 408.2L313.199 517.239L278.53 509.526L284.668 389.406C285.156 379.834 292.927 372.253 302.496 372.011L396.54 369.633Z" fill="#000F4E"/>
<path d="M285.337 344.39H207.291C206.023 344.39 204.994 343.359 204.994 342.089V291.644C204.994 290.374 206.023 289.343 207.291 289.343H285.337C286.605 289.343 287.635 290.374 287.635 291.644V342.086C287.635 343.359 286.605 344.39 285.337 344.39Z" fill="#4B5EAB"/>
<path d="M281.135 344.39H203.089C201.821 344.39 200.791 343.359 200.791 342.089V291.644C200.791 290.374 201.821 289.343 203.089 289.343H281.135C282.403 289.343 283.433 290.374 283.433 291.644V342.086C283.433 343.359 282.403 344.39 281.135 344.39Z" fill="#3E4D8C"/>
<path d="M250.582 339.786H235.742V362.136H250.582V339.786Z" fill="#4B5EAB"/>
<path d="M249.532 339.786H234.692V362.136H249.532V339.786Z" fill="#3B4A87"/>
<path d="M265.268 365.294H232.438V361.349H261.327C263.503 361.349 265.268 363.116 265.268 365.294Z" fill="#3E4D8C"/>
<path d="M479.42 372.524H162.381C160.387 372.524 158.771 370.906 158.771 368.909C158.771 366.913 160.387 365.294 162.381 365.294H479.42C481.414 365.294 483.03 366.913 483.03 368.909C483.033 370.906 481.414 372.524 479.42 372.524Z" fill="#3E4D8C"/>
<path d="M210.247 337.288C210.247 338.016 209.657 338.603 208.934 338.603C208.208 338.603 207.622 338.013 207.622 337.288C207.622 336.561 208.211 335.974 208.934 335.974C209.657 335.974 210.247 336.564 210.247 337.288Z" fill="#4B5EAB"/>
<path d="M216.024 337.288C216.024 338.016 215.435 338.603 214.712 338.603C213.988 338.603 213.399 338.013 213.399 337.288C213.399 336.561 213.988 335.974 214.712 335.974C215.435 335.974 216.024 336.564 216.024 337.288Z" fill="#4B5EAB"/>
<path d="M221.801 337.288C221.801 338.016 221.212 338.603 220.488 338.603C219.765 338.603 219.176 338.013 219.176 337.288C219.176 336.561 219.765 335.974 220.488 335.974C221.212 335.974 221.801 336.564 221.801 337.288Z" fill="#4B5EAB"/>
<path d="M219.176 331.504C219.176 332.231 218.587 332.818 217.863 332.818C217.137 332.818 216.551 332.228 216.551 331.504C216.551 330.777 217.14 330.19 217.863 330.19C218.587 330.19 219.176 330.777 219.176 331.504Z" fill="#4B5EAB"/>
<path d="M213.399 331.504C213.399 332.231 212.81 332.818 212.087 332.818C211.36 332.818 210.774 332.228 210.774 331.504C210.774 330.777 211.363 330.19 212.087 330.19C212.81 330.19 213.399 330.777 213.399 331.504Z" fill="#4B5EAB"/>
<path d="M320.944 408.025C320.932 408.025 320.917 408.025 320.905 408.022L314.732 407.101C314.589 407.08 314.491 406.946 314.512 406.803C314.532 406.66 314.669 406.564 314.809 406.582L320.571 407.441L318.72 401.263C318.678 401.123 318.756 400.977 318.896 400.935C319.036 400.894 319.182 400.971 319.223 401.111L321.194 407.685C321.22 407.771 321.199 407.864 321.14 407.932C321.092 407.992 321.021 408.025 320.944 408.025Z" fill="#2F4394"/>
<path d="M437.685 426.08H382.709C377.777 426.08 373.78 422.078 373.78 417.14C373.78 412.203 377.777 408.2 382.709 408.2H437.685C442.617 408.2 446.614 412.203 446.614 417.14C446.614 422.075 442.617 426.08 437.685 426.08Z" fill="#FFD35A"/>
<path d="M391.474 495.69C366.571 495.69 343.123 504.946 326.753 520.865L333.129 526.727C347.811 512.34 368.97 503.963 391.474 503.963C413.163 503.963 433.825 511.863 448.454 525.434L454.341 519.131C438.06 504.303 415.312 495.69 391.474 495.69Z" fill="#4B5EAB"/>
<path d="M393.477 430.455H384.468V524.391H393.477V430.455Z" fill="#4B5EAB"/>
<path d="M396.62 519.504H381.322V534.415H396.62V519.504Z" fill="#000F4E"/>
<path d="M388.971 526.647C383.009 526.647 378.176 521.807 378.176 515.838V512.548H399.763V515.838C399.766 521.807 394.933 526.647 388.971 526.647Z" fill="#3E4D8C"/>
<path d="M336.411 531.228C340.321 527.313 340.321 520.966 336.411 517.051C332.501 513.136 326.161 513.136 322.251 517.051C318.341 520.966 318.341 527.313 322.251 531.228C326.161 535.143 332.501 535.143 336.411 531.228Z" fill="#000F4E"/>
<path d="M329.337 529.749C326.247 529.749 323.735 527.234 323.735 524.14C323.735 521.047 326.247 518.532 329.337 518.532C329.545 518.532 329.712 518.699 329.712 518.907C329.712 519.116 329.545 519.283 329.337 519.283C326.664 519.283 324.488 521.461 324.488 524.137C324.488 526.813 326.664 528.992 329.337 528.992C332.01 528.992 334.185 526.813 334.185 524.137C334.185 523.929 334.352 523.762 334.56 523.762C334.769 523.762 334.935 523.929 334.935 524.137C334.938 527.234 332.426 529.749 329.337 529.749Z" fill="#4B5EAB"/>
<path d="M459.973 526.492C461.244 521.103 457.911 515.704 452.53 514.432C447.148 513.16 441.756 516.496 440.485 521.884C439.214 527.272 442.547 532.672 447.928 533.944C453.31 535.216 458.702 531.88 459.973 526.492Z" fill="#000724"/>
<path d="M450.233 529.749C447.144 529.749 444.632 527.234 444.632 524.14C444.632 521.047 447.144 518.532 450.233 518.532C450.442 518.532 450.608 518.699 450.608 518.907C450.608 519.116 450.442 519.283 450.233 519.283C447.561 519.283 445.385 521.461 445.385 524.137C445.385 526.813 447.561 528.992 450.233 528.992C452.906 528.992 455.082 526.813 455.082 524.137C455.082 523.929 455.248 523.762 455.457 523.762C455.665 523.762 455.832 523.929 455.832 524.137C455.835 527.234 453.323 529.749 450.233 529.749Z" fill="#4B5EAB"/>
<path d="M404.302 439.854H373.64C365.898 439.854 359.624 433.572 359.624 425.821H418.321C418.321 433.569 412.044 439.854 404.302 439.854Z" fill="#3E4D8C"/>
<path d="M206.571 433.092H187.136V472.36H206.571V433.092Z" fill="#3E4D8C"/>
<path d="M216.935 495.831C218.358 489.801 214.628 483.758 208.605 482.334C202.582 480.91 196.546 484.644 195.124 490.675C193.702 496.705 197.431 502.748 203.454 504.172C209.478 505.596 215.513 501.862 216.935 495.831Z" fill="#3E4D8C"/>
<path d="M191.862 438C191.862 438.582 191.392 439.052 190.811 439.052C190.231 439.052 189.761 438.582 189.761 438C189.761 437.419 190.231 436.948 190.811 436.948C191.392 436.948 191.862 437.419 191.862 438Z" fill="#4B5EAB"/>
<path d="M197.639 438C197.639 438.582 197.169 439.052 196.588 439.052C196.008 439.052 195.538 438.582 195.538 438C195.538 437.419 196.008 436.948 196.588 436.948C197.169 436.948 197.639 437.419 197.639 438Z" fill="#4B5EAB"/>
<path d="M197.639 443.785C197.639 444.366 197.169 444.837 196.588 444.837C196.008 444.837 195.538 444.366 195.538 443.785C195.538 443.203 196.008 442.733 196.588 442.733C197.169 442.733 197.639 443.203 197.639 443.785Z" fill="#4B5EAB"/>
<path d="M197.639 449.569C197.639 450.15 197.169 450.621 196.588 450.621C196.008 450.621 195.538 450.15 195.538 449.569C195.538 448.988 196.008 448.517 196.588 448.517C197.169 448.517 197.639 448.988 197.639 449.569Z" fill="#4B5EAB"/>
<path d="M197.639 455.356C197.639 455.937 197.169 456.408 196.588 456.408C196.008 456.408 195.538 455.937 195.538 455.356C195.538 454.775 196.008 454.304 196.588 454.304C197.169 454.304 197.639 454.775 197.639 455.356Z" fill="#4B5EAB"/>
<path d="M191.862 443.785C191.862 444.366 191.392 444.837 190.811 444.837C190.231 444.837 189.761 444.366 189.761 443.785C189.761 443.203 190.231 442.733 190.811 442.733C191.392 442.733 191.862 443.203 191.862 443.785Z" fill="#4B5EAB"/>
<path d="M191.862 449.569C191.862 450.15 191.392 450.621 190.811 450.621C190.231 450.621 189.761 450.15 189.761 449.569C189.761 448.988 190.231 448.517 190.811 448.517C191.392 448.517 191.862 448.988 191.862 449.569Z" fill="#4B5EAB"/>
<path d="M191.862 455.356C191.862 455.937 191.392 456.408 190.811 456.408C190.231 456.408 189.761 455.937 189.761 455.356C189.761 454.775 190.231 454.304 190.811 454.304C191.392 454.304 191.862 454.775 191.862 455.356Z" fill="#4B5EAB"/>
<path d="M190.811 438.263C190.665 438.263 190.549 438.144 190.549 437.997L190.692 397.705C190.71 392.615 194.862 388.476 199.943 388.476C204.755 388.476 208.669 384.557 208.669 379.738V337.288C208.669 337.142 208.785 337.026 208.931 337.026C209.077 337.026 209.193 337.142 209.193 337.288V379.738C209.193 384.846 205.044 389 199.943 389C195.148 389 191.234 392.907 191.216 397.708L191.073 438C191.073 438.146 190.957 438.263 190.811 438.263Z" fill="#4B5EAB"/>
<path d="M196.589 438.263C196.443 438.263 196.327 438.146 196.327 438V428.008C196.327 422.934 200.449 418.806 205.518 418.806C210.298 418.806 214.185 414.914 214.185 410.128V337.291C214.185 337.145 214.301 337.029 214.447 337.029C214.593 337.029 214.709 337.145 214.709 337.291V410.128C214.709 415.203 210.586 419.331 205.518 419.331C200.738 419.331 196.851 423.223 196.851 428.008V438C196.853 438.146 196.734 438.263 196.589 438.263Z" fill="#4B5EAB"/>
<path d="M343.225 307.488L336.397 290.747L322.652 289.519L314.598 296.179C314.336 298.283 318.012 298.897 320.551 297.407C323.09 295.917 323.527 295.479 323.527 295.479L327.379 296.444L323 296.969C323 296.969 315.735 302.577 315.56 302.843C315.122 304.595 317.31 305.736 319.149 304.946C317.575 308.54 321.774 308.54 322.914 308.102C322.215 311.169 325.804 311.61 329.304 311.958C332.805 312.31 333.418 318.094 333.855 321.074C334.293 324.054 338.144 325.982 342.874 325.982L355.919 332.073L359.595 315.114L343.225 307.488Z" fill="#FF8F6E"/>
<path d="M320.813 303.698C320.733 303.698 320.652 303.662 320.602 303.59C320.515 303.474 320.542 303.307 320.658 303.224L324.599 300.33C324.643 300.298 324.697 300.28 324.754 300.28H328.891C329.037 300.28 329.153 300.396 329.153 300.542C329.153 300.688 329.037 300.804 328.891 300.804H324.84L320.971 303.647C320.923 303.68 320.869 303.698 320.813 303.698Z" fill="#C9B8B3"/>
<path d="M323.899 307.64C323.822 307.64 323.748 307.608 323.697 307.545C323.605 307.432 323.623 307.268 323.733 307.175L326.292 305.072C326.34 305.033 326.406 305.012 326.465 305.012L329.421 305.078C329.566 305.08 329.68 305.2 329.677 305.346C329.674 305.489 329.557 305.602 329.415 305.602C329.412 305.602 329.412 305.602 329.409 305.602L326.551 305.539L324.066 307.581C324.019 307.622 323.959 307.64 323.899 307.64Z" fill="#C9B8B3"/>
<path d="M333.617 295.545C333.54 295.545 333.463 295.512 333.412 295.443C332.852 294.731 332.751 293.816 333.159 293.113C333.543 292.448 334.293 292.132 335.165 292.261C335.308 292.281 335.409 292.416 335.385 292.559C335.364 292.702 335.231 292.8 335.088 292.779C334.424 292.681 333.888 292.898 333.611 293.375C333.314 293.891 333.394 294.576 333.823 295.115C333.912 295.229 333.894 295.396 333.778 295.485C333.733 295.527 333.674 295.545 333.617 295.545Z" fill="#C9B8B3"/>
<path d="M334.343 300.152C334.281 300.196 334.197 300.214 334.117 300.19C333.248 299.934 332.641 299.246 332.566 298.435C332.495 297.672 332.926 296.978 333.712 296.579C333.843 296.513 334.001 296.564 334.066 296.695C334.132 296.826 334.081 296.981 333.95 297.049C333.352 297.353 333.039 297.842 333.09 298.39C333.144 298.986 333.608 299.496 334.266 299.69C334.406 299.731 334.483 299.877 334.444 300.017C334.426 300.068 334.388 300.119 334.343 300.152Z" fill="#C9B8B3"/>
<path d="M334.43 305.191C334.367 305.235 334.284 305.253 334.203 305.229C333.334 304.973 332.727 304.285 332.653 303.474C332.581 302.711 333.013 302.017 333.799 301.618C333.93 301.552 334.087 301.603 334.153 301.734C334.218 301.865 334.168 302.02 334.037 302.089C333.438 302.392 333.126 302.881 333.177 303.43C333.23 304.026 333.694 304.535 334.352 304.729C334.492 304.771 334.569 304.917 334.531 305.057C334.513 305.11 334.477 305.158 334.43 305.191Z" fill="#C9B8B3"/>
<path d="M387.435 301.528C387.301 301.528 387.185 301.424 387.173 301.287C387.102 300.471 385.578 281.163 398.144 272.646C398.266 272.566 398.427 272.596 398.51 272.718C398.591 272.837 398.561 273.001 398.439 273.084C386.126 281.428 387.629 300.438 387.697 301.242C387.709 301.388 387.602 301.514 387.459 301.528C387.45 301.528 387.441 301.528 387.435 301.528Z" fill="#000F4E"/>
<path d="M396.495 325.434C396.394 325.434 396.299 325.377 396.254 325.279L389.296 309.61C389.236 309.476 389.296 309.321 389.429 309.264C389.563 309.205 389.718 309.264 389.775 309.399L396.733 325.067C396.793 325.201 396.733 325.356 396.6 325.416C396.567 325.428 396.531 325.434 396.495 325.434Z" fill="#000F4E"/>
<path d="M368.568 314.062L363.973 338.561L355.35 334.484L360.514 310.906L368.568 314.062Z" fill="white"/>
<path d="M396.713 353.944C396.677 353.944 396.638 353.935 396.603 353.92L355.282 334.812C355.172 334.761 355.109 334.639 355.136 334.517L360.214 310.85C360.229 310.775 360.279 310.71 360.348 310.674C360.416 310.638 360.496 310.632 360.568 310.662L405.389 328.366C405.523 328.42 405.591 328.572 405.538 328.709C405.484 328.843 405.332 328.909 405.198 328.858L360.663 311.267L355.696 334.425L396.826 353.443C396.957 353.503 397.016 353.661 396.954 353.792C396.909 353.887 396.814 353.944 396.713 353.944Z" fill="#000F4E"/>
<path d="M363.952 316.056C364.605 316.056 365.134 315.526 365.134 314.873C365.134 314.219 364.605 313.69 363.952 313.69C363.3 313.69 362.771 314.219 362.771 314.873C362.771 315.526 363.3 316.056 363.952 316.056Z" fill="#000F4E"/>
<path d="M260.935 275.757C260.935 276.41 260.405 276.94 259.753 276.94C259.101 276.94 258.571 276.41 258.571 275.757C258.571 275.105 259.101 274.574 259.753 274.574C260.405 274.574 260.935 275.105 260.935 275.757Z" fill="#000F4E"/>
<path d="M348.457 278.913L351.106 285.135L357.103 280.403L359.074 285.573C363.538 282.945 377.634 264.1 377.634 264.1L371.33 258.491L353.996 258.843L344.716 262.35L343.841 282.51L348.457 278.913Z" fill="white"/>
<path d="M359.071 285.839C358.964 285.839 358.865 285.773 358.827 285.669L354.49 274.261L344.004 282.713C343.891 282.802 343.725 282.784 343.635 282.674C343.543 282.561 343.561 282.397 343.674 282.304L354.442 273.627C354.508 273.573 354.594 273.555 354.675 273.579C354.755 273.6 354.82 273.659 354.85 273.74L359.315 285.484C359.365 285.621 359.297 285.773 359.163 285.824C359.133 285.833 359.1 285.839 359.071 285.839Z" fill="#AEB3CC"/>
<path d="M303.743 310.993C303.66 310.993 303.577 310.951 303.526 310.877L298.919 304.035L298.841 309.595C298.838 309.741 298.71 309.843 298.576 309.855C298.431 309.852 298.314 309.732 298.317 309.589L298.404 303.191C298.407 303.075 298.481 302.977 298.591 302.944C298.701 302.911 298.82 302.953 298.883 303.048L303.961 310.588C304.041 310.707 304.011 310.871 303.889 310.954C303.845 310.978 303.794 310.993 303.743 310.993Z" fill="#000F4E"/>
<path d="M203.94 223.348C204.008 223.294 204.05 223.211 204.044 223.119L203.529 214.736L207.032 219.176C207.125 219.292 207.291 219.295 207.407 219.221C207.523 219.128 207.544 218.962 207.452 218.845L203.419 213.735C203.348 213.642 203.223 213.609 203.115 213.651C203.005 213.693 202.937 213.8 202.943 213.916L203.511 223.151C203.52 223.297 203.648 223.411 203.794 223.402C203.851 223.399 203.901 223.381 203.94 223.348Z" fill="#000F4E"/>
<path d="M364.595 192.195C364.517 192.162 364.458 192.091 364.44 192.001L362.958 183.884L360.663 188.947C360.603 189.078 360.446 189.123 360.315 189.078C360.184 189.019 360.124 188.864 360.184 188.729L362.827 182.904C362.874 182.799 362.985 182.737 363.098 182.752C363.214 182.766 363.303 182.853 363.324 182.966L364.958 191.909C364.985 192.052 364.889 192.189 364.747 192.216C364.693 192.222 364.639 192.216 364.595 192.195Z" fill="#000F4E"/>
<path d="M327.247 286.67C327.245 286.67 327.242 286.67 327.239 286.67C327.093 286.664 326.98 286.545 326.986 286.399C326.989 286.28 327.426 274.419 331.215 266.832C331.28 266.701 331.438 266.65 331.566 266.716C331.697 266.782 331.748 266.939 331.682 267.068C327.944 274.556 327.512 286.301 327.506 286.417C327.506 286.56 327.39 286.67 327.247 286.67Z" fill="#000F4E"/>
<path d="M353.279 252.162C353.279 252.162 352.77 255.866 351.707 258.676C351.707 258.676 348.781 266.91 352.481 270.542C356.181 274.175 369.821 266.692 370.863 258.289C370.018 252.355 372.217 243.809 373.378 241.702C379.182 244.753 382.956 238.65 382.881 234.8C382.81 230.95 378.456 231.385 377.512 232.33C376.569 233.274 374.973 235.527 372.795 234.002C370.619 232.476 373.955 222.305 377.584 217.874C370.544 218.818 361.913 211.845 360.749 205.45C356.178 206.612 352.478 211.044 350.156 215.621C347.835 220.198 346.746 224.629 344.933 230.369C343.12 236.108 340.87 242.864 344.641 247.659C348.418 252.454 353.279 252.162 353.279 252.162Z" fill="#FF8F6E"/>
<path d="M363.943 229.725C363.66 230.688 363.011 231.343 362.49 231.188C361.973 231.037 361.779 230.134 362.062 229.171C362.345 228.209 362.993 227.553 363.514 227.708C364.032 227.86 364.226 228.763 363.943 229.725Z" fill="#1F0F0A"/>
<path d="M362.342 232.211C362.113 232.211 361.881 232.169 361.657 232.079C361.568 232.044 361.523 231.942 361.559 231.853C361.595 231.764 361.696 231.719 361.785 231.755C362.544 232.056 363.419 231.698 363.869 230.911C363.916 230.828 364.024 230.798 364.107 230.846C364.19 230.893 364.22 231.001 364.172 231.084C363.765 231.799 363.059 232.211 362.342 232.211Z" fill="#1F0F0A"/>
<path d="M353.35 225.729C353.067 226.692 352.419 227.347 351.898 227.192C351.38 227.04 351.186 226.137 351.469 225.175C351.752 224.212 352.401 223.557 352.922 223.712C353.439 223.864 353.63 224.767 353.35 225.729Z" fill="#1F0F0A"/>
<path d="M351.749 228.214C351.52 228.214 351.287 228.173 351.064 228.083C350.975 228.047 350.93 227.946 350.966 227.857C351.002 227.767 351.103 227.723 351.192 227.758C351.951 228.059 352.826 227.702 353.276 226.915C353.323 226.832 353.43 226.802 353.514 226.85C353.597 226.897 353.627 227.004 353.579 227.088C353.171 227.803 352.466 228.214 351.749 228.214Z" fill="#1F0F0A"/>
<path d="M352.41 235.796C352.371 235.796 352.332 235.787 352.297 235.766C349.07 233.951 347.924 231.108 348.281 230.342C348.469 229.94 348.99 229.985 349.782 230.056C350.597 230.128 351.713 230.223 353.091 229.958C355.413 229.511 356.88 226.677 357.112 222.183C357.118 222.055 357.24 221.956 357.356 221.962C357.484 221.968 357.583 222.079 357.577 222.207C357.333 226.933 355.731 229.925 353.181 230.414C351.737 230.691 350.538 230.587 349.743 230.518C349.302 230.479 348.755 230.432 348.704 230.539C348.537 230.896 349.332 233.564 352.526 235.36C352.639 235.423 352.678 235.566 352.615 235.676C352.567 235.754 352.49 235.796 352.41 235.796Z" fill="#1F0F0A"/>
<path d="M355.231 242.262C353.6 242.262 349.121 241.452 348.16 238.469C348.121 238.346 348.186 238.215 348.308 238.177C348.43 238.138 348.561 238.206 348.6 238.326C349.591 241.404 354.907 241.979 355.603 241.77C355.725 241.735 355.856 241.803 355.892 241.925C355.928 242.048 355.859 242.179 355.737 242.214C355.642 242.244 355.467 242.262 355.231 242.262Z" fill="#1F0F0A"/>
<path d="M351.859 243.308C350.582 243.308 349.085 242.706 348.642 241.672C348.591 241.553 348.645 241.416 348.764 241.365C348.88 241.314 349.017 241.368 349.07 241.487C349.475 242.423 351.041 242.945 352.195 242.825C352.32 242.813 352.436 242.906 352.451 243.034C352.463 243.162 352.371 243.275 352.243 243.29C352.115 243.302 351.987 243.308 351.859 243.308Z" fill="#C9B8B3"/>
<path d="M369.265 227.222C368.152 224.606 365.25 223.542 364.622 223.396C368.443 221.554 369.458 223.867 369.265 227.222Z" fill="#1F0F0A"/>
<path d="M366.654 222.523C365.809 222.475 364.622 223.396 364.622 223.396C364.767 222.111 365.881 222.064 366.654 222.523Z" fill="#1F0F0A"/>
<path d="M351.434 218.979C354.297 218.205 356.404 219.796 356.404 219.796C355.731 216.589 353.481 216.992 351.434 218.979Z" fill="#1F0F0A"/>
<path d="M355.782 217.808C356.38 218.482 356.407 219.796 356.407 219.796C357.073 218.61 356.672 218.041 355.782 217.808Z" fill="#1F0F0A"/>
<path d="M356.029 251.98C355.803 251.98 355.585 251.974 355.368 251.959C355.24 251.95 355.142 251.84 355.151 251.712C355.16 251.584 355.276 251.482 355.398 251.494C359.586 251.768 365.413 249.211 366.872 247.021C366.943 246.914 367.086 246.884 367.193 246.956C367.3 247.027 367.33 247.17 367.259 247.277C365.812 249.453 360.288 251.98 356.029 251.98Z" fill="#C9B8B3"/>
<path d="M372.146 236.63C371.202 236.63 370.562 236.153 370.553 236.147C370.452 236.07 370.431 235.924 370.509 235.822C370.586 235.721 370.732 235.7 370.833 235.778C370.881 235.813 371.848 236.52 373.131 235.956C372.667 235.867 372.158 235.643 371.732 235.319C371.045 234.794 370.744 234.109 370.902 233.438C370.931 233.313 371.056 233.239 371.181 233.265C371.306 233.295 371.384 233.42 371.354 233.546C371.196 234.204 371.699 234.708 372.015 234.946C372.696 235.468 373.583 235.649 373.92 235.465C374.024 235.405 374.158 235.441 374.223 235.539C374.289 235.641 374.268 235.775 374.176 235.849C373.435 236.448 372.732 236.63 372.146 236.63Z" fill="#1F0F0A"/>
<path d="M371.667 237.81C371.345 237.81 370.753 237.706 370.193 237.059C370.11 236.961 370.119 236.815 370.217 236.731C370.315 236.648 370.461 236.657 370.545 236.755C371.161 237.464 371.78 237.342 371.807 237.336C371.932 237.312 372.057 237.387 372.083 237.512C372.11 237.637 372.036 237.759 371.911 237.789C371.896 237.789 371.807 237.81 371.667 237.81Z" fill="#1F0F0A"/>
<path d="M381.923 236.067C381.164 234.693 380.102 234.401 379.334 234.401C379.328 234.401 379.319 234.401 379.313 234.401C377.557 234.413 375.661 235.936 374.911 237.342C374.851 237.455 374.893 237.595 375.006 237.658C375.042 237.676 375.078 237.685 375.116 237.685C375.2 237.685 375.28 237.64 375.322 237.563C375.67 236.913 376.28 236.234 377.006 235.721C378.161 235.569 378.932 235.936 379.119 236.719C379.337 237.619 378.682 238.904 377.36 239.374C377.238 239.416 377.176 239.55 377.221 239.672C377.253 239.768 377.343 239.827 377.438 239.827C377.465 239.827 377.491 239.824 377.515 239.813C379.122 239.237 379.834 237.703 379.569 236.609C379.378 235.816 378.747 235.34 377.834 235.244C378.319 235.018 378.822 234.869 379.316 234.866C380.265 234.851 380.992 235.34 381.515 236.293C381.578 236.406 381.718 236.445 381.831 236.386C381.947 236.323 381.986 236.18 381.923 236.067Z" fill="#C9B8B3"/>
<path d="M451.106 143.001C450.421 141.756 449.457 141.493 448.763 141.493C448.757 141.493 448.751 141.493 448.745 141.493C447.156 141.505 445.441 142.882 444.763 144.155C444.709 144.256 444.748 144.384 444.849 144.438C444.882 144.456 444.915 144.461 444.947 144.461C445.022 144.461 445.096 144.42 445.132 144.351C445.447 143.761 446.001 143.15 446.656 142.685C447.701 142.548 448.397 142.879 448.57 143.591C448.766 144.408 448.174 145.567 446.977 145.996C446.867 146.035 446.811 146.154 446.849 146.264C446.879 146.351 446.959 146.404 447.046 146.404C447.07 146.404 447.093 146.401 447.117 146.393C448.573 145.874 449.216 144.482 448.977 143.493C448.805 142.778 448.233 142.343 447.406 142.256C447.843 142.051 448.299 141.917 448.745 141.914C449.605 141.902 450.26 142.343 450.736 143.204C450.793 143.305 450.921 143.341 451.022 143.287C451.123 143.231 451.162 143.103 451.106 143.001Z" fill="#C9B8B3"/>
<path d="M379.908 217.248C379.834 217.248 379.765 217.2 379.741 217.126C379.712 217.033 379.762 216.935 379.855 216.905C383.914 215.597 386.301 216.08 386.403 216.101C386.498 216.122 386.557 216.214 386.536 216.306C386.516 216.402 386.423 216.461 386.331 216.44C386.307 216.434 383.926 215.961 379.962 217.236C379.944 217.248 379.926 217.248 379.908 217.248Z" fill="#1F0F0A"/>
<path d="M436.7 133.501C433.155 130.083 429.872 130.739 429.872 130.739C430.923 129.097 432.956 127.979 436.7 133.501Z" fill="#1F0F0A"/>
<path d="M430.756 138.794C431.3 138.794 431.741 138.08 431.741 137.199C431.741 136.319 431.3 135.605 430.756 135.605C430.212 135.605 429.771 136.319 429.771 137.199C429.771 138.08 430.212 138.794 430.756 138.794Z" fill="#1F0F0A"/>
<path d="M421.925 134.666C421.925 135.545 421.485 136.261 420.94 136.261C420.396 136.261 419.955 135.545 419.955 134.666C419.955 133.787 420.396 133.072 420.94 133.072C421.485 133.075 421.925 133.787 421.925 134.666Z" fill="#1F0F0A"/>
<path d="M420.089 143.615C420.059 143.615 420.029 143.609 419.999 143.594C419.446 143.335 417.955 142.051 417.172 140.719C417.023 140.468 417.02 140.167 417.16 139.911C417.306 139.646 417.589 139.476 417.895 139.467C421.175 139.375 423.556 136.606 423.556 132.881C423.556 132.765 423.651 132.67 423.768 132.67C423.884 132.67 423.979 132.765 423.979 132.881C423.979 136.779 421.369 139.789 417.907 139.887C417.746 139.893 417.603 139.977 417.529 140.114C417.461 140.239 417.464 140.379 417.535 140.504C418.264 141.744 419.681 142.977 420.178 143.21C420.282 143.258 420.33 143.383 420.279 143.49C420.244 143.571 420.166 143.615 420.089 143.615Z" fill="#1F0F0A"/>
<path d="M424.595 148.973C422.806 148.973 421.172 148.279 420.015 147.269C419.928 147.191 419.919 147.06 419.994 146.971C420.071 146.881 420.202 146.875 420.291 146.95C422.184 148.601 425.437 149.355 428.441 147.328C428.536 147.263 428.667 147.289 428.732 147.385C428.798 147.48 428.771 147.611 428.676 147.677C427.322 148.592 425.917 148.973 424.595 148.973Z" fill="#1F0F0A"/>
<path d="M418.776 128.438C421.994 127.845 423.437 129.293 423.437 129.293C422.78 126.731 421.14 126.927 418.776 128.438Z" fill="#1F0F0A"/>
<path d="M444.259 150.94C445.42 150.458 445.972 149.125 445.491 147.962C445.01 146.798 443.678 146.246 442.516 146.728C441.354 147.21 440.802 148.543 441.283 149.706C441.765 150.87 443.097 151.422 444.259 150.94Z" fill="white"/>
<path d="M426.193 159.415C426.095 159.415 426.009 159.35 425.988 159.248C425.964 159.135 426.036 159.022 426.149 158.998C433.226 157.451 438.533 152.141 438.584 152.087C438.664 152.004 438.798 152.004 438.882 152.084C438.965 152.165 438.965 152.299 438.885 152.382C438.831 152.436 433.441 157.836 426.238 159.409C426.223 159.412 426.208 159.415 426.193 159.415Z" fill="#C9B8B3"/>
<path d="M447.489 274.971C447.489 274.971 448.013 285.138 444.688 284.787C441.361 284.435 431.732 286.19 429.807 287.767C427.881 289.343 427.006 296.883 428.057 298.635C429.107 300.387 431.209 299.6 431.47 298.459C432.259 300.563 434.622 300.301 435.497 298.373C436.197 300.828 438.911 300.125 439.438 298.11C439.789 300.128 441.801 300.739 442.59 298.724C443.379 296.71 443.465 294.779 444.516 294.779C445.566 294.779 458.609 296.444 461.148 292.499C463.686 288.553 462.898 275.143 462.898 275.143L447.489 274.971Z" fill="#FF8F6E"/>
<path d="M431.185 296.742C431.179 296.742 431.173 296.742 431.164 296.742C431.048 296.731 430.964 296.629 430.973 296.513C430.976 296.477 431.307 292.925 431.765 290.511C431.786 290.398 431.896 290.321 432.009 290.344C432.122 290.365 432.2 290.476 432.176 290.589C431.723 292.985 431.393 296.516 431.39 296.552C431.384 296.659 431.292 296.742 431.185 296.742Z" fill="#C9B8B3"/>
<path d="M435.736 297.356C435.73 297.356 435.724 297.356 435.715 297.356C435.599 297.344 435.516 297.243 435.525 297.127C435.528 297.091 435.858 293.539 436.316 291.125C436.337 291.012 436.447 290.934 436.56 290.958C436.673 290.979 436.751 291.089 436.727 291.203C436.275 293.599 435.944 297.13 435.941 297.166C435.935 297.273 435.843 297.356 435.736 297.356Z" fill="#C9B8B3"/>
<path d="M439.721 296.829C439.715 296.829 439.709 296.829 439.7 296.829C439.584 296.817 439.501 296.716 439.51 296.6C439.513 296.564 439.617 294.353 440.072 291.939C440.093 291.826 440.203 291.748 440.317 291.772C440.43 291.793 440.507 291.903 440.483 292.016C440.031 294.412 439.93 296.602 439.927 296.638C439.918 296.749 439.828 296.829 439.721 296.829Z" fill="#C9B8B3"/>
<path d="M453.904 285.568C453.898 285.568 453.889 285.568 453.883 285.568C449.287 285.115 446.317 285.109 446.287 285.109C446.171 285.109 446.076 285.013 446.076 284.897C446.076 284.781 446.171 284.685 446.287 284.685C446.317 284.685 449.305 284.691 453.924 285.147C454.04 285.159 454.124 285.261 454.112 285.377C454.1 285.484 454.011 285.568 453.904 285.568Z" fill="#C9B8B3"/>
<path d="M432.238 288.586C432.033 288.586 431.839 288.553 431.67 288.485C431.348 288.354 431.155 288.098 431.107 287.752C431.092 287.636 431.173 287.531 431.289 287.516C431.396 287.502 431.509 287.582 431.524 287.698C431.551 287.892 431.649 288.023 431.831 288.098C432.292 288.288 433.17 288.071 433.75 287.624C433.843 287.552 433.974 287.57 434.045 287.662C434.116 287.755 434.099 287.886 434.006 287.957C433.542 288.312 432.842 288.586 432.238 288.586Z" fill="#C9B8B3"/>
<path d="M435.804 289.132C435.599 289.132 435.405 289.099 435.236 289.03C434.914 288.899 434.721 288.643 434.673 288.297C434.658 288.181 434.739 288.077 434.855 288.062C434.962 288.047 435.075 288.127 435.09 288.243C435.117 288.437 435.215 288.568 435.396 288.643C435.858 288.834 436.736 288.616 437.316 288.169C437.408 288.097 437.539 288.115 437.611 288.208C437.682 288.3 437.664 288.431 437.572 288.503C437.108 288.86 436.408 289.132 435.804 289.132Z" fill="#C9B8B3"/>
<path d="M439.373 289.835C439.168 289.835 438.974 289.802 438.805 289.733C438.483 289.602 438.29 289.346 438.242 289C438.227 288.884 438.307 288.78 438.424 288.765C438.531 288.75 438.644 288.831 438.659 288.947C438.685 289.14 438.784 289.272 438.965 289.346C439.427 289.537 440.305 289.319 440.885 288.872C440.977 288.801 441.108 288.819 441.18 288.911C441.251 289.003 441.233 289.134 441.141 289.206C440.677 289.561 439.977 289.835 439.373 289.835Z" fill="#C9B8B3"/>
<path d="M443.245 290.908C443.04 290.908 442.846 290.875 442.677 290.806C442.355 290.675 442.162 290.419 442.114 290.073C442.099 289.957 442.18 289.853 442.296 289.838C442.403 289.823 442.516 289.903 442.531 290.02C442.558 290.213 442.656 290.344 442.837 290.419C443.299 290.61 444.177 290.392 444.757 289.945C444.849 289.874 444.98 289.891 445.052 289.984C445.123 290.076 445.105 290.207 445.013 290.279C444.549 290.634 443.849 290.908 443.245 290.908Z" fill="#C9B8B3"/>
<path d="M398.99 198.099C398.945 198.099 398.897 198.087 398.856 198.063C398.731 197.988 398.689 197.827 398.763 197.702C398.811 197.622 403.642 189.427 404.154 182.042C404.163 181.896 404.279 181.792 404.433 181.798C404.579 181.807 404.686 181.935 404.678 182.078C404.154 189.591 399.264 197.89 399.213 197.97C399.165 198.054 399.079 198.099 398.99 198.099Z" fill="#000F4E"/>
<path d="M448.365 189.159C448.359 189.159 448.353 189.159 448.347 189.159C448.201 189.15 448.091 189.024 448.1 188.878C448.112 188.712 449.281 172.015 459.794 166.4C459.922 166.332 460.079 166.379 460.148 166.508C460.216 166.636 460.169 166.794 460.041 166.862C449.787 172.336 448.632 188.744 448.623 188.911C448.618 189.051 448.501 189.159 448.365 189.159Z" fill="#000F4E"/>
<path d="M444.338 245.123C444.195 245.123 444.079 245.01 444.076 244.867L443.552 220.675C443.549 220.529 443.665 220.41 443.808 220.407C443.951 220.419 444.073 220.52 444.076 220.663L444.599 244.855C444.602 245.001 444.486 245.12 444.344 245.123C444.341 245.123 444.341 245.123 444.338 245.123Z" fill="#000F4E"/>
<path d="M270.039 142.721V194.052C270.039 196.093 271.694 197.75 273.733 197.75H290.752C290.219 196.406 289.981 194.913 290.153 193.339C290.644 188.804 294.478 185.228 299.032 185.067C304.303 184.879 308.636 189.105 308.636 194.341C308.636 195.545 308.401 196.692 307.982 197.747H325C327.039 197.747 328.694 196.09 328.694 194.049V142.721C328.694 140.68 327.039 139.023 325 139.023H273.733C271.691 139.023 270.039 140.677 270.039 142.721Z" fill="#FFD35A"/>
<path d="M275.902 158.044C274.352 158.044 272.89 158.435 271.613 159.12V142.611C271.613 140.629 270.009 139.023 268.03 139.023H218.295C216.316 139.023 214.711 140.629 214.711 142.611V192.41C214.711 194.391 216.316 195.998 218.295 195.998H268.033C270.012 195.998 271.616 194.391 271.616 192.41V175.2C272.896 175.886 274.355 176.276 275.905 176.276C280.932 176.276 285.01 172.193 285.01 167.16C285.007 162.124 280.932 158.044 275.902 158.044Z" fill="#FF852F"/>
<path d="M233.707 191.394C233.707 192.946 234.096 194.409 234.781 195.688H218.292C216.313 195.688 214.708 197.294 214.708 199.276V249.074C214.708 251.056 216.313 252.662 218.292 252.662H268.03C270.009 252.662 271.613 251.056 271.613 249.074V199.276C271.613 197.294 270.009 195.688 268.03 195.688H250.841C251.526 194.406 251.916 192.946 251.916 191.394C251.916 186.36 247.838 182.278 242.811 182.278C237.784 182.278 233.707 186.36 233.707 191.394Z" fill="#FFD35A"/>
<path d="M308.863 138.892C308.863 138.892 309.386 150.594 307.812 151.777C306.237 152.96 304.529 151.777 304.136 150.463C302.693 153.226 299.672 152.436 299.279 150.725C297.966 153.354 294.814 151.515 294.552 150.332C293.633 153.095 291.007 151.384 290.35 149.808C289.692 148.231 289.665 138.335 289.826 136.922C290.15 134.026 308.47 131.528 308.863 138.892Z" fill="#FF8F6E"/>
<path d="M306.261 138.415C305.723 138.415 305.056 138.147 304.532 137.375C304.452 137.256 304.482 137.092 304.604 137.009C304.723 136.928 304.886 136.958 304.97 137.08C305.449 137.789 306.053 137.953 306.458 137.87C306.761 137.807 306.982 137.611 307.032 137.348C307.059 137.205 307.199 137.113 307.342 137.143C307.485 137.172 307.577 137.31 307.547 137.453C307.452 137.923 307.074 138.281 306.559 138.385C306.467 138.403 306.366 138.415 306.261 138.415Z" fill="#C9B8B3"/>
<path d="M302.035 138.195C301.496 138.195 300.829 137.926 300.306 137.155C300.225 137.035 300.255 136.871 300.377 136.788C300.496 136.708 300.66 136.737 300.743 136.86C301.222 137.569 301.827 137.733 302.231 137.649C302.535 137.587 302.755 137.39 302.806 137.128C302.833 136.985 302.972 136.892 303.115 136.922C303.258 136.952 303.35 137.089 303.321 137.232C303.225 137.703 302.847 138.06 302.333 138.165C302.24 138.186 302.142 138.195 302.035 138.195Z" fill="#C9B8B3"/>
<path d="M297.067 138.37C296.528 138.37 295.862 138.102 295.338 137.33C295.257 137.211 295.287 137.047 295.409 136.964C295.528 136.883 295.692 136.913 295.775 137.035C296.255 137.745 296.859 137.908 297.264 137.825C297.567 137.762 297.787 137.566 297.838 137.303C297.865 137.16 298.005 137.068 298.148 137.098C298.29 137.128 298.383 137.265 298.353 137.408C298.258 137.879 297.88 138.236 297.365 138.341C297.272 138.361 297.174 138.37 297.067 138.37Z" fill="#C9B8B3"/>
<path d="M292.603 138.525C292.064 138.525 291.397 138.257 290.874 137.485C290.793 137.366 290.823 137.202 290.945 137.119C291.064 137.038 291.228 137.068 291.311 137.19C291.79 137.9 292.394 138.063 292.799 137.98C293.103 137.917 293.323 137.721 293.374 137.459C293.4 137.315 293.54 137.223 293.683 137.253C293.826 137.283 293.918 137.42 293.889 137.563C293.793 138.034 293.415 138.391 292.9 138.496C292.808 138.513 292.71 138.525 292.603 138.525Z" fill="#C9B8B3"/>
<path d="M304.225 149.408C304.222 149.408 304.222 149.408 304.225 149.408C304.077 149.405 303.96 149.289 303.963 149.143L304.05 140.465C304.05 140.319 304.16 140.194 304.315 140.206C304.46 140.209 304.577 140.325 304.574 140.471L304.487 149.149C304.484 149.292 304.368 149.408 304.225 149.408Z" fill="#C9B8B3"/>
<path d="M299.279 149.322C299.276 149.322 299.276 149.322 299.279 149.322C299.13 149.319 299.014 149.203 299.017 149.057L299.103 140.379C299.103 140.233 299.213 140.108 299.368 140.12C299.514 140.123 299.63 140.239 299.627 140.385L299.54 149.063C299.538 149.206 299.421 149.322 299.279 149.322Z" fill="#C9B8B3"/>
<path d="M294.594 149.191C294.445 149.188 294.329 149.075 294.332 148.938L294.418 140.632C294.418 140.492 294.529 140.373 294.683 140.382C294.829 140.385 294.945 140.498 294.942 140.635L294.856 148.941C294.856 149.081 294.737 149.191 294.594 149.191Z" fill="#C9B8B3"/>
<path d="M240.216 257.478C236.076 257.478 233.489 256.867 232.784 255.684C232.522 255.243 232.546 254.742 232.852 254.272C233.775 252.856 238.376 252.954 243.246 253.059C244.005 253.077 244.758 253.091 245.484 253.1C245.63 253.103 245.746 253.223 245.743 253.366C245.74 253.509 245.624 253.625 245.481 253.625H245.478C244.752 253.616 243.996 253.598 243.234 253.583C239.144 253.497 234.055 253.386 233.29 254.558C233.093 254.859 233.076 255.148 233.233 255.413C233.543 255.931 235.32 257.552 245.195 256.715C245.347 256.703 245.466 256.81 245.478 256.954C245.49 257.1 245.383 257.225 245.24 257.237C243.377 257.401 241.698 257.478 240.216 257.478Z" fill="#C9B8B3"/>
<path d="M140.386 307.837C140.386 307.837 140.648 314.804 142.618 315.725C144.589 316.646 150.235 316.777 150.235 318.75C150.235 320.723 147.871 325.848 148.002 330.187C148.264 330.977 144.981 331.239 144.981 331.239C144.981 331.239 145.505 339.917 143.669 340.441C141.829 340.966 139.728 340.966 138.547 339.652C135.921 341.228 133.555 340.31 133.162 339.52C131.719 341.755 127.778 339.652 127.385 338.468C126.073 339.783 122.528 338.6 121.87 335.84C121.212 333.078 120.688 323.744 122.132 316.908C123.575 310.072 123.575 308.493 123.575 308.493L140.386 307.837Z" fill="#FF8F6E"/>
<path d="M144.85 330.321C144.722 330.321 144.609 330.226 144.591 330.095C144.576 329.999 144.27 327.684 145.514 322.567C145.55 322.427 145.693 322.341 145.832 322.374C145.972 322.409 146.059 322.549 146.026 322.692C144.809 327.693 145.109 329.999 145.112 330.023C145.133 330.166 145.032 330.3 144.889 330.321C144.874 330.321 144.862 330.321 144.85 330.321Z" fill="#C9B8B3"/>
<path d="M138.481 338.868C138.35 338.868 138.24 338.772 138.222 338.638C137.639 334.279 137.371 331.62 137.368 331.597C137.353 331.451 137.46 331.322 137.603 331.308C137.752 331.296 137.877 331.4 137.892 331.543C137.895 331.57 138.16 334.219 138.743 338.567C138.761 338.71 138.663 338.844 138.517 338.862C138.505 338.865 138.493 338.868 138.481 338.868Z" fill="#C9B8B3"/>
<path d="M132.966 338.868C132.841 338.868 132.731 338.778 132.707 338.65C131.924 334.144 131.915 332.494 131.915 332.425C131.915 332.279 132.031 332.163 132.177 332.163C132.323 332.163 132.439 332.279 132.439 332.425C132.439 332.443 132.451 334.112 133.222 338.561C133.245 338.704 133.15 338.841 133.007 338.865C132.995 338.865 132.981 338.868 132.966 338.868Z" fill="#C9B8B3"/>
<path d="M127.32 337.881C127.194 337.881 127.084 337.792 127.061 337.667C126.54 334.794 126.403 332.988 126.4 332.973C126.388 332.827 126.498 332.702 126.641 332.69C126.79 332.678 126.912 332.789 126.924 332.932C126.924 332.949 127.061 334.729 127.575 337.571C127.602 337.714 127.507 337.852 127.364 337.878C127.352 337.878 127.334 337.881 127.32 337.881Z" fill="#C9B8B3"/>
<path d="M140.824 329.671C140.16 329.671 139.52 329.296 139.112 328.652C139.035 328.53 139.07 328.366 139.193 328.289C139.315 328.211 139.478 328.247 139.556 328.369C139.898 328.912 140.449 329.204 140.984 329.132C141.547 329.058 142.002 328.587 142.234 327.839C142.276 327.702 142.422 327.624 142.562 327.666C142.702 327.708 142.779 327.857 142.734 327.994C142.44 328.944 141.827 329.549 141.053 329.651C140.978 329.666 140.901 329.671 140.824 329.671Z" fill="#C9B8B3"/>
<path d="M134.686 329.967C134.023 329.967 133.383 329.591 132.975 328.947C132.898 328.825 132.933 328.661 133.055 328.584C133.177 328.506 133.341 328.542 133.418 328.664C133.761 329.207 134.311 329.499 134.847 329.427C135.41 329.353 135.865 328.882 136.097 328.134C136.139 327.997 136.285 327.919 136.425 327.961C136.564 328.003 136.642 328.152 136.597 328.289C136.303 329.239 135.689 329.844 134.916 329.946C134.838 329.964 134.764 329.967 134.686 329.967Z" fill="#C9B8B3"/>
<path d="M128.974 330.428C128.311 330.428 127.671 330.053 127.263 329.409C127.186 329.287 127.221 329.123 127.343 329.046C127.465 328.968 127.629 329.004 127.707 329.126C128.049 329.669 128.599 329.961 129.135 329.889C129.698 329.815 130.153 329.344 130.385 328.596C130.427 328.459 130.573 328.381 130.713 328.423C130.853 328.465 130.93 328.614 130.885 328.751C130.591 329.701 129.977 330.306 129.204 330.408C129.126 330.423 129.049 330.428 128.974 330.428Z" fill="#C9B8B3"/>
<path d="M123.885 331.084C123.221 331.084 122.581 330.708 122.174 330.065C122.096 329.943 122.132 329.779 122.254 329.701C122.376 329.624 122.54 329.66 122.617 329.782C122.959 330.324 123.51 330.616 124.046 330.545C124.608 330.47 125.064 329.999 125.296 329.251C125.338 329.114 125.483 329.037 125.623 329.078C125.763 329.12 125.841 329.269 125.796 329.406C125.501 330.357 124.888 330.962 124.114 331.063C124.04 331.081 123.962 331.084 123.885 331.084Z" fill="#C9B8B3"/>
<path d="M136.276 195.881C136.127 195.881 136.008 195.762 136.008 195.613C136.008 190.109 132.177 178.124 120.331 176.21C120.185 176.187 120.087 176.05 120.111 175.904C120.135 175.758 120.269 175.656 120.418 175.683C132.603 177.65 136.543 189.96 136.543 195.613C136.543 195.762 136.424 195.881 136.276 195.881Z" fill="#000F4E"/>
<path d="M139.082 296.754C138.954 296.754 138.844 296.665 138.82 296.534C138.499 294.764 130.933 253.169 130.802 252.105C130.668 251.032 134.385 219.271 134.811 215.654C134.829 215.508 134.963 215.4 135.109 215.418C135.255 215.436 135.362 215.567 135.344 215.716C134.195 225.503 131.239 251.107 131.335 252.043C131.466 253.091 139.27 296.009 139.35 296.442C139.377 296.588 139.282 296.725 139.136 296.751C139.112 296.751 139.097 296.754 139.082 296.754Z" fill="#000F4E"/>
<path d="M181.305 231.737C181.302 231.737 181.299 231.737 181.296 231.737C181.147 231.731 181.034 231.609 181.037 231.46C181.049 231.144 182.094 199.836 181.04 193.116C181.016 192.97 181.117 192.833 181.263 192.809C181.412 192.788 181.546 192.887 181.57 193.033C182.629 199.803 181.585 231.162 181.573 231.478C181.567 231.624 181.448 231.737 181.305 231.737Z" fill="#000F4E"/>
<path d="M209.765 178.225C209.631 176.619 209.363 158.694 210.431 156.417C211.5 154.144 214.307 152.537 214.307 152.537L214.441 155.213C216.956 155.616 224.397 155.184 227.918 154.948C229.12 154.868 230.135 155.869 230.037 157.073C229.888 158.921 228.84 161.007 225.397 161.37C220.319 161.906 216.176 161.37 215.777 166.99C215.375 172.611 214.441 178.362 214.441 178.362L209.765 178.225Z" fill="#FF8F6E"/>
<path d="M137.234 139.16C137.207 139.127 137.166 139.053 137.103 138.951C135.219 135.84 132.972 134.791 130.433 135.837C130.287 135.897 130.216 136.067 130.275 136.213C130.335 136.359 130.505 136.43 130.65 136.371C132.368 135.665 133.71 136.15 134.704 136.937C133.892 136.928 133.097 137.301 132.665 137.95C132.156 138.713 132.284 139.64 133.008 140.427C133.064 140.489 133.142 140.519 133.219 140.519C133.287 140.519 133.359 140.495 133.412 140.444C133.529 140.337 133.537 140.155 133.43 140.039C132.892 139.452 132.787 138.805 133.145 138.269C133.52 137.706 134.418 137.292 135.35 137.625C135.383 137.637 135.419 137.64 135.451 137.64C136.002 138.248 136.389 138.883 136.612 139.252C136.692 139.387 136.752 139.479 136.785 139.524C136.841 139.595 136.925 139.631 137.008 139.631C137.07 139.631 137.133 139.61 137.187 139.568C137.312 139.467 137.332 139.285 137.234 139.16Z" fill="#C9B8B3"/>
<path d="M150.401 128.834C152.845 126.34 157.348 125.333 157.923 125.333C155.336 123.652 151.696 124.421 150.401 128.834Z" fill="#1F0F0A"/>
<path d="M155.72 124.204C157.205 124.588 157.926 125.33 157.926 125.33C157.851 124.278 156.845 123.822 155.72 124.204Z" fill="#1F0F0A"/>
<path d="M165.158 125.381C168.465 126.197 169.661 127.875 169.661 127.875C169.087 124.612 166.358 124.805 165.158 125.381Z" fill="#1F0F0A"/>
<path d="M166.813 124.782C165.878 124.829 165.161 125.381 165.161 125.381C165.23 124.421 166.358 124.588 166.813 124.782Z" fill="#1F0F0A"/>
<path d="M160.033 149.465C158.756 149.465 157.357 148.89 156.509 147.924C156.405 147.805 156.417 147.623 156.536 147.519C156.655 147.415 156.836 147.427 156.94 147.546C157.92 148.66 159.816 149.194 161.078 148.714C161.226 148.657 161.393 148.732 161.45 148.881C161.506 149.03 161.432 149.197 161.283 149.253C160.902 149.396 160.476 149.465 160.033 149.465Z" fill="#1F0F0A"/>
<path d="M141.874 151.524C141.806 151.524 141.737 151.5 141.681 151.45C141.553 151.333 138.535 148.553 137.567 144.006C137.535 143.851 137.633 143.699 137.788 143.663C137.942 143.63 138.094 143.728 138.13 143.883C139.058 148.252 142.038 150.994 142.068 151.021C142.187 151.128 142.196 151.31 142.088 151.426C142.029 151.494 141.952 151.524 141.874 151.524Z" fill="#C9B8B3"/>
<path d="M157.262 158.891C151.214 158.891 148.243 156.462 148.109 156.349C147.987 156.247 147.973 156.066 148.074 155.943C148.175 155.821 148.357 155.806 148.479 155.908C148.514 155.938 152.038 158.801 159.101 158.241C159.262 158.226 159.399 158.348 159.411 158.506C159.423 158.664 159.304 158.804 159.146 158.816C158.488 158.87 157.857 158.891 157.262 158.891Z" fill="#C9B8B3"/>
<path d="M154.318 134.41C154.283 135.489 154.726 136.377 155.31 136.395C155.89 136.412 156.39 135.554 156.426 134.478C156.461 133.4 156.018 132.512 155.435 132.494C154.851 132.473 154.354 133.331 154.318 134.41Z" fill="#1F0F0A"/>
<path d="M155.119 137.491C155.354 137.569 155.604 137.604 155.863 137.59C155.967 137.584 156.045 137.494 156.039 137.393C156.033 137.289 155.943 137.211 155.842 137.217C154.967 137.268 154.19 136.609 153.997 135.653C153.976 135.551 153.878 135.486 153.777 135.507C153.675 135.527 153.61 135.626 153.631 135.727C153.8 136.588 154.384 137.247 155.119 137.491Z" fill="#1F0F0A"/>
<path d="M165.265 133.987C165.229 135.066 165.673 135.954 166.256 135.972C166.837 135.989 167.337 135.131 167.372 134.055C167.408 132.977 166.965 132.089 166.381 132.071C165.801 132.05 165.301 132.908 165.265 133.987Z" fill="#1F0F0A"/>
<path d="M166.066 137.065C166.301 137.143 166.551 137.178 166.81 137.163C166.914 137.157 166.991 137.068 166.985 136.967C166.98 136.862 166.89 136.785 166.789 136.791C165.914 136.842 165.137 136.183 164.944 135.226C164.923 135.125 164.825 135.06 164.723 135.08C164.622 135.101 164.557 135.2 164.578 135.301C164.75 136.165 165.331 136.824 166.066 137.065Z" fill="#1F0F0A"/>
<path d="M153.181 143.496C149.026 143.496 145.648 140.111 145.648 135.954C145.648 131.794 149.029 128.411 153.181 128.411C157.336 128.411 160.714 131.794 160.714 135.954C160.714 140.111 157.336 143.496 153.181 143.496ZM153.181 128.974C149.339 128.974 146.21 132.103 146.21 135.951C146.21 139.798 149.336 142.93 153.181 142.93C157.024 142.93 160.152 139.801 160.152 135.951C160.152 132.106 157.024 128.974 153.181 128.974Z" fill="#1F0F0A"/>
<path d="M163.706 137.178C163.536 136.594 163.447 135.977 163.447 135.34C163.447 131.701 166.405 128.739 170.039 128.739C173.674 128.739 176.632 131.701 176.632 135.34C176.632 138.978 173.674 141.94 170.039 141.94C169.563 141.94 169.099 141.89 168.652 141.794L168.885 141.335C169.26 141.407 169.644 141.446 170.039 141.446C173.403 141.446 176.138 138.707 176.138 135.34C176.138 131.972 173.403 129.234 170.039 129.234C166.676 129.234 163.941 131.972 163.941 135.34C163.941 136.144 164.099 136.916 164.381 137.619L163.706 137.178Z" fill="#1F0F0A"/>
<path d="M163.435 144.041C163.28 144.041 163.152 143.916 163.146 143.758C163.143 143.6 163.268 143.469 163.429 143.463C165.524 143.422 168.093 141.958 168.524 141.49C168.349 141.312 167.828 140.957 167.363 140.641C166.283 139.908 164.801 138.901 164.018 137.831C162.667 135.977 162.762 135.256 163.048 133.12C163.069 132.962 163.217 132.825 163.375 132.845C163.533 132.866 163.646 132.986 163.625 133.143L163.619 133.197C163.342 135.271 163.268 135.828 164.485 137.494C165.209 138.487 166.64 139.458 167.688 140.17C168.819 140.939 169.176 141.198 169.14 141.535C169.06 142.268 165.721 144 163.447 144.047C163.438 144.041 163.435 144.041 163.435 144.041Z" fill="#1F0F0A"/>
<path d="M365.762 115.308L323.697 92.3026L324.2 91.3818L365.479 113.955L400.921 68.0305L401.752 68.6742L365.762 115.308Z" fill="#85B5FF"/>
<path d="M325.7 96.0491C328.022 95.0861 329.125 92.4207 328.163 90.0957C327.201 87.7708 324.539 86.6667 322.217 87.6298C319.895 88.5928 318.792 91.2583 319.754 93.5832C320.716 95.9082 323.378 97.0122 325.7 96.0491Z" fill="#85B5FF"/>
<path d="M365.619 119.188C368.132 119.188 370.17 117.148 370.17 114.632C370.17 112.115 368.132 110.075 365.619 110.075C363.105 110.075 361.068 112.115 361.068 114.632C361.068 117.148 363.105 119.188 365.619 119.188Z" fill="#85B5FF"/>
<path d="M403.089 72.5561C405.411 71.5931 406.514 68.9276 405.552 66.6027C404.59 64.2777 401.928 63.1737 399.606 64.1367C397.284 65.0998 396.181 67.7652 397.143 70.0902C398.105 72.4151 400.767 73.5191 403.089 72.5561Z" fill="#85B5FF"/>
<path d="M253.97 101.263L246.263 108.979L247.934 110.652L255.641 102.936L253.97 101.263Z" fill="#000F4E"/>
<path d="M247.934 101.263L246.263 102.936L253.97 110.652L255.641 108.979L247.934 101.263Z" fill="#000F4E"/>
<path d="M69.2123 173.558C70.2759 173.558 71.138 172.695 71.138 171.63C71.138 170.565 70.2759 169.702 69.2123 169.702C68.1488 169.702 67.2866 170.565 67.2866 171.63C67.2866 172.695 68.1488 173.558 69.2123 173.558Z" fill="#85B5FF"/>
<path d="M80.5941 171.63C80.5941 172.694 79.7309 173.558 78.6684 173.558C77.6058 173.558 76.7427 172.694 76.7427 171.63C76.7427 170.566 77.6058 169.702 78.6684 169.702C79.7309 169.699 80.5941 170.563 80.5941 171.63Z" fill="#85B5FF"/>
<path d="M89.5228 171.63C89.5228 172.694 88.6596 173.558 87.5971 173.558C86.5345 173.558 85.6714 172.694 85.6714 171.63C85.6714 170.566 86.5345 169.702 87.5971 169.702C88.6596 169.699 89.5228 170.563 89.5228 171.63Z" fill="#85B5FF"/>
<path d="M97.9281 171.63C97.9281 172.694 97.0649 173.558 96.0024 173.558C94.9398 173.558 94.0767 172.694 94.0767 171.63C94.0767 170.566 94.9398 169.702 96.0024 169.702C97.0649 169.699 97.9281 170.563 97.9281 171.63Z" fill="#85B5FF"/>
<path d="M69.2123 165.143C70.2759 165.143 71.138 164.28 71.138 163.215C71.138 162.15 70.2759 161.287 69.2123 161.287C68.1488 161.287 67.2866 162.15 67.2866 163.215C67.2866 164.28 68.1488 165.143 69.2123 165.143Z" fill="#85B5FF"/>
<path d="M80.5941 163.215C80.5941 164.279 79.7309 165.143 78.6684 165.143C77.6058 165.143 76.7427 164.279 76.7427 163.215C76.7427 162.151 77.6058 161.287 78.6684 161.287C79.7309 161.287 80.5941 162.151 80.5941 163.215Z" fill="#85B5FF"/>
<path d="M89.5228 163.215C89.5228 164.279 88.6596 165.143 87.5971 165.143C86.5345 165.143 85.6714 164.279 85.6714 163.215C85.6714 162.151 86.5345 161.287 87.5971 161.287C88.6596 161.287 89.5228 162.151 89.5228 163.215Z" fill="#85B5FF"/>
<path d="M97.9281 163.215C97.9281 164.279 97.0649 165.143 96.0024 165.143C94.9398 165.143 94.0767 164.279 94.0767 163.215C94.0767 162.151 94.9398 161.287 96.0024 161.287C97.0649 161.287 97.9281 162.151 97.9281 163.215Z" fill="#85B5FF"/>
<path d="M71.138 181.095C71.138 182.159 70.2749 183.023 69.2123 183.023C68.1498 183.023 67.2866 182.159 67.2866 181.095C67.2866 180.031 68.1498 179.167 69.2123 179.167C70.2779 179.167 71.138 180.031 71.138 181.095Z" fill="#85B5FF"/>
<path d="M80.5941 181.095C80.5941 182.159 79.7309 183.023 78.6684 183.023C77.6058 183.023 76.7427 182.159 76.7427 181.095C76.7427 180.031 77.6058 179.167 78.6684 179.167C79.7309 179.167 80.5941 180.031 80.5941 181.095Z" fill="#85B5FF"/>
<path d="M89.5228 181.095C89.5228 182.159 88.6596 183.023 87.5971 183.023C86.5345 183.023 85.6714 182.159 85.6714 181.095C85.6714 180.031 86.5345 179.167 87.5971 179.167C88.6596 179.167 89.5228 180.031 89.5228 181.095Z" fill="#85B5FF"/>
<path d="M97.9281 181.095C97.9281 182.159 97.0649 183.023 96.0024 183.023C94.9398 183.023 94.0767 182.159 94.0767 181.095C94.0767 180.031 94.9398 179.167 96.0024 179.167C97.0649 179.167 97.9281 180.031 97.9281 181.095Z" fill="#85B5FF"/>
<path d="M519.714 243.591H505.007V258.315H519.714V243.591Z" fill="#66A2FE"/>
<path d="M94.1487 387.685L83.75 377.273L73.3513 387.685L83.75 398.096L94.1487 387.685Z" fill="#8A6BFE"/>
<path d="M99.6787 405.569V395.929H90.0502V405.569H99.6787Z" fill="#5281EA"/>
<path d="M315.967 237.801C317.608 236.158 317.608 233.493 315.967 231.85C314.326 230.207 311.665 230.207 310.024 231.85C308.383 233.493 308.383 236.158 310.024 237.801C311.665 239.444 314.326 239.444 315.967 237.801Z" fill="#8A6BFE"/>
<path d="M324.096 235.659H314.381L319.238 224.615L324.096 235.659Z" fill="#FFD35A"/>
<path d="M513.181 423.395H503.463L508.323 412.352L513.181 423.395Z" fill="#8A6BFE"/>
<path d="M504.955 429.651C507.776 426.827 507.776 422.248 504.955 419.423C502.134 416.599 497.56 416.599 494.739 419.423C491.918 422.248 491.918 426.827 494.739 429.651C497.56 432.476 502.134 432.476 504.955 429.651Z" fill="#FFD35A"/>
<path d="M164.286 137.357C164.182 137.357 164.084 137.295 164.042 137.193C163.733 136.427 163.161 135.945 162.432 135.84C161.494 135.703 160.438 136.213 159.676 137.17C159.587 137.283 159.42 137.304 159.307 137.211C159.194 137.122 159.176 136.955 159.265 136.842C160.14 135.739 161.387 135.152 162.506 135.319C163.426 135.453 164.146 136.049 164.527 136.997C164.581 137.131 164.515 137.286 164.382 137.339C164.352 137.351 164.319 137.357 164.286 137.357Z" fill="#1F0F0A"/>
<path d="M145.848 136.088C145.743 136.088 142.675 135.453 136.734 134.198C136.591 134.169 136.502 134.029 136.532 133.885C136.561 133.742 136.701 133.653 136.844 133.683C140.341 134.422 145.633 135.53 145.877 135.563C146.023 135.563 146.127 135.679 146.127 135.825C146.121 135.969 145.993 136.088 145.848 136.088Z" fill="#1F0F0A"/>
</svg>
