<svg width="175" height="190" viewBox="0 0 175 190" fill="none" xmlns="http://www.w3.org/2000/svg">
<path d="M84.8309 0L92.7472 76.5087L16.0126 87.3273C16.0126 87.3273 3.20019 15.4095 84.8309 0Z" fill="#DCDFF1"/>
<path d="M91.0234 5.742L108.153 152.891C108.153 152.891 177.031 151.507 174.617 76.5087C172.195 1.51037 91.0234 5.742 91.0234 5.742Z" fill="#6459EB"/>
<path d="M22.7376 86.7352C21.9726 82.6566 21.5801 78.4648 21.5801 74.2798C21.5801 38.2377 49.7527 8.66289 85.7152 6.93964L85.7817 8.27034C50.5244 9.95368 22.9105 38.9497 22.9105 74.2798C22.9105 78.385 23.2897 82.4902 24.0414 86.4956L22.7376 86.7352Z" fill="white"/>
<path d="M104.528 45.011C104.528 45.9291 104.156 46.7608 103.55 47.3663C102.951 47.9651 102.12 48.3377 101.195 48.3377H3.32617C1.49012 48.3377 0 46.8473 0 45.011C0 44.0928 0.372531 43.2544 0.977893 42.6556C1.5766 42.0501 2.40814 41.6776 3.32617 41.6776H101.195C103.038 41.6776 104.528 43.1679 104.528 45.011Z" fill="#F4C571"/>
<path d="M104.528 61.8777C104.528 62.7958 104.156 63.6275 103.55 64.2263C102.951 64.8318 102.12 65.2044 101.195 65.2044H3.32617C1.49012 65.2044 0 63.714 0 61.8777C0 60.9528 0.372531 60.1211 0.977893 59.5223C1.5766 58.9168 2.40814 58.5443 3.32617 58.5443H101.195C103.038 58.5443 104.528 60.0346 104.528 61.8777Z" fill="#F66956"/>
<path d="M104.528 45.011C104.528 45.9291 104.156 46.7608 103.55 47.3663C102.952 47.9651 102.12 48.3377 101.196 48.3377H80.1875V41.6776H101.196C103.038 41.6776 104.528 43.1679 104.528 45.011Z" fill="#F86550"/>
<path d="M18.886 58.5443V65.2044H3.32617C1.49012 65.2044 0 63.714 0 61.8777C0 60.9528 0.372531 60.1211 0.977893 59.5223C1.5766 58.9168 2.40814 58.5443 3.32617 58.5443H18.886Z" fill="#FFBB51"/>
<path d="M40.7188 81.1795C40.7188 81.1795 43.22 68.7707 43.4861 64.4858C43.7522 60.201 44.4707 48.5972 50.8037 48.4176C50.8037 48.4176 50.4578 43.0083 58.1346 43.4541C58.1346 43.4541 69.6497 38.6569 71.7186 51.578C71.7186 51.578 77.0338 47.0736 81.6838 47.1468C86.3338 47.22 84.857 52.1702 83.307 53.1283C81.757 54.0864 78.4308 53.94 76.8076 56.7478C75.1845 59.5556 69.8427 65.903 67.7139 66.941L65.991 81.1861H40.7188V81.1795Z" fill="#FFA898"/>
<path d="M66.3305 81.2194L65.6719 81.1395L67.4148 66.7147L67.5811 66.6349C69.63 65.6435 74.9319 59.336 76.5351 56.5748C77.7059 54.5521 79.7083 53.9733 81.3115 53.5142C82.0166 53.3146 82.6885 53.1216 83.1409 52.8355C83.9126 52.3565 84.7973 50.5401 84.4048 49.0962C84.1188 48.0516 83.1808 47.4927 81.6907 47.4661L81.704 46.8008C84.1188 46.8407 84.8372 48.1448 85.0501 48.9166C85.5091 50.58 84.5778 52.7291 83.5001 53.3944C82.9679 53.7271 82.2561 53.9267 81.4978 54.1463C79.9278 54.5987 78.1516 55.1044 77.1139 56.9008C75.5107 59.6753 70.3352 65.8498 68.0401 67.1406L66.3305 81.2194Z" fill="white"/>
<path d="M79.2892 51.5913C83.0771 51.5913 86.1478 48.5201 86.1478 44.7315C86.1478 40.943 83.0771 37.8718 79.2892 37.8718C75.5013 37.8718 72.4307 40.943 72.4307 44.7315C72.4307 48.5201 75.5013 51.5913 79.2892 51.5913Z" fill="white"/>
<path d="M23.423 68.7374C27.2109 68.7374 30.2816 65.6662 30.2816 61.8776C30.2816 58.0891 27.2109 55.0179 23.423 55.0179C19.6351 55.0179 16.5645 58.0891 16.5645 61.8776C16.5645 65.6662 19.6351 68.7374 23.423 68.7374Z" fill="white"/>
<path d="M79.3556 38.444C76.8078 41.0788 74.0204 39.9876 73.129 40.4001C72.2376 40.8126 68.3859 41.8838 67.5544 44.7315L59.1924 44.1993C59.1924 44.1993 62.6316 36.0753 70.1022 34.5317C77.5728 32.9881 80.4931 37.2663 79.3556 38.444Z" fill="#FFA696"/>
<path d="M63.4038 62.8757C63.324 62.8757 63.2442 62.849 63.1843 62.7958C63.0446 62.6761 63.0313 62.4631 63.1577 62.3234C63.1976 62.2768 67.1624 57.7059 66.1512 52.6492C65.4793 49.3025 62.8118 46.4748 58.215 44.2325C58.0487 44.1527 57.9822 43.9531 58.062 43.7867C58.1418 43.6204 58.3414 43.5539 58.5077 43.6337C63.304 45.9691 66.0914 48.9632 66.8032 52.5228C67.8742 57.9055 63.8296 62.5696 63.6566 62.7625C63.5901 62.8357 63.4969 62.8757 63.4038 62.8757Z" fill="#F0766F"/>
<path d="M65.7182 59.4425C65.5586 59.4425 65.4189 59.3294 65.3923 59.1697C65.359 58.99 65.4787 58.817 65.6584 58.7838C71.5191 57.6793 71.3993 52.4696 71.3927 52.25C71.386 52.0637 71.5324 51.9107 71.712 51.904C71.8849 51.8974 72.0513 52.0371 72.0579 52.2234C72.0579 52.2833 72.2176 58.2249 65.7848 59.4358C65.7581 59.4425 65.7382 59.4425 65.7182 59.4425Z" fill="#F0766F"/>
<path d="M56.2057 64.0799C54.4827 64.0799 52.7997 63.4611 51.9881 62.8024C50.8306 61.8643 50.0922 60.5003 50.0523 59.2495C50.0257 58.3246 50.3583 57.5129 51.0235 56.8941C52.8196 55.2307 56.2988 58.125 56.4452 58.2448C56.5849 58.3645 56.6048 58.5708 56.4851 58.7105C56.3653 58.8503 56.1591 58.8702 56.0194 58.7505C55.1413 58.0119 52.6134 56.3286 51.4759 57.3732C50.957 57.8522 50.6909 58.491 50.7175 59.2162C50.7508 60.2808 51.4027 61.4518 52.4072 62.2768C53.3252 63.022 56.0394 63.9202 58.1681 63.0553C59.6582 62.4431 60.5297 61.1058 60.7625 59.0632C61.1617 55.5302 60.5031 52.7756 58.8599 51.0856C57.2501 49.4289 54.6889 48.7436 51.243 49.043C51.0701 49.0629 50.8971 48.9232 50.8838 48.7436C50.8705 48.5639 51.0035 48.3976 51.1832 48.3843C54.8353 48.0649 57.576 48.8168 59.3323 50.6199C61.1217 52.4562 61.8402 55.3971 61.4211 59.1364C61.0951 61.9974 59.6117 63.1817 58.4209 63.6674C57.7224 63.9668 56.964 64.0799 56.2057 64.0799Z" fill="#F0766F"/>
<path d="M133.093 66.4951C137.759 66.4951 141.541 62.712 141.541 58.0452C141.541 53.3784 137.759 49.5952 133.093 49.5952C128.427 49.5952 124.645 53.3784 124.645 58.0452C124.645 62.712 128.427 66.4951 133.093 66.4951Z" fill="#35164B"/>
<path d="M146.238 85.9234C151.433 85.9234 155.645 81.7113 155.645 76.5154C155.645 71.3194 151.433 67.1073 146.238 67.1073C141.043 67.1073 136.832 71.3194 136.832 76.5154C136.832 81.7113 141.043 85.9234 146.238 85.9234Z" fill="#35164B"/>
<path d="M127.193 90.2615C136.444 90.2615 143.944 83.139 143.944 74.3529C143.944 65.5669 136.444 58.4444 127.193 58.4444C117.942 58.4444 110.442 65.5669 110.442 74.3529C110.442 83.139 117.942 90.2615 127.193 90.2615Z" fill="#35164B"/>
<path d="M145.081 155.127H114.354L81.2783 85.3246C83.2275 83.6812 94.3635 84.3399 103.524 85.2048C110.356 85.8502 116.09 86.6087 116.09 86.6087L116.017 83.0557C105.952 81.0065 110.342 69.1965 110.342 69.1965C110.342 69.1965 110.569 65.1844 111.706 65.6435C112.837 66.0959 114.806 65.6435 114.806 65.6435C121.771 57.3865 132.368 62.6893 132.368 62.6893C126.508 65.8631 120.634 73.335 121.824 82.1841C123.022 91.0333 129.381 90.2349 129.381 90.2349C130.373 91.0333 133.951 92.7233 133.951 92.7233C149.658 96.7952 154.826 102.783 156.097 112.631C157.368 122.484 145.081 155.127 145.081 155.127Z" fill="#FFBB4E"/>
<path d="M133.951 92.7233C127.033 97.2876 109.883 102.231 104.335 96.5424C100.484 92.5969 102.147 87.7797 103.524 85.2048C110.356 85.8502 116.09 86.6087 116.09 86.6087L116.017 83.0557C105.952 81.0065 110.342 69.1965 110.342 69.1965C110.342 69.1965 110.568 65.1844 111.706 65.6435C112.837 66.0959 114.806 65.6435 114.806 65.6435C121.771 57.3865 132.368 62.6893 132.368 62.6893C126.507 65.8631 120.633 73.335 121.824 82.1841C123.022 91.0333 129.381 90.2349 129.381 90.2349C130.372 91.0333 133.951 92.7233 133.951 92.7233Z" fill="#FFA896"/>
<path d="M121.824 82.1842C123.022 91.0333 129.381 90.2349 129.381 90.2349C130.372 91.0333 133.951 92.7233 133.951 92.7233C127.033 97.2876 109.883 102.231 104.335 96.5424C100.484 92.5969 102.147 87.7797 103.524 85.2048C110.356 85.8502 116.09 86.6087 116.09 86.6087L116.017 83.0558C105.952 81.0065 110.342 69.1965 110.342 69.1965C110.342 69.1965 110.568 65.1844 111.706 65.6435C112.837 66.096 114.806 65.6435 114.806 65.6435" fill="#FFA896"/>
<path d="M116.429 86.9879L116.043 86.9347C115.984 86.9281 110.236 86.1696 103.49 85.5308C86.3141 83.9074 82.336 84.8588 81.4912 85.5707L81.0654 85.0651C82.7086 83.6812 90.2723 83.6146 103.557 84.8655C109.318 85.4111 114.354 86.0431 115.751 86.2228L115.691 83.3219C113.11 82.7364 111.247 81.4522 110.163 79.5028C107.874 75.3842 109.79 69.7487 110.016 69.1233C110.056 68.4912 110.263 65.9363 111.127 65.3907C111.347 65.2509 111.586 65.231 111.839 65.3308C112.717 65.6834 114.221 65.4173 114.633 65.3374C121.691 57.1004 132.415 62.3367 132.521 62.3899L132.222 62.9821C132.115 62.9289 121.771 57.8988 115.065 65.8498L114.992 65.9363L114.886 65.9629C114.799 65.9828 112.804 66.4353 111.586 65.9496C111.533 65.9296 111.513 65.9362 111.48 65.9562C111.081 66.209 110.755 67.8458 110.675 69.2164L110.655 69.3162C110.635 69.3761 108.52 75.1846 110.741 79.19C111.766 81.0264 113.562 82.224 116.083 82.7364L116.343 82.7896L116.429 86.9879Z" fill="white"/>
<path d="M116.27 88.9841C116.097 88.9841 115.957 88.851 115.937 88.678L115.751 86.6354C115.738 86.4557 115.871 86.2894 116.05 86.2761C116.23 86.2561 116.396 86.3958 116.409 86.5755L116.596 88.6181C116.609 88.7978 116.476 88.9641 116.296 88.9774C116.29 88.9841 116.283 88.9841 116.27 88.9841Z" fill="white"/>
<path d="M113.868 113.156V115.631C113.868 116.749 113.276 117.727 112.384 118.273C111.912 118.566 111.36 118.732 110.768 118.732H36.2816C34.379 118.732 32.6893 117.494 32.1172 115.678L21.8926 83.3352L21.3405 81.5787C20.8615 80.0617 21.9924 78.5114 23.589 78.5114H80.473C81.4775 78.5114 82.369 79.1502 82.7016 80.095L93.0726 110.056H110.781C112.477 110.056 113.868 111.446 113.868 113.156Z" fill="#35174D"/>
<path d="M113.868 113.156V115.631C113.868 116.749 113.276 117.727 112.384 118.273V113.269C112.384 111.633 110.535 111.613 110.448 111.613H92.1146C92.1146 111.613 83.5597 87.1211 82.3091 83.4284C81.0518 79.7423 78.3975 80.1815 78.3975 80.1815C78.3975 80.1815 28.984 80.2546 25.5913 80.1815C22.1986 80.1083 21.8926 83.3352 21.8926 83.3352L21.254 81.3192C20.8149 79.9286 21.8527 78.5114 23.3162 78.5114H80.6061C81.5241 78.5114 82.349 79.0969 82.6484 79.9619L93.0593 110.056H110.768C112.477 110.056 113.868 111.446 113.868 113.156Z" fill="white"/>
<path d="M69.2637 127.721C69.2637 127.721 64.5272 128.566 61.4405 125.073C58.3539 121.58 55.6198 117.128 55.6198 117.128C55.6198 117.128 54.6951 114.959 56.3049 113.356C57.9082 111.752 61.0813 114.161 61.8397 115.365C61.8397 115.365 60.8352 111.193 63.1236 109.63C65.412 108.066 66.7757 110.874 66.7757 110.874C66.7757 110.874 66.4963 109.43 67.86 108.865C69.2238 108.306 71.3525 108.06 73.1553 111.633C74.9581 115.206 76.6877 119.218 76.6877 119.218L74.9647 111.712C74.9647 111.712 74.2396 109.457 76.1289 108.539C78.0115 107.621 80.7456 110.029 82.0295 112.957C83.3134 115.884 84.3977 118.572 84.3977 118.572L86.3668 118.612C86.3668 118.612 87.2915 117.647 88.2494 117.488C89.214 117.328 97.7955 115.359 101.408 121.021C105.02 126.676 116.681 152.039 116.681 152.039L122.589 138.479L147.196 149.464C147.196 149.464 132.867 197.183 113.142 188.54C97.2035 181.561 80.9851 127.295 80.9851 127.295C80.9851 127.295 76.2553 128.526 74.4658 127.255C74.4658 127.262 73.4946 129.444 69.2637 127.721Z" fill="#FFA896"/>
<path d="M116.689 152.831L116.376 152.186C116.243 151.913 103.091 124.973 99.5322 119.391C99.4324 119.238 99.479 119.031 99.632 118.931C99.785 118.832 99.9912 118.878 100.091 119.031C103.357 124.154 114.62 147.082 116.655 151.241L122.277 138.34C122.35 138.173 122.549 138.094 122.716 138.167C122.882 138.24 122.962 138.44 122.889 138.606L116.689 152.831Z" fill="white"/>
<path d="M59.8148 102.933C61.3019 101.592 61.0596 98.8986 59.2735 96.9173C57.4875 94.9359 54.8341 94.4168 53.347 95.7578C51.8598 97.0988 52.1022 99.7921 53.8882 101.773C55.6742 103.755 58.3276 104.274 59.8148 102.933Z" fill="white"/>
<path d="M122.582 138.812C122.542 138.812 122.502 138.805 122.462 138.792C122.289 138.726 122.203 138.533 122.27 138.36L128.722 121.42C128.789 121.247 128.982 121.16 129.148 121.227C129.321 121.293 129.407 121.486 129.341 121.659L122.888 138.599C122.842 138.732 122.715 138.812 122.582 138.812Z" fill="white"/>
<path d="M97.0244 126.397C96.8714 126.397 96.7383 126.29 96.6984 126.137C96.6984 126.124 96.3725 124.813 95.0752 124.148C94.5896 123.895 93.3855 123.922 92.1083 123.948C89.8731 123.995 87.0924 124.055 85.6555 122.757C84.9837 122.145 84.6577 121.466 84.6976 120.741C84.7708 119.377 86.1079 118.379 86.1678 118.339C86.3141 118.233 86.527 118.266 86.6334 118.412C86.7399 118.559 86.7133 118.772 86.5603 118.878C86.547 118.885 85.4161 119.737 85.3628 120.781C85.3362 121.3 85.589 121.799 86.1079 122.265C87.3452 123.383 89.9862 123.329 92.1017 123.283C93.5851 123.25 94.7559 123.223 95.3879 123.556C96.9712 124.367 97.3437 125.924 97.357 125.991C97.3969 126.17 97.2838 126.35 97.1109 126.39C97.0776 126.39 97.051 126.397 97.0244 126.397Z" fill="#F0766F"/>
<path d="M81.2845 125.938C81.2113 125.938 81.1382 125.911 81.0783 125.864C80.9452 125.758 77.8053 123.21 76.3751 119.331C76.3086 119.158 76.4017 118.965 76.5747 118.905C76.7476 118.845 76.9405 118.931 77.0004 119.104C78.3641 122.81 81.4641 125.325 81.4974 125.352C81.6437 125.465 81.6637 125.678 81.5506 125.818C81.4774 125.891 81.3843 125.938 81.2845 125.938Z" fill="#F0766F"/>
<path d="M73.6475 126.936C73.5477 126.936 73.4479 126.889 73.3814 126.803C73.3282 126.729 67.8466 119.331 66.4497 110.914C66.4164 110.734 66.5428 110.561 66.7224 110.535C66.902 110.501 67.075 110.628 67.1016 110.808C68.4653 119.058 73.8537 126.33 73.9069 126.403C74.02 126.55 73.9868 126.756 73.8404 126.869C73.7872 126.916 73.714 126.936 73.6475 126.936Z" fill="#F0766F"/>
<path d="M69.264 128.053C69.1642 128.053 69.0578 128.007 68.9912 127.914C68.7584 127.594 63.2436 119.963 61.5273 115.478C61.4608 115.305 61.5473 115.112 61.7202 115.046C61.8932 114.979 62.0861 115.066 62.1526 115.239C63.8357 119.643 69.4768 127.441 69.5367 127.521C69.6432 127.668 69.6099 127.88 69.4635 127.987C69.4037 128.033 69.3305 128.053 69.264 128.053Z" fill="#F0766F"/>
<path d="M120.46 160.21C120.334 160.21 120.221 160.143 120.161 160.024L116.375 152.179C116.296 152.013 116.362 151.813 116.528 151.733C116.695 151.653 116.894 151.72 116.974 151.886L120.759 159.731C120.839 159.897 120.773 160.097 120.606 160.177C120.553 160.203 120.507 160.21 120.46 160.21Z" fill="white"/>
<path d="M124.352 70.9796C124.093 70.9796 123.873 70.78 123.853 70.5138C123.607 66.8611 121.113 66.7812 121.006 66.7812C120.733 66.7746 120.507 66.555 120.514 66.2822C120.514 66.0094 120.733 65.7832 121.013 65.7832C121.046 65.7832 124.545 65.8364 124.851 70.4473C124.871 70.7201 124.658 70.9596 124.385 70.9796C124.372 70.9796 124.359 70.9796 124.352 70.9796Z" fill="#35164B"/>
<path d="M110.781 72.317C110.781 72.317 114.294 72.7894 115.504 71.7382C115.498 71.7382 114.453 77.041 110.781 72.317Z" fill="#FA6F6C"/>
<path d="M131.923 73.5745C131.923 73.5745 128.829 78.3517 130.665 82.6033C130.665 82.6033 135.229 82.916 135.701 78.9838C136.173 75.0449 131.923 73.5745 131.923 73.5745Z" fill="#FDA995"/>
<path d="M117.427 83.5348C116.589 83.5348 115.99 83.3951 115.937 83.3818C115.757 83.3419 115.651 83.1622 115.691 82.9826C115.731 82.8029 115.917 82.6898 116.09 82.7364C116.11 82.743 118.438 83.282 120.314 82.111C120.467 82.0112 120.674 82.0644 120.773 82.2174C120.873 82.3704 120.827 82.5767 120.667 82.6765C119.563 83.3618 118.345 83.5348 117.427 83.5348Z" fill="#F0766F"/>
<path d="M119.868 71.0195C120.496 71.0195 121.006 70.5101 121.006 69.8818C121.006 69.2534 120.496 68.744 119.868 68.744C119.24 68.744 118.73 69.2534 118.73 69.8818C118.73 70.5101 119.24 71.0195 119.868 71.0195Z" fill="#35164B"/>
<path d="M134.284 78.7908C134.151 78.7908 134.025 78.711 133.972 78.5779C133.725 77.9392 133.406 77.5533 133.014 77.4269C132.521 77.2739 132.062 77.5733 132.056 77.5799C131.903 77.6797 131.697 77.6398 131.597 77.4868C131.497 77.3337 131.537 77.1275 131.69 77.0277C131.716 77.0077 132.428 76.5486 133.22 76.7948C133.812 76.9811 134.278 77.5001 134.604 78.3384C134.67 78.5114 134.584 78.7044 134.411 78.7709C134.364 78.7775 134.324 78.7908 134.284 78.7908Z" fill="#F0766F"/>
<path d="M71.7122 52.2367C71.5326 52.2367 71.3796 52.0903 71.3796 51.9107C71.333 48.9632 70.415 46.7343 68.6654 45.2771C65.4324 42.5958 60.3633 43.4275 60.3101 43.4341C60.1305 43.4674 59.9575 43.341 59.9243 43.1613C59.891 42.9817 60.0174 42.8087 60.197 42.7754C60.4165 42.7355 65.612 41.8839 69.0845 44.7582C70.9938 46.3417 71.9916 48.7436 72.0448 51.8974C72.0448 52.0837 71.8985 52.2367 71.7122 52.2367Z" fill="#F0766F"/>
</svg>
