<svg width="257" height="195" viewBox="0 0 257 195" fill="none" xmlns="http://www.w3.org/2000/svg">
<path d="M74.307 0.00645633C65.3838 -0.218155 64.6555 5.49241 64.6555 5.49241C64.6555 5.49241 61.1911 1.39496 56.2564 3.92014C51.3218 6.4385 53.1051 11.271 53.1051 11.271C53.1051 11.271 46.1761 11.271 45.1212 18.3089C44.0662 25.3467 50.4778 28.076 50.4778 28.076C50.4778 28.076 47.5374 36.373 56.4606 35.7401L86.7083 38.1563C86.7083 38.1563 92.8 35.3181 90.4858 28.4912C90.4858 28.4912 94.3654 24.8294 91.0099 19.044C91.0099 19.044 92.589 14.5177 89.0156 9.90296C85.4423 5.28141 81.7668 7.48669 81.7668 7.48669C81.7668 7.48669 81.5422 0.190229 74.307 0.00645633Z" fill="#223D4E"/>
<path d="M100.573 47.5968L100.362 67.982L71.3735 73.4407L63.9749 58.7865C63.9749 58.7865 73.3746 57.6907 74.3139 56.3294C74.5929 55.9346 74.4704 55.2812 74.1641 54.5597C73.4222 52.8173 71.5845 50.6597 71.5845 50.6597C57.9377 54.6482 57.8288 40.4705 57.6178 38.1631C57.4068 35.8558 54.1533 29.8661 54.1533 29.8661C54.1533 29.8661 57.3319 29.4169 59.6189 26.143C61.1639 23.9241 59.4147 20.133 59.4147 20.133C61.6199 20.6162 63.764 18.479 63.764 18.479C68.9436 20.8953 71.2918 16.8251 71.2918 16.8251C73.1568 20.344 79.5752 19.6565 79.9972 19.7927C80.4124 19.9288 81.0318 29.7368 81.0318 30.7033C81.0318 31.6698 81.7941 33.3238 83.7952 32.6363C85.7963 31.9489 85.7963 25.5917 85.7963 25.5917C85.7963 25.5917 90.1455 27.1095 90.2204 30.4923C90.2885 33.8751 85.6669 34.8008 85.6669 34.8008C86.191 38.2652 95.121 48.4544 95.121 48.4544L100.573 47.5968Z" fill="#F8A994"/>
<path d="M74.1626 54.5529C73.4207 52.8105 71.583 50.6529 71.583 50.6529C82.8544 46.0926 82.4324 39.1569 82.4324 39.1569C83.9094 49.1623 74.1626 54.5529 74.1626 54.5529Z" fill="#F26E71"/>
<path d="M69.6374 57.9085C69.6374 57.9085 69.4537 67.1992 71.5841 68.3767C73.7145 69.5542 89.3556 67.5191 97.8159 58.2012L97.8091 48.0324L103.601 46.5282L110.877 146.215H76.1307L66.2002 61.0735L66.7787 58.3577L69.6374 57.9085Z" fill="#233D4D"/>
<path d="M99.0132 47.7125C99.0132 47.7125 122.645 36.6045 135.291 50.6188C147.938 64.6332 209.086 145.527 209.086 145.527L106.459 146.276C106.459 146.276 97.9855 67.9003 99.0132 47.7125Z" fill="#6459EB"/>
<path d="M67.6436 58.2488C67.6436 58.2488 79.3847 145.167 81.869 146.283L57.5293 146.773L51.4921 120.949L41.0238 146.487L3.9834 146.276L32.3729 70.3302C32.3729 70.3302 34.3467 64.4018 48.5993 61.5907C62.8519 58.7865 67.6436 58.2488 67.6436 58.2488Z" fill="#6459EB"/>
<path d="M57.5348 146.773L46.4199 98.8421L48.2576 96.8547L58.9845 146.732L57.5348 146.773Z" fill="white"/>
<path d="M212.647 165.102L148.191 88.5033C148.191 88.5033 144.631 60.8625 128.391 64.5515C112.294 68.2134 117.902 84.5692 120.529 89.8169C123.15 95.0578 124.579 103.879 120.529 111.74C116.48 119.602 111.817 139.531 119.856 151.217C119.856 151.217 108.53 165.463 120.039 174.414C131.542 183.371 212.647 165.102 212.647 165.102Z" fill="#F8A799"/>
<path d="M164.681 37.4348L113.939 182.363C111.802 188.469 116.335 194.86 122.801 194.86H189.068C197.672 194.86 205.315 189.374 208.072 181.22L254.396 44.0507C256.656 37.3668 251.68 30.4447 244.629 30.4447H174.537C170.099 30.4447 166.151 33.2489 164.681 37.4348Z" fill="#1F3B4F"/>
<path d="M168.514 41.5051L169.48 38.7961C170.46 36.0463 173.067 34.2086 175.987 34.2086H241.846C244.419 34.2086 246.243 36.7338 245.426 39.1773L244.657 41.5051L199.456 177.728C198.135 181.71 194.405 184.399 190.212 184.399H123.156C120.352 184.399 118.391 181.615 119.337 178.974" fill="white"/>
<path d="M245.426 39.1773L244.657 41.5051H168.514L169.48 38.7961C170.46 36.0463 173.067 34.2086 175.987 34.2086H241.846C244.419 34.2086 246.243 36.7338 245.426 39.1773Z" fill="#EDEAEC"/>
<path d="M232.745 60.0389C226.783 65.4568 230.567 74.1962 233.637 77.5586C236.707 80.9209 240.661 84.3854 240.661 84.3854C239.742 83.5822 236.176 84.2016 235.141 84.365C229.941 85.1885 227.355 88.8368 226.388 93.7714C225.857 96.5008 225.667 99.8631 226.803 102.497C226.572 101.959 221.202 104.675 220.678 105.002C217.417 107.03 215.688 109.753 215.491 113.626C215.307 117.213 216.512 120.834 218.683 123.679C218.472 123.406 215.899 125.53 215.736 125.687C212.945 128.341 211.591 132.479 211.788 136.284C212.006 140.361 214.579 143.751 216.798 146.991L218.186 149.019L212.646 164.857C212.646 164.857 237.884 155.955 235.114 136.352C235.114 136.352 250.353 127.742 242.24 115.171C242.24 115.171 250.456 109.726 252.239 104.28C254.022 98.8354 250.163 92.3012 250.163 92.3012C250.163 92.3012 258.773 83.099 256.595 70.3302C254.417 57.5614 240.266 53.2053 232.745 60.0389Z" fill="#F8A690"/>
<path d="M221.678 154.294C221.563 154.294 221.447 154.239 221.372 154.137L217.894 149.237C217.772 149.067 217.812 148.835 217.983 148.713C218.153 148.59 218.384 148.631 218.507 148.801L221.985 153.702C222.107 153.872 222.066 154.103 221.896 154.226C221.828 154.273 221.753 154.294 221.678 154.294Z" fill="#F26E71"/>
<path d="M227.729 125.741C227.641 125.741 227.545 125.707 227.471 125.639C224.061 122.447 218.847 124.019 218.799 124.039C218.602 124.101 218.391 123.992 218.33 123.794C218.268 123.597 218.377 123.386 218.575 123.325C218.806 123.25 224.251 121.603 227.981 125.094C228.131 125.237 228.138 125.476 228.001 125.625C227.933 125.7 227.831 125.741 227.729 125.741Z" fill="#F26E71"/>
<path d="M230.88 103.872C230.799 103.872 230.717 103.845 230.649 103.79C230.629 103.777 228.805 102.354 226.906 102.858C226.708 102.912 226.497 102.79 226.449 102.593C226.395 102.395 226.518 102.184 226.715 102.136C228.981 101.538 231.03 103.137 231.112 103.205C231.275 103.334 231.302 103.566 231.173 103.729C231.098 103.824 230.989 103.872 230.88 103.872Z" fill="#F26E71"/>
<path d="M244.752 87.9043C244.671 87.9043 244.589 87.8771 244.521 87.8294L240.437 84.6849C240.274 84.5556 240.24 84.3241 240.369 84.1608C240.492 83.9974 240.73 83.9634 240.893 84.0927L244.977 87.2373C245.14 87.3666 245.174 87.598 245.045 87.7614C244.977 87.8566 244.868 87.9043 244.752 87.9043Z" fill="#F26E71"/>
<path d="M229.485 126.823C229.485 126.823 225.721 135.951 220.474 136.842C220.474 136.842 228.594 151.796 233.44 142.485C236.632 136.352 229.485 126.823 229.485 126.823Z" fill="#FBCBC1"/>
<path d="M224.652 117.362C224.652 117.362 232.18 111.625 232.03 104.839C232.03 104.839 239.783 109.31 240.008 114.681C240.232 120.051 235.686 128.763 224.652 117.362Z" fill="#FBCBC1"/>
<path d="M241.049 85.8283C241.049 85.8283 239.531 96.4872 234.365 98.7945C234.365 98.7945 241.927 108.786 248.502 100.959C253.723 94.7515 241.049 85.8283 241.049 85.8283Z" fill="#FBCBC1"/>
<path d="M235.721 69.1935C235.721 69.1935 242.473 64.5243 243.725 59.3514C243.725 59.3514 250.899 59.9368 253.397 66.3552C255.895 72.7736 245.644 81.6151 235.721 69.1935Z" fill="#FBCBC1"/>
<path d="M31.9024 47.4539C26.3892 48.4204 25.8039 53.9336 27.9615 61.6861C27.9615 61.6861 15.1314 62.1965 14.8728 65.7495C14.6209 69.3092 16.2681 70.514 16.2681 70.514C16.2681 70.514 12.7083 73.114 16.1388 77.5586C16.1388 77.5586 14.4848 82.643 17.2822 83.909C17.2822 83.909 17.1529 88.7347 20.9645 88.4829C24.7761 88.231 27.9547 87.7205 26.6819 90.518C25.4091 93.3154 20.7127 104.75 17.2822 109.828C13.8518 114.912 -0.121715 136.128 0.00080066 146.29H36.8574C36.8574 146.29 44.2288 112.625 45.8759 106.649C47.5299 100.68 54.7719 78.4434 44.0995 64.851C37.8444 57.8268 35.326 54.4917 35.1899 52.1843C35.0538 49.8838 34.2438 47.0455 31.9024 47.4539Z" fill="#F8A796"/>
<path d="M36.6397 86.9378C36.6193 86.9378 36.592 86.9378 36.5716 86.931C36.3674 86.8901 36.2313 86.6996 36.2721 86.4954C37.5177 79.8591 38.1643 70.8611 34.1962 65.695C31.8412 62.6321 28.9553 62.3735 28.928 62.3735C28.7238 62.3599 28.5673 62.1761 28.5809 61.9719C28.5945 61.7677 28.7783 61.6112 28.9825 61.6248C29.1118 61.6316 32.2359 61.9107 34.7883 65.239C38.1099 69.5679 38.8518 76.7622 37.0072 86.6383C36.9732 86.8085 36.8166 86.9378 36.6397 86.9378Z" fill="#F26E71"/>
<path d="M16.9626 70.8883C16.7856 70.8883 16.6223 70.759 16.5951 70.5752C16.561 70.371 16.6972 70.1805 16.9013 70.1464L35.6462 67.0495C35.8504 67.0155 36.0409 67.1516 36.075 67.3558C36.109 67.56 35.9729 67.7506 35.7687 67.7846L17.0239 70.8815C17.0034 70.8883 16.983 70.8883 16.9626 70.8883Z" fill="#F26E71"/>
<path d="M16.9626 77.824C16.7856 77.824 16.6223 77.6947 16.5951 77.5109C16.561 77.3067 16.6972 77.1162 16.9013 77.0821L37.4022 73.6653C37.6064 73.6313 37.797 73.7674 37.831 73.9716C37.8651 74.1758 37.7289 74.3664 37.5247 74.4004L17.0239 77.8172C17.0034 77.824 16.983 77.824 16.9626 77.824Z" fill="#F26E71"/>
<path d="M17.9085 84.1199C17.7179 84.1199 17.5546 83.977 17.5342 83.7864C17.5137 83.5822 17.6567 83.3985 17.8677 83.3712L37.3272 81.2272C37.5314 81.2068 37.7151 81.3497 37.7424 81.5607C37.7628 81.7649 37.6198 81.9487 37.4088 81.9759L17.9494 84.1199C17.9357 84.1199 17.9221 84.1199 17.9085 84.1199Z" fill="#F26E71"/>
<path d="M47.9381 81.0843C47.8496 81.0843 47.7544 81.0502 47.6863 80.9822C47.6386 80.9413 42.915 76.6873 37.7558 78.8109C37.5652 78.8926 37.3474 78.7973 37.2657 78.6067C37.184 78.4162 37.2793 78.1984 37.4699 78.1167C43.0716 75.8093 48.1423 80.3832 48.1968 80.4309C48.3465 80.5738 48.3601 80.8052 48.2172 80.9618C48.1423 81.0434 48.0402 81.0843 47.9381 81.0843Z" fill="#F26E71"/>
<path d="M69.0046 26.1907C68.9569 26.1907 68.9093 26.1838 68.8685 26.1702C68.569 26.0954 68.3852 25.7891 68.4601 25.4896C68.4805 25.4079 68.991 23.4613 70.9921 22.4539C72.7413 21.5691 75.0283 21.6916 77.7848 22.8147C78.0707 22.9304 78.2068 23.2571 78.0911 23.5498C77.9754 23.8356 77.6487 23.9786 77.356 23.8561C74.9125 22.8623 72.9455 22.7262 71.4957 23.4545C69.9507 24.2372 69.5491 25.7482 69.5491 25.7619C69.4878 26.0205 69.2564 26.1907 69.0046 26.1907Z" fill="#223D4E"/>
<path d="M57.413 30.397C57.3041 30.397 57.1952 30.363 57.0999 30.3017C56.8412 30.1248 56.7732 29.7776 56.9502 29.519C56.9774 29.4781 59.7748 25.4828 65.3697 27.6881C65.6555 27.8038 65.7985 28.1305 65.6896 28.4163C65.5739 28.7022 65.2472 28.8452 64.9613 28.7363C60.1968 26.8577 57.903 30.118 57.8826 30.152C57.7737 30.3153 57.5968 30.397 57.413 30.397Z" fill="#223D4E"/>
<path d="M67.9011 38.4354C67.2681 38.4354 66.7508 38.2924 66.4922 37.9181C65.9953 37.1966 66.6556 36.2777 67.1865 35.6447C69.6844 32.6908 66.8325 29.8389 66.71 29.7232C66.4854 29.5054 66.4854 29.1514 66.6964 28.9268C66.9142 28.7022 67.2681 28.6954 67.4927 28.9132C68.7996 30.1792 70.5965 33.3578 68.0509 36.373C67.6085 36.8971 67.4927 37.1762 67.4587 37.2851C67.9011 37.4416 69.5483 37.1353 71.0525 36.6044C71.3452 36.5023 71.6651 36.6589 71.7672 36.9516C71.8693 37.2442 71.7127 37.5641 71.42 37.6662C70.4467 38.0134 69.0038 38.4354 67.9011 38.4354Z" fill="#F26E71"/>
<path d="M66.8877 42.8391C64.274 42.8391 63.2803 41.1307 63.2258 41.0286C63.0829 40.7699 63.1373 40.4228 63.3551 40.2458C63.5729 40.0757 63.8588 40.1437 64.0085 40.3956C64.0766 40.5113 65.5536 42.8935 70.0662 40.9469C70.3113 40.838 70.5835 40.9945 70.672 41.2872C70.7605 41.5799 70.6312 41.8998 70.3861 42.0087C68.9908 42.6213 67.8337 42.8391 66.8877 42.8391Z" fill="#F26E71"/>
<path d="M62.2585 33.8342C63.0441 33.8342 63.681 33.1974 63.681 32.4117C63.681 31.6261 63.0441 30.9892 62.2585 30.9892C61.4728 30.9892 60.8359 31.6261 60.8359 32.4117C60.8359 33.1974 61.4728 33.8342 62.2585 33.8342Z" fill="#0D191A"/>
<path d="M72.1413 30.7442C72.9269 30.7442 73.5638 30.1073 73.5638 29.3216C73.5638 28.536 72.9269 27.8991 72.1413 27.8991C71.3556 27.8991 70.7188 28.536 70.7188 29.3216C70.7188 30.1073 71.3556 30.7442 72.1413 30.7442Z" fill="#0D191A"/>
<path d="M191.757 137.748H154.935C152.593 137.748 151.13 135.216 152.294 133.187C152.838 132.241 153.846 131.656 154.935 131.656H191.757C194.099 131.656 195.562 134.188 194.398 136.216C193.861 137.162 192.853 137.748 191.757 137.748Z" fill="#E0E0E0"/>
<path d="M184.631 145.255H154.662C152.756 145.255 151.565 143.199 152.511 141.545C152.954 140.776 153.77 140.3 154.662 140.3H184.624C186.53 140.3 187.721 142.355 186.775 144.009C186.339 144.785 185.515 145.255 184.631 145.255Z" fill="#E0E0E0"/>
<path d="M204.092 108.367C218.778 96.2381 223.873 78.161 215.474 67.9911C207.074 57.8212 188.36 59.4095 173.674 71.5388C158.989 83.6681 153.893 101.745 162.293 111.915C170.693 122.085 189.407 120.497 204.092 108.367Z" fill="#FCCC3F"/>
<path d="M173.067 84.188L173.959 83.6026C175.429 82.6361 177.41 83.0785 178.329 84.5828L181.678 90.0483C182.624 91.5933 184.686 92.0085 186.156 90.9535L206.5 76.3266C207.923 75.3056 209.904 75.6528 210.891 77.0957L211.435 77.8853C212.402 79.2874 212.054 81.2068 210.666 82.1937L184.278 100.877C182.841 101.891 180.854 101.524 179.881 100.061L172.189 88.5237C171.223 87.0875 171.618 85.1341 173.067 84.188Z" fill="white"/>
</svg>
