<svg width="311" height="200" viewBox="0 0 311 200" fill="none" xmlns="http://www.w3.org/2000/svg">
<g id="welcome img">
<g id="Group">
<path id="Vector" d="M296.645 88.8712H200.673C193.133 88.8712 187.014 82.7606 187.014 75.2122V13.8519C187.014 6.31224 193.124 0.192871 200.673 0.192871H296.645C304.185 0.192871 310.304 6.30348 310.304 13.8519V75.2122C310.304 82.7606 304.185 88.8712 296.645 88.8712Z" fill="white"/>
<path id="Vector_2" d="M304.448 89.0553H192.87C189.539 89.0553 186.83 86.3463 186.83 83.0148V6.04047C186.83 2.70901 189.539 0 192.87 0H304.457C307.788 0 310.497 2.70901 310.497 6.04047V83.0148C310.488 86.355 307.779 89.0553 304.448 89.0553ZM192.87 0.385749C189.749 0.385749 187.207 2.92818 187.207 6.04924V83.0236C187.207 86.1446 189.749 88.6871 192.87 88.6871H304.457C307.578 88.6871 310.12 86.1446 310.12 83.0236V6.04924C310.12 2.92818 307.578 0.385749 304.457 0.385749H192.87Z" fill="#A8BBE2"/>
</g>
<g id="Group_2">
<path id="Vector_3" d="M193.659 6.29472C194.502 6.29472 195.185 5.61175 195.185 4.76926C195.185 3.92678 194.502 3.2438 193.659 3.2438C192.817 3.2438 192.134 3.92678 192.134 4.76926C192.134 5.61175 192.817 6.29472 193.659 6.29472Z" fill="#DD4343"/>
</g>
<g id="Group_3">
<path id="Vector_4" d="M198.525 6.29472C199.367 6.29472 200.05 5.61175 200.05 4.76926C200.05 3.92678 199.367 3.2438 198.525 3.2438C197.682 3.2438 197 3.92678 197 4.76926C197 5.61175 197.682 6.29472 198.525 6.29472Z" fill="#FEBF00"/>
</g>
<g id="Group_4">
<path id="Vector_5" d="M203.373 6.29472C204.216 6.29472 204.899 5.61175 204.899 4.76926C204.899 3.92678 204.216 3.2438 203.373 3.2438C202.531 3.2438 201.848 3.92678 201.848 4.76926C201.848 5.61175 202.531 6.29472 203.373 6.29472Z" fill="#0D8F62"/>
</g>
<g id="Group_5">
<path id="Vector_6" d="M304.43 86.5479H192.739C190.661 86.5479 188.978 84.8647 188.978 82.7869V9.04756H308.191V82.7869C308.191 84.8647 306.508 86.5479 304.43 86.5479Z" fill="#A8BBE2"/>
</g>
<g id="Group_6">
<path id="Vector_7" d="M232.944 19.2962C232.944 19.2962 238.669 6.41746 259.298 12.8612C279.926 19.2962 279.33 53.4086 271.58 72.0122L239.388 86.5567H224.598C224.598 86.5567 209.808 74.1514 218.04 66.0419C226.272 57.9324 234.022 49.8229 230.2 40.4072C226.386 30.9826 226.737 22.9871 232.944 19.2962Z" fill="#49275A"/>
</g>
<g id="Group_7">
<path id="Vector_8" d="M242.421 31.8506C242.421 31.8506 249.987 36.05 251.714 36.0412C251.723 36.0412 247.34 36.3305 242.421 31.8506Z" fill="#FFC3A8"/>
</g>
<g id="Group_8">
<path id="Vector_9" d="M233.532 20.3482C233.532 20.3482 239.055 38.04 251.828 36.9179C251.828 36.9179 256.229 34.4193 258.298 39.3375C260.367 44.2558 254.757 46.4125 254.757 46.4125C254.757 46.4125 257.518 50.2963 259.587 54.2678C261.656 58.2392 264.847 65.4895 266.408 66.261C266.408 66.261 257.141 69.6276 252.924 69.4522C252.924 69.4522 250.785 54.0924 244.14 56.1614C237.494 58.2305 235.978 58.4672 235.013 54.3642L234.119 53.619C233.646 53.2245 233.628 52.4881 234.093 52.0848C234.627 51.6201 235.381 51.0853 236.223 50.8925C236.223 50.8925 231.918 50.2612 231.918 49.5423C231.918 48.8147 232.55 49.0076 232.497 47.7539C232.444 46.5002 230.858 46.2547 230.27 46.0618C229.692 45.869 226.983 44.8082 228.438 43.16C229.893 41.5118 232.357 37.3562 231.769 35.2346C231.182 33.113 228.71 23.6884 233.532 20.3482Z" fill="#FFC3A8"/>
</g>
<g id="Group_9">
<path id="Vector_10" d="M278.725 86.5479C278.725 86.5479 278.673 73.1081 266.408 66.2523C266.408 66.2523 257.509 69.4698 252.924 69.4435C252.924 69.4435 248.19 75.6768 245.446 76.9305C242.702 78.1842 239.396 84.5666 239.37 86.5391H278.725V86.5479Z" fill="#7E77D1"/>
</g>
<g id="Group_10">
<path id="Vector_11" d="M240.624 35.8045C240.51 35.8045 240.396 35.7518 240.326 35.6554C239.037 33.9546 237.661 33.0165 236.24 32.8675C234.548 32.6922 233.347 33.7179 233.338 33.7267C233.181 33.8582 232.944 33.8494 232.812 33.6916C232.672 33.5338 232.69 33.2971 232.847 33.1656C232.909 33.113 234.285 31.9207 236.31 32.1223C237.959 32.2889 239.51 33.3234 240.931 35.1995C241.053 35.3661 241.027 35.6028 240.861 35.7256C240.782 35.7782 240.703 35.8045 240.624 35.8045Z" fill="#49275A"/>
</g>
<g id="Group_11">
<path id="Vector_12" d="M254.546 43.7211C254.432 43.7211 254.327 43.6685 254.248 43.5808C254.117 43.4142 254.143 43.1863 254.309 43.0548C254.809 42.6602 255.098 42.1868 255.16 41.6608C255.274 40.6526 254.546 39.7233 254.537 39.7145C254.406 39.5567 254.432 39.32 254.599 39.1885C254.757 39.057 254.993 39.0833 255.125 39.2499C255.16 39.2937 256.054 40.4247 255.905 41.7485C255.826 42.4849 255.44 43.1249 254.774 43.6509C254.713 43.6948 254.625 43.7211 254.546 43.7211Z" fill="#FCA689"/>
</g>
<g id="Group_12">
<path id="Vector_13" d="M236.013 38.943C236.478 38.943 236.855 38.2954 236.855 37.4965C236.855 36.6976 236.478 36.0499 236.013 36.0499C235.548 36.0499 235.171 36.6976 235.171 37.4965C235.171 38.2954 235.548 38.943 236.013 38.943Z" fill="#49275A"/>
</g>
<g id="Group_13" opacity="0.3">
<path id="Vector_14" d="M269.696 81.314C274.862 81.314 279.05 77.1259 279.05 71.9596C279.05 66.7933 274.862 62.6052 269.696 62.6052C264.529 62.6052 260.341 66.7933 260.341 71.9596C260.341 77.1259 264.529 81.314 269.696 81.314Z" fill="white"/>
</g>
<g id="Group_14" opacity="0.3">
<path id="Vector_15" d="M293.402 81.314C298.568 81.314 302.756 77.1259 302.756 71.9596C302.756 66.7933 298.568 62.6052 293.402 62.6052C288.235 62.6052 284.047 66.7933 284.047 71.9596C284.047 77.1259 288.235 81.314 293.402 81.314Z" fill="white"/>
</g>
<g id="Group_15">
<g id="Group_16">
<g id="Group_17">
<path id="Vector_16" d="M272.404 72.0999C272.404 71.9333 272.273 71.8018 272.106 71.8018C271.94 71.8018 271.808 71.9333 271.808 72.0999C271.808 73.2659 270.861 74.2127 269.695 74.2127C268.529 74.2127 267.583 73.2659 267.583 72.0999C267.583 71.9333 267.451 71.8018 267.284 71.8018C267.118 71.8018 266.986 71.9333 266.986 72.0999C266.986 73.4851 268.021 74.6511 269.406 74.8089V75.6067H268.319C268.152 75.6067 268.021 75.7382 268.021 75.9047C268.021 76.0713 268.152 76.2028 268.319 76.2028H271.089C271.256 76.2028 271.387 76.0713 271.387 75.9047C271.387 75.7382 271.256 75.6067 271.089 75.6067H270.002V74.8089C271.37 74.6511 272.404 73.4851 272.404 72.0999Z" fill="white"/>
</g>
</g>
</g>
<g id="Group_18">
<g id="Group_19">
<g id="Group_20">
<path id="Vector_17" d="M269.696 67.7164C268.775 67.7164 268.03 68.4616 268.03 69.3821V72.0911C268.03 73.0204 268.775 73.7568 269.696 73.7656C270.616 73.7656 271.361 73.0204 271.361 72.0999V69.3821C271.361 68.4616 270.616 67.7164 269.696 67.7164Z" fill="white"/>
</g>
</g>
</g>
<g id="Group_21">
<g id="Group_22">
<path id="Vector_18" d="M297.864 68.8123C297.82 68.7947 297.776 68.786 297.732 68.786C297.636 68.786 297.557 68.821 297.496 68.8824L295.4 70.9777V70.1185C295.4 69.7065 295.251 69.3558 294.962 69.0577C294.673 68.7684 294.313 68.6194 293.901 68.6194H290.236C289.824 68.6194 289.474 68.7684 289.176 69.0577C288.886 69.347 288.737 69.7065 288.737 70.1185V73.7832C288.737 74.1952 288.886 74.5459 289.176 74.844C289.465 75.1333 289.824 75.2823 290.236 75.2823H293.901C294.313 75.2823 294.664 75.1333 294.962 74.844C295.251 74.5546 295.4 74.1952 295.4 73.7832V72.9152L297.496 75.0105C297.557 75.0807 297.636 75.107 297.732 75.107C297.776 75.107 297.82 75.0982 297.864 75.0807C297.995 75.0193 298.065 74.9229 298.065 74.7738V69.1103C298.065 68.9788 297.995 68.8736 297.864 68.8123Z" fill="white"/>
</g>
</g>
<g id="Group_23">
<path id="Vector_19" d="M78.7938 198.713H14.9437L0.258955 124.649C-1.37171 116.443 4.90547 108.79 13.278 108.79H56.9377L78.7938 198.713Z" fill="#233D61"/>
</g>
<g id="Group_24">
<path id="Vector_20" d="M37.3609 198.713H14.9437L0.258955 124.649C-1.37171 116.443 4.90547 108.79 13.278 108.79H31.1977C27.5594 111.385 22.5184 115.961 23.097 121.116C23.7808 127.288 33.1352 176.603 37.3609 198.713Z" fill="#12253F"/>
</g>
<g id="Group_25">
<path id="Vector_21" d="M104.735 57.5992C104.735 57.5992 97.8268 33.2182 117.228 28.3437C117.228 28.3437 131.001 14.1675 137.673 32.6922C137.673 32.6922 152.27 25.1438 155.014 39.0044C157.758 52.8651 144.196 53.9346 144.196 53.9346L104.735 57.5992Z" fill="#02004E"/>
</g>
<g id="Group_26">
<path id="Vector_22" d="M148.805 68.2481C149.266 62.8351 146.996 58.2217 143.735 57.9438C140.473 57.6659 137.456 61.8288 136.994 67.2418C136.533 72.6549 138.803 77.2683 142.064 77.5462C145.326 77.824 148.343 73.6612 148.805 68.2481Z" fill="#002B74"/>
</g>
<g id="Group_27">
<path id="Vector_23" d="M145.132 67.5447C145.523 62.9566 144.025 59.0827 141.786 58.8919C139.548 58.7012 137.416 62.2659 137.025 66.854C136.634 71.442 138.132 75.316 140.371 75.5067C142.609 75.6975 144.741 72.1327 145.132 67.5447Z" fill="#4866FF"/>
</g>
<g id="Group_28">
<path id="Vector_24" d="M142.977 60.1855C143.135 63.2364 141.934 83.348 132.097 88.6783C132.097 88.6783 131.676 91.738 131.466 94.7188C131.352 96.3494 131.29 97.9626 131.404 99.0409C131.711 102.083 115.098 116.259 115.098 116.259L99.4048 95.6919L104.884 72.8363L106.559 64.7619C106.559 64.7619 98.7736 59.1247 103.508 53.1807C108.233 47.2366 112.959 54.8552 112.959 54.8552C112.959 54.8552 119.963 57.1434 119.201 45.1063C119.201 45.1063 125.443 51.6552 135.507 45.1063C135.507 45.1063 139.786 52.5758 144.976 52.2689C144.984 52.2689 142.828 57.1434 142.977 60.1855Z" fill="#FFC1A4"/>
</g>
<g id="Group_29">
<path id="Vector_25" d="M132.097 88.6783C132.097 88.6783 131.676 91.738 131.466 94.7188C131.466 94.7188 106.384 95.7971 109.443 68.032C109.294 69.9169 108.347 88.9676 132.097 88.6783Z" fill="#FAA588"/>
</g>
<g id="Group_30">
<path id="Vector_26" d="M125.592 65.9016C121.489 65.9016 118.158 62.5614 118.158 58.4672C118.158 54.3642 121.498 51.0327 125.592 51.0327C129.695 51.0327 133.027 54.373 133.027 58.4672C133.035 62.5614 129.695 65.9016 125.592 65.9016ZM125.592 52.1549C122.112 52.1549 119.28 54.9867 119.28 58.4672C119.28 61.9477 122.112 64.7794 125.592 64.7794C129.073 64.7794 131.904 61.9477 131.904 58.4672C131.904 54.9867 129.073 52.1549 125.592 52.1549Z" fill="white"/>
</g>
<g id="Group_31">
<path id="Vector_27" d="M141.083 67.769C137.287 67.769 134.192 64.6742 134.192 60.8781C134.192 57.082 137.287 53.9872 141.083 53.9872C144.879 53.9872 147.974 57.082 147.974 60.8781C147.974 64.6742 144.888 67.769 141.083 67.769ZM141.083 55.1182C137.901 55.1182 135.323 57.7045 135.323 60.8781C135.323 64.0518 137.91 66.638 141.083 66.638C144.257 66.638 146.843 64.0518 146.843 60.8781C146.843 57.7045 144.266 55.1182 141.083 55.1182Z" fill="white"/>
</g>
<g id="Group_32">
<path id="Vector_28" d="M113.044 53.7647L112.777 54.8545L119.086 56.4033L119.354 55.3134L113.044 53.7647Z" fill="white"/>
</g>
<g id="Group_33">
<path id="Vector_29" d="M92.8561 98.0766C92.8561 98.0766 98.6511 96.1303 100.317 93.7194L118.903 105.651L131.457 95.4991L137.664 99.9702L138.857 198.643H92.1372L92.8561 98.0766Z" fill="white"/>
</g>
<g id="Group_34">
<path id="Vector_30" d="M112.687 114.734L98.1777 97.7697L98.467 97.5242L112.661 114.12L118.885 105.353L125.522 112.603L131.922 97.568L132.264 97.7171L125.645 113.287L118.92 105.949L112.687 114.734Z" fill="#C6C9DC"/>
</g>
<g id="Group_35">
<path id="Vector_31" d="M119.499 108.062H119.122V117.697H119.499V108.062Z" fill="#C6C9DC"/>
</g>
<g id="Group_36">
<path id="Vector_32" d="M113.547 193.427L113.205 193.269C113.248 193.172 117.641 183.879 120.271 177.313C122.392 172.017 122.217 170.361 122.059 168.896C122.024 168.528 121.98 168.178 121.98 167.774C121.98 167.275 121.56 166.345 121.069 165.258C119.657 162.137 117.518 157.412 120.481 153.633C124.514 148.496 123.769 140.009 121.998 135.889C120.069 131.417 119.122 121.414 119.114 121.309L119.491 121.274C119.499 121.37 120.446 131.321 122.349 135.74C124.207 140.062 124.952 148.539 120.788 153.861C117.965 157.455 120.043 162.058 121.419 165.1C121.945 166.266 122.366 167.196 122.366 167.774C122.366 168.151 122.401 168.493 122.445 168.853C122.603 170.361 122.787 172.07 120.63 177.453C117.991 184.02 113.59 193.33 113.547 193.427Z" fill="#C6C9DC"/>
</g>
<g id="Group_37">
<path id="Vector_33" d="M118.219 142.999C117.246 142.999 116.457 142.21 116.457 141.237C116.457 140.263 117.246 139.474 118.219 139.474C119.192 139.474 119.981 140.263 119.981 141.237C119.981 142.21 119.192 142.999 118.219 142.999ZM118.219 139.86C117.456 139.86 116.834 140.483 116.834 141.245C116.834 142.008 117.456 142.63 118.219 142.63C118.982 142.63 119.604 142.008 119.604 141.245C119.604 140.483 118.982 139.86 118.219 139.86Z" fill="#C6C9DC"/>
</g>
<g id="Group_38">
<path id="Vector_34" d="M118.219 167.722C117.246 167.722 116.457 166.933 116.457 165.959C116.457 164.986 117.246 164.197 118.219 164.197C119.192 164.197 119.981 164.986 119.981 165.959C119.981 166.933 119.192 167.722 118.219 167.722ZM118.219 164.574C117.456 164.574 116.834 165.197 116.834 165.959C116.834 166.722 117.456 167.345 118.219 167.345C118.982 167.345 119.604 166.722 119.604 165.959C119.604 165.197 118.982 164.574 118.219 164.574Z" fill="#C6C9DC"/>
</g>
<g id="Group_39">
<path id="Vector_35" d="M106.471 131.4C106.471 131.4 110.513 144.568 109.951 150.486C109.39 156.412 101.772 198.713 101.772 198.713H46.7764L49.9764 190.814L19.9757 190.718C19.9757 190.718 -3.05525 187.237 9.06952 167.213C21.1943 147.189 45.2597 112.402 52.0366 108.457C52.0366 108.457 59.3133 99.4617 86.0702 97.8837C88.6389 97.7258 91.3917 97.6469 94.3374 97.6469C94.3374 97.6469 94.241 115.795 110.881 120.494L106.471 131.4Z" fill="#A1EDE5"/>
</g>
<g id="Group_40">
<path id="Vector_36" d="M110.89 120.494L106.471 131.4C81.5555 121.055 86.0705 97.8837 86.0705 97.8837C88.6392 97.7258 91.392 97.6469 94.3378 97.6469C94.3465 97.6469 94.2501 115.795 110.89 120.494Z" fill="#4E3FE9"/>
</g>
<g id="Group_41">
<path id="Vector_37" d="M174.898 122.186L167.393 198.713H130.256C131.755 192.225 130.16 151.52 130.16 151.52C126.118 142.122 129.686 129.515 129.686 129.515L124.803 119.266C138.147 108.834 136.551 99.339 136.551 99.339C137.892 99.9877 140.408 100.794 143.53 101.689C148.799 103.196 155.786 104.959 161.704 106.581C171.128 109.176 174.898 122.186 174.898 122.186Z" fill="#A1EDE5"/>
</g>
<g id="Group_42">
<path id="Vector_38" d="M143.538 101.689C142.749 125.596 129.695 129.515 129.695 129.515L124.812 119.266C138.155 108.834 136.559 99.339 136.559 99.339C137.901 99.9877 140.417 100.794 143.538 101.689Z" fill="#4E3FE9"/>
</g>
<g id="Group_43">
<path id="Vector_39" d="M171.759 198.713H98.2831C96.5473 198.713 95.1445 197.31 95.1445 195.574C95.1445 193.839 96.5473 192.436 98.2831 192.436H171.759C173.495 192.436 174.898 193.839 174.898 195.574C174.898 197.302 173.495 198.713 171.759 198.713Z" fill="#02004E"/>
</g>
<g id="Group_44">
<path id="Vector_40" d="M114.642 196.653C114.046 196.653 113.555 196.171 113.555 195.566C113.555 194.97 114.037 194.479 114.642 194.479C115.238 194.479 115.729 194.961 115.729 195.566C115.729 196.162 115.247 196.653 114.642 196.653ZM114.642 194.856C114.248 194.856 113.932 195.171 113.932 195.566C113.932 195.96 114.248 196.276 114.642 196.276C115.037 196.276 115.352 195.96 115.352 195.566C115.352 195.171 115.037 194.856 114.642 194.856Z" fill="white"/>
</g>
<g id="Group_45">
<path id="Vector_41" d="M126.425 195.382H118.07V195.759H126.425V195.382Z" fill="white"/>
</g>
<g id="Group_46">
<path id="Vector_42" d="M271.15 126.981L252.661 194.926C252.056 197.161 250.022 198.713 247.707 198.713H154.128L155.54 193.111L173.24 122.861C174.214 118.986 177.72 116.277 181.709 116.312L263.541 116.934C266.294 116.961 268.652 118.355 270.055 120.415C271.308 122.247 271.808 124.606 271.15 126.981Z" fill="#101077"/>
</g>
<g id="Group_47">
<path id="Vector_43" d="M271.15 126.981L252.661 194.926C252.056 197.161 250.022 198.713 247.707 198.713H154.128L155.54 193.111L270.055 120.415C271.308 122.247 271.808 124.605 271.15 126.981Z" fill="#02015E"/>
</g>
<g id="Group_48">
<path id="Vector_44" d="M175.695 146.225L175.327 146.137L179.825 126.955C179.825 126.938 180.368 122.94 184.813 123.203C189.083 123.457 242.894 123.194 243.438 123.194V123.571C242.894 123.571 189.065 123.834 184.787 123.58C180.701 123.334 180.21 126.876 180.193 127.025L175.695 146.225Z" fill="white"/>
</g>
<g id="Group_49">
<path id="Vector_45" d="M219.127 157.622C221.055 157.622 222.617 156.06 222.617 154.133C222.617 152.206 221.055 150.644 219.127 150.644C217.2 150.644 215.638 152.206 215.638 154.133C215.638 156.06 217.2 157.622 219.127 157.622Z" fill="white"/>
</g>
<g id="Group_50">
<path id="Vector_46" d="M74.9539 172.543L85.7549 174.437C85.7549 174.437 109.163 164.066 113.625 166.266C118.088 168.467 137.691 181.398 138.374 183.599C139.058 185.79 136.411 187.228 134.21 186.395C132.01 185.563 125.583 180.644 125.583 180.644C125.583 180.644 131.107 187.079 126.714 190.63C126.714 190.63 125.803 193.654 122.173 191.84C122.173 191.84 118.386 192.594 116.799 190.858C115.212 189.113 114.3 188.438 112.336 188.815C110.373 189.192 101.965 191.919 99.3963 191.77C96.8276 191.621 92.146 190.639 92.146 190.639L68.668 190.867L74.9539 172.543Z" fill="#FFC1A4"/>
</g>
<g id="Group_51">
<path id="Vector_47" d="M82.2045 182.748C82.2045 182.748 80.8368 188.973 81.7136 190.735L75.375 190.796C75.375 190.796 75.8133 183.713 76.9969 182.398C78.1804 181.083 82.2045 182.748 82.2045 182.748Z" fill="#02004E"/>
</g>
<g id="Group_52">
<path id="Vector_48" d="M87.3208 180.38C89.3817 176.535 88.5441 172.073 85.4501 170.415C82.356 168.757 78.1772 170.53 76.1163 174.375C74.0554 178.22 74.893 182.681 77.987 184.34C81.0811 185.998 85.2599 184.225 87.3208 180.38Z" fill="#02004E"/>
</g>
<g id="Group_53">
<path id="Vector_49" d="M86.4325 179.904C88.1686 176.665 87.4655 172.908 84.8623 171.512C82.259 170.117 78.7413 171.612 77.0052 174.851C75.2692 178.09 75.9722 181.847 78.5754 183.242C81.1787 184.638 84.6964 183.143 86.4325 179.904Z" fill="white"/>
</g>
<g id="Group_54">
<path id="Vector_50" d="M83.2126 179.61L80.9507 177.576L84.4487 174.683L84.6854 174.972L81.5293 177.593L83.4668 179.329L83.2126 179.61Z" fill="#02004E"/>
</g>
<g id="Group_55">
<path id="Vector_51" d="M125.583 181.021C125.487 181.021 125.39 180.986 125.311 180.907L119.034 174.376C118.894 174.227 118.894 173.99 119.043 173.841C119.192 173.701 119.429 173.701 119.578 173.85L125.855 180.381C125.995 180.53 125.995 180.767 125.846 180.916C125.767 180.986 125.68 181.021 125.583 181.021Z" fill="#FAA588"/>
</g>
<g id="Group_56">
<path id="Vector_52" d="M126.714 191.007C126.53 191.007 126.364 190.867 126.346 190.682C125.505 184.195 116.571 179.575 116.483 179.531C116.299 179.434 116.229 179.206 116.317 179.022C116.404 178.838 116.641 178.768 116.825 178.856C116.922 178.908 119.192 180.066 121.603 182.091C124.83 184.791 126.723 187.728 127.091 190.586C127.118 190.788 126.969 190.981 126.767 191.007C126.75 191.007 126.732 191.007 126.714 191.007Z" fill="#FAA588"/>
</g>
<g id="Group_57">
<path id="Vector_53" d="M122.182 192.217C122.007 192.217 121.849 192.094 121.814 191.919C120.736 186.86 114.195 184.256 114.134 184.23C113.941 184.151 113.845 183.941 113.924 183.748C114.003 183.555 114.213 183.458 114.406 183.537C114.476 183.564 116.168 184.23 118.018 185.562C120.499 187.351 122.059 189.499 122.55 191.761C122.594 191.962 122.463 192.164 122.261 192.208C122.235 192.217 122.208 192.217 122.182 192.217Z" fill="#FAA588"/>
</g>
<g id="Group_58">
<path id="Vector_54" d="M56.9462 168.151C56.8761 168.151 56.8147 168.134 56.7534 168.099C56.578 167.993 56.5167 167.757 56.6306 167.581L79.8895 129.322C79.9947 129.147 80.2314 129.085 80.4068 129.199C80.5821 129.305 80.6435 129.541 80.5295 129.717L57.2706 167.976C57.1917 168.081 57.069 168.151 56.9462 168.151Z" fill="#0D5E3F"/>
</g>
<g id="Group_59">
<path id="Vector_55" d="M74.9538 172.921C74.9275 172.921 74.8924 172.92 74.8573 172.912L32.3987 162.12C32.1971 162.067 32.0743 161.865 32.1269 161.664C32.1795 161.462 32.3812 161.339 32.5828 161.392L75.0414 172.184C75.2431 172.237 75.3658 172.438 75.3132 172.64C75.2781 172.807 75.1203 172.921 74.9538 172.921Z" fill="#0D5E3F"/>
</g>
<g id="Group_60">
<path id="Vector_56" d="M77.575 126.043C77.3909 126.043 77.2331 125.912 77.2068 125.719C75.4271 113.419 64.2755 107.492 64.1615 107.431C63.9774 107.334 63.9073 107.107 64.0037 106.922C64.1001 106.738 64.3281 106.668 64.5122 106.765C64.6262 106.826 76.1197 112.937 77.952 125.614C77.9783 125.815 77.838 126.008 77.6364 126.043C77.6189 126.043 77.6013 126.043 77.575 126.043Z" fill="#0D5E3F"/>
</g>
<g id="Group_61">
<path id="Vector_57" d="M141.347 199.09C141.311 199.09 141.285 199.09 141.25 199.081C141.048 199.029 140.926 198.827 140.987 198.625C141.136 198.064 155.935 142.026 159.249 129.427C162.624 116.592 166.692 115.917 166.867 115.891C167.069 115.865 167.262 116.005 167.288 116.215C167.314 116.417 167.174 116.61 166.972 116.636C166.902 116.654 163.168 117.478 159.976 129.62C156.671 142.218 141.864 198.248 141.715 198.818C141.662 198.976 141.513 199.09 141.347 199.09Z" fill="#0D5E3F"/>
</g>
<g id="Group_62">
<path id="Vector_58" d="M68.6766 191.235L49.9766 191.182C49.7662 191.182 49.5996 191.016 49.5996 190.805C49.5996 190.595 49.7662 190.428 49.9766 190.428L68.6766 190.481C68.887 190.481 69.0536 190.647 69.0536 190.858C69.0448 191.068 68.8783 191.235 68.6766 191.235Z" fill="#0D5E3F"/>
</g>
<g id="Group_63">
<path id="Vector_59" d="M98.1863 169.764C93.1979 167.774 90.1382 165.232 88.8232 161.979C86.8331 157.07 89.2966 151.582 91.4708 146.742C92.3037 144.892 93.0839 143.139 93.5573 141.578C94.8461 137.239 90.1645 132.049 85.1936 126.543C81.2046 122.116 77.0754 117.539 75.6814 112.98C72.7269 103.328 87.2276 90.686 93.4171 85.2855C93.873 84.8822 94.285 84.5315 94.6182 84.2334C99.177 80.1831 101.509 76.0801 101.535 76.0363L102.193 76.4045C102.167 76.4483 99.7732 80.6565 95.1179 84.7945C94.776 85.0926 94.3727 85.4521 93.908 85.8553C88.3498 90.7035 73.5861 103.573 76.4003 112.761C77.7504 117.162 81.8183 121.677 85.7547 126.035C90.8659 131.698 95.6877 137.046 94.2763 141.789C93.7941 143.402 92.9963 145.173 92.1546 147.049C90.0418 151.757 87.6484 157.087 89.5158 161.699C90.7519 164.75 93.6801 167.161 98.4581 169.063L98.1863 169.764Z" fill="#020050"/>
</g>
<g id="Group_64">
<path id="Vector_60" d="M90.8223 132.084L90.0684 132.075C90.1648 116.943 107.19 110.017 123.664 103.319C127.328 101.829 131.107 100.286 134.605 98.6902C140.496 95.9988 143.942 92.5446 144.845 88.4153C146.168 82.3748 141.522 76.8779 141.469 76.8253L142.039 76.3344C142.241 76.5711 146.984 82.1556 145.581 88.5731C144.625 92.9478 141.04 96.5861 134.92 99.3741C131.414 100.978 127.617 102.521 123.953 104.012C107.708 110.622 90.9188 117.452 90.8223 132.084Z" fill="#020050"/>
</g>
<g id="Group_65">
<path id="Vector_61" d="M102.254 72.0911L100.562 76.4659C100.387 76.913 100.588 77.4215 101.027 77.6319C101.43 77.8247 101.912 77.6932 102.175 77.3338L105.656 72.4067L102.254 72.0911Z" fill="#020050"/>
</g>
<g id="Group_66">
<path id="Vector_62" d="M107.497 45.5446C108.233 44.2734 109.031 42.932 109.882 41.5468C116.439 30.8073 123.4 32.2012 125.25 32.0697C127.109 31.9382 136.981 33.4637 136.981 33.4637L133.176 37.5053C123.611 36.7776 122.594 37.1721 119.885 40.0214C118.473 41.4942 116.755 45.3254 115.352 48.8936" fill="#4B67FF"/>
</g>
<g id="Group_67">
<path id="Vector_63" d="M112.722 56.1878C113.748 59.1335 114.773 64.4025 111.863 69.2418C108.952 74.0812 101.754 73.2659 101.754 73.2659L99.9922 59.9663C99.9922 59.9663 102.508 54.1363 107.497 45.5446L115.352 48.8936C113.853 52.6897 112.722 56.1878 112.722 56.1878Z" fill="#002B74"/>
</g>
<g id="Group_68">
<path id="Vector_64" d="M130.528 43.3265L130.177 43.2038C130.204 43.1424 132.509 36.6022 137.559 32.5431L137.796 32.8324C132.825 36.8302 130.545 43.2652 130.528 43.3265Z" fill="white"/>
</g>
<g id="Group_69">
<path id="Vector_65" d="M109.758 63.1351C110.435 57.116 107.945 51.8948 104.197 51.4731C100.449 51.0514 96.8619 55.5889 96.1847 61.608C95.5075 67.627 97.9969 72.8483 101.745 73.2699C105.493 73.6916 109.08 69.1541 109.758 63.1351Z" fill="#4B67FF"/>
</g>
<g id="Group_70">
<path id="Vector_66" d="M106.43 62.7606C106.775 59.6958 105.506 57.037 103.595 56.8221C101.685 56.6072 99.8574 58.9176 99.5125 61.9824C99.1677 65.0473 100.437 67.706 102.347 67.9209C104.257 68.1358 106.085 65.8255 106.43 62.7606Z" fill="#002B74"/>
</g>
<g id="Group_71">
<path id="Vector_67" d="M132.361 53.3999C132.168 53.3999 131.966 53.321 131.826 53.1719C128.968 50.2262 124.593 50.5944 124.549 50.6032C124.137 50.6383 123.769 50.3402 123.734 49.9281C123.699 49.5161 123.997 49.1479 124.409 49.1128C124.619 49.0953 129.538 48.6657 132.913 52.1286C133.202 52.4267 133.193 52.9001 132.895 53.1895C132.737 53.3297 132.553 53.3999 132.361 53.3999Z" fill="#02004E"/>
</g>
<g id="Group_72">
<path id="Vector_68" d="M142.319 53.9434C142.126 53.9434 141.934 53.8733 141.785 53.7242C140.469 52.4004 137.524 52.9352 136.498 53.2508C136.104 53.3735 135.683 53.1544 135.56 52.7598C135.437 52.3653 135.656 51.9445 136.051 51.8218C136.235 51.7604 140.619 50.4278 142.845 52.6722C143.135 52.9703 143.135 53.4437 142.845 53.733C142.705 53.8733 142.512 53.9434 142.319 53.9434Z" fill="#02004E"/>
</g>
<g id="Group_73">
<path id="Vector_69" d="M131.642 69.6188C131.458 69.6188 131.3 69.4873 131.273 69.3032C131.238 69.1015 131.379 68.9087 131.58 68.8736C131.589 68.8736 132.93 68.6281 133.553 67.541C134 66.7608 133.991 65.7262 133.518 64.4638C131.905 60.0978 134.263 55.0831 134.368 54.8639C134.456 54.6798 134.684 54.6009 134.868 54.6886C135.052 54.7763 135.131 55.0042 135.043 55.1883C135.017 55.2409 132.72 60.1417 134.219 64.2008C134.771 65.6912 134.763 66.9449 134.193 67.9268C133.386 69.312 131.773 69.61 131.703 69.6188C131.686 69.61 131.668 69.6188 131.642 69.6188Z" fill="#FAA588"/>
</g>
<g id="Group_74">
<path id="Vector_70" d="M131.641 72.924C124.321 72.0911 124.321 72.0911 124.321 72.0911C124.321 72.0911 127.196 77.2549 131.466 77.4741C136.375 77.7195 137.673 73.8533 137.673 73.8533L131.641 72.924Z" fill="white"/>
</g>
<g id="Group_75">
<path id="Vector_71" d="M128.908 58.8168C129.141 57.6042 128.767 56.5131 128.073 56.3798C127.378 56.2465 126.627 57.1214 126.394 58.334C126.161 59.5465 126.535 60.6376 127.229 60.7709C127.924 60.9042 128.675 60.0293 128.908 58.8168Z" fill="black"/>
</g>
<g id="Group_76">
<path id="Vector_72" d="M140.555 60.2465C140.788 59.0339 140.414 57.9429 139.719 57.8095C139.025 57.6762 138.274 58.5511 138.041 59.7637C137.808 60.9763 138.182 62.0673 138.876 62.2007C139.57 62.334 140.322 61.4591 140.555 60.2465Z" fill="black"/>
</g>
<g id="Group_77">
<path id="Vector_73" d="M132.183 56.5871L132.007 57.7043L135.531 58.2595L135.707 57.1423L132.183 56.5871Z" fill="white"/>
</g>
</g>
</svg>
