<svg width="12" height="12" viewBox="0 0 12 12" fill="none" xmlns="http://www.w3.org/2000/svg">
<path d="M5.73983 1.74961C5.76098 1.69802 5.79699 1.65389 5.84329 1.62284C5.88959 1.59178 5.94408 1.5752 5.99983 1.5752C6.05558 1.5752 6.11007 1.59178 6.15637 1.62284C6.20267 1.65389 6.23868 1.69802 6.25983 1.74961L7.32233 4.30511C7.34222 4.35292 7.37492 4.39433 7.41682 4.42476C7.45872 4.4552 7.50821 4.47348 7.55983 4.47761L10.3188 4.69861C10.5683 4.71861 10.6693 5.03011 10.4793 5.19261L8.37733 6.99361C8.33806 7.0272 8.30879 7.07096 8.29274 7.12009C8.27669 7.16921 8.27447 7.22181 8.28633 7.27211L8.92883 9.96461C8.94174 10.0186 8.93836 10.0753 8.91911 10.1274C8.89985 10.1795 8.86559 10.2247 8.82065 10.2573C8.77571 10.2899 8.7221 10.3085 8.6666 10.3107C8.6111 10.3129 8.5562 10.2986 8.50883 10.2696L6.14633 8.82711C6.1022 8.80021 6.05151 8.78598 5.99983 8.78598C5.94815 8.78598 5.89746 8.80021 5.85333 8.82711L3.49083 10.2701C3.44346 10.2991 3.38856 10.3134 3.33306 10.3112C3.27756 10.309 3.22396 10.2904 3.17902 10.2578C3.13407 10.2252 3.09981 10.18 3.08056 10.1279C3.0613 10.0758 3.05792 10.0191 3.07083 9.96511L3.71333 7.27211C3.72525 7.22181 3.72306 7.16919 3.707 7.12006C3.69095 7.07092 3.66165 7.02717 3.62233 6.99361L1.52033 5.19261C1.47824 5.15641 1.44779 5.10858 1.43281 5.05512C1.41783 5.00167 1.41899 4.94498 1.43614 4.89218C1.45329 4.83938 1.48568 4.79283 1.52921 4.75839C1.57275 4.72395 1.6255 4.70315 1.68083 4.69861L4.43983 4.47761C4.49146 4.47348 4.54094 4.4552 4.58284 4.42476C4.62475 4.39433 4.65744 4.35292 4.67733 4.30511L5.73983 1.74961Z" fill="#E3B342" stroke="#E3B342" stroke-width="1.5" stroke-linecap="round" stroke-linejoin="round"/>
</svg>
